<svg enable-background="new 0 0 512 512" version="1.1" viewBox="0 0 512 512" xml:space="preserve" xmlns="http://www.w3.org/2000/svg"><path d="m256 0c-141.5 0-256 114.51-256 256 0 141.5 114.51 256 256 256 141.5 0 256-114.51 256-256 0-141.5-114.51-256-256-256zm0 472c-119.39 0-216-96.615-216-216 0-119.39 96.615-216 216-216 119.39 0 216 96.615 216 216 0 119.39-96.615 216-216 216z"></path><path d="m256 128.88c-11.046 0-20 8.954-20 20v128.79c0 11.046 8.954 20 20 20s20-8.954 20-20v-128.79c0-11.046-8.954-20-20-20z"></path><circle cx="256" cy="349.16" r="27"></circle></svg>
