<!-- Generated by IcoMoon.io -->
<svg version="1.1" xmlns="http://www.w3.org/2000/svg" width="32" height="32" viewBox="0 0 32 32">
<title>alinti</title>
<path d="M30.75 9.75c-0.875-1.938-2-3.625-3.438-5.063s-3.125-2.563-5.063-3.438c-2-0.813-4.063-1.25-6.25-1.25-1.5 0-2.875 0.188-4.25 0.563s-2.625 0.938-3.813 1.625c-1.188 0.688-2.25 1.5-3.25 2.5s-1.813 2.063-2.5 3.25c-0.688 1.188-1.25 2.438-1.625 3.813s-0.563 2.75-0.563 4.25c0 1.5 0.188 2.875 0.563 4.25s0.938 2.625 1.625 3.813c0.688 1.188 1.5 2.25 2.5 3.25s2.063 1.813 3.25 2.5c1.188 0.688 2.438 1.25 3.813 1.625s2.75 0.563 4.25 0.563c1.5 0 2.875-0.188 4.25-0.563s2.625-0.938 3.813-1.625c1.188-0.688 2.25-1.5 3.25-2.5s1.813-2.063 2.5-3.25c0.688-1.188 1.25-2.438 1.625-3.813s0.563-2.75 0.563-4.25c0-2.188-0.438-4.25-1.25-6.25zM15.5 11.125c-0.063 0.125-0.188 0.188-0.313 0.188-2.188 0.313-3.313 1.375-3.313 3.063h1.938c0.375 0 0.5 0.188 0.5 0.5v7.375c0 0.313-0.125 0.5-0.5 0.5h-6.125c-0.375 0-0.5-0.188-0.5-0.5v-6.375c0-5 2.438-7.625 7.313-7.938 0.125 0 0.25 0.063 0.375 0.125 0.063 0.063 0.125 0.188 0.188 0.313l0.5 2.375c0.063 0.125 0.063 0.25-0.063 0.375zM25 11.125c-0.063 0.125-0.188 0.188-0.375 0.188-2.125 0.313-3.25 1.375-3.25 3.063h1.938c0.125 0 0.25 0.063 0.375 0.125 0.125 0.125 0.125 0.25 0.125 0.375v7.375c0 0.125 0 0.25-0.125 0.375-0.125 0.063-0.25 0.125-0.375 0.125h-6.125c-0.125 0-0.25-0.063-0.375-0.125-0.125-0.125-0.188-0.25-0.188-0.375v-6.375c0-5 2.5-7.625 7.438-7.938 0.125 0 0.188 0.063 0.313 0.125 0.063 0.063 0.188 0.188 0.188 0.313l0.5 2.375c0.063 0.125 0.063 0.25-0.063 0.375z"></path>
</svg>
