<!-- Generated by IcoMoon.io -->
<svg version="1.1" xmlns="http://www.w3.org/2000/svg" width="32" height="32" viewBox="0 0 32 32">
<title>anlasma</title>
<path d="M22.125 2.313c-0.813-0.75-2.063-0.75-2.813 0l-0.438 0.438c-0.75 0.75-0.75 2.063 0 2.813l0.063 0.063c-0.625 0.375-1.563 1-2.625 1.688-0.938-1.188-2.125-2.25-2.688-2.75 0.188-0.625 0-1.313-0.5-1.813l-0.438-0.438c-0.75-0.75-2-0.75-2.813 0l-9.313 9.375c-0.75 0.75-0.75 2 0 2.813l0.438 0.375c0.625 0.625 1.5 0.75 2.25 0.438 0.375 0.5 1.375 1.875 2.563 3.438-0.625 0.75-1.75 2.063-1.813 3.375 0 0.688 0.25 1.313 0.688 1.75 1.438 1.438 5.75 5.75 5.75 5.75l0.125 0.063c0.063 0.063 0.75 0.563 1.938 0.563 1 0 2.25-0.313 3.688-1.563 0.313 0.25 0.5 0.375 0.563 0.375 0.125 0.125 1.125 0.688 2.25 0.688 0.375 0 0.75-0.063 1.125-0.188 0.5-0.25 1.063-0.688 1.375-1.688 0.875-0.25 1.875-0.938 2.313-2.188 0.938-0.25 2-0.875 2.313-2.188 0.938-0.125 2-0.625 2.375-2 0.313-1 0-1.875-0.438-2.563 0.688-0.75 1.563-1.938 1.688-3.5 0.5 0 0.938-0.188 1.25-0.563l0.438-0.375c0.75-0.813 0.75-2.063 0-2.813zM27.75 14.438c0.25 1.313-0.5 2.438-1.125 3.063l-5.375-5.063-0.625 0.5c-1.375 0.938-3.125 0.125-3.125 0.125l-0.563-0.313-0.563 0.375c0 0.063-1.625 1.313-3.75 1.5-0.188 0-0.313 0-0.438 0-0.563 0-0.75-0.063-0.75-0.063-0.063-0.188 0.188-0.875 0.875-1.75 0.813-1 5.25-3.938 8.063-5.75zM7.75 21.125l-1.438 1.563c-0.063-0.063-0.125-0.125-0.188-0.25-0.063-0.063-0.125-0.125-0.125-0.25 0-0.5 0.563-1.25 1.125-1.875 0.188 0.313 0.438 0.563 0.625 0.813zM10.688 27.063c-0.188-0.188-0.438-0.438-0.688-0.688l1.438-1.5c0.25 0.188 0.5 0.438 0.75 0.625zM8.625 25c-0.313-0.313-0.625-0.625-0.875-0.875l1.375-1.5c0.188 0.188 0.375 0.375 0.563 0.563 0.125 0.125 0.188 0.188 0.313 0.313zM12.375 28.25l1.375-1.438c0.25 0.188 0.563 0.438 0.813 0.625-0.938 0.688-1.688 0.813-2.188 0.813zM26.563 20.938c-0.125 0.5-0.563 0.563-0.875 0.563l-5.563-5.25-1.375 1.438 5.5 5.188c-0.125 0.563-0.563 0.813-0.875 0.875l-5.563-5.25-1.375 1.438 5.438 5.188c-0.188 0.438-0.563 0.688-0.875 0.813l-5.438-5.125-1.375 1.438 5.375 5.125c-0.063 0.188-0.125 0.313-0.25 0.313-0.375 0.188-1.125-0.063-1.5-0.25 0-0.063-3.688-2.625-6.688-5.625-2.813-2.875-5.938-7.25-6.375-7.875l7.75-7.75c0.5 0.5 1.438 1.375 2.125 2.25-1.688 1.188-3.25 2.438-3.813 3.125-0.625 0.688-1.875 2.5-1.125 3.938 0.438 0.875 1.5 1.25 3.125 1.125 2-0.188 3.563-1.063 4.375-1.563 0.813 0.25 2.313 0.625 3.875-0.063l5.313 4.938c0.188 0.313 0.313 0.625 0.188 1z"></path>
</svg>
