<!-- Generated by IcoMoon.io -->
<svg version="1.1" xmlns="http://www.w3.org/2000/svg" width="32" height="32" viewBox="0 0 32 32">
<title>arti</title>
<path d="M29.813 7.938c-1.438-2.438-3.375-4.375-5.813-5.813s-5.125-2.125-8-2.125c-2.938 0-5.563 0.688-8.063 2.125-2.438 1.438-4.375 3.375-5.813 5.813-1.438 2.5-2.125 5.125-2.125 8.063 0 2.875 0.688 5.563 2.125 8s3.375 4.375 5.813 5.813c2.5 1.438 5.125 2.125 8.063 2.125 2.875 0 5.563-0.688 8-2.125s4.375-3.375 5.813-5.813c1.438-2.438 2.125-5.125 2.125-8 0-2.938-0.688-5.563-2.125-8.063zM25.313 17.313c0 0.375-0.125 0.688-0.375 0.938-0.313 0.25-0.625 0.375-0.938 0.375h-5.375v5.375c0 0.313-0.125 0.625-0.375 0.938-0.25 0.25-0.563 0.375-0.938 0.375h-2.688c-0.313 0-0.625-0.125-0.938-0.375-0.25-0.313-0.375-0.625-0.375-0.938v-5.375h-5.313c-0.375 0-0.688-0.125-0.938-0.375s-0.375-0.563-0.375-0.938v-2.688c0-0.313 0.125-0.625 0.375-0.938 0.25-0.25 0.563-0.375 0.938-0.375h5.313v-5.313c0-0.375 0.125-0.688 0.375-0.938 0.313-0.25 0.625-0.375 0.938-0.375h2.688c0.375 0 0.688 0.125 0.938 0.375s0.375 0.563 0.375 0.938v5.313h5.375c0.313 0 0.625 0.125 0.938 0.375 0.25 0.313 0.375 0.625 0.375 0.938z"></path>
</svg>
