<!-- Generated by IcoMoon.io -->
<svg version="1.1" xmlns="http://www.w3.org/2000/svg" width="32" height="32" viewBox="0 0 32 32">
<title>basari</title>
<path d="M27.813 14.438l-1.563-2.125c-0.125-0.125-0.125-0.313 0-0.5l1.5-2.125c0.125-0.188 0.063-0.5-0.125-0.563l-2.313-1.25c-0.188-0.125-0.25-0.25-0.25-0.438l0.438-2.625c0.063-0.25-0.125-0.438-0.375-0.438l-2.625-0.125c-0.188 0-0.313-0.125-0.375-0.313l-0.688-2.5c-0.125-0.25-0.375-0.375-0.563-0.313l-2.438 1.063c-0.188 0.063-0.375 0.063-0.438-0.063l-1.813-2c-0.125-0.188-0.438-0.188-0.563 0l-1.75 2c-0.125 0.125-0.313 0.188-0.438 0.125l-2.5-1c-0.188-0.125-0.438 0-0.5 0.25l-0.688 2.563c-0.063 0.125-0.188 0.25-0.375 0.25l-2.625 0.188c-0.25 0-0.438 0.25-0.375 0.438l0.438 2.625c0.063 0.188-0.063 0.313-0.188 0.438l-2.313 1.25c-0.188 0.125-0.25 0.438-0.125 0.625l1.563 2.125c0.125 0.125 0.125 0.313 0 0.438l-1.5 2.188c-0.188 0.188-0.063 0.438 0.125 0.563l2.313 1.25c0.188 0.063 0.25 0.25 0.188 0.438l-0.438 2.563c0 0.25 0.188 0.5 0.438 0.5l2.625 0.125c0.188 0 0.313 0.125 0.375 0.25l0.75 2.563c0.063 0.25 0.313 0.375 0.5 0.25l2.438-1.063c0.188-0.063 0.375 0 0.438 0.125l1.813 1.938c0.125 0.188 0.438 0.188 0.563 0l1.75-2c0.125-0.125 0.313-0.125 0.438-0.063l2.5 1c0.188 0.063 0.438-0.063 0.5-0.25l0.688-2.563c0.063-0.188 0.188-0.313 0.375-0.313l2.625-0.125c0.25 0 0.438-0.25 0.375-0.5l-0.438-2.563c-0.063-0.188 0.063-0.375 0.188-0.438l2.313-1.313c0.188-0.063 0.25-0.375 0.125-0.563zM16 19.313c-3.938 0-7.188-3.188-7.188-7.188 0-3.938 3.25-7.188 7.188-7.188s7.188 3.25 7.188 7.188c0 4-3.25 7.188-7.188 7.188zM22.5 24c-0.375 0.375-0.938 0.563-1.5 0.563-0.188 0-0.438 0-0.625-0.063l-1.688-0.5-1.25 1.188c-0.063 0.063-0.125 0.063-0.188 0.125l2.125 6.5c0.063 0.188 0.375 0.25 0.5 0.063l1.563-1.938c0.063-0.125 0.188-0.125 0.313-0.125l2.375 0.688c0.188 0.063 0.438-0.125 0.375-0.375zM13.313 24l-1.688 0.5c-0.188 0.063-0.375 0.063-0.625 0.063-0.563 0-1.063-0.188-1.438-0.563l-2 6.125c-0.063 0.25 0.125 0.438 0.375 0.375l2.375-0.688c0.063 0 0.188 0 0.313 0.125l1.5 1.938c0.125 0.188 0.438 0.125 0.5-0.063l2.125-6.5c-0.063-0.063-0.125-0.063-0.125-0.125zM20.25 10.375l-2.688-0.188-1-2.563c-0.188-0.438-0.875-0.438-1.063 0l-1.063 2.563-2.688 0.188c-0.5 0-0.688 0.688-0.313 1l2.063 1.75-0.625 2.625c-0.125 0.5 0.375 0.875 0.813 0.625l2.313-1.438 2.313 1.438c0.438 0.25 1-0.125 0.875-0.625l-0.688-2.625 2.063-1.75c0.438-0.313 0.188-1-0.313-1z"></path>
</svg>
