<!-- Generated by IcoMoon.io -->
<svg version="1.1" xmlns="http://www.w3.org/2000/svg" width="32" height="32" viewBox="0 0 32 32">
<title>bina</title>
<path d="M3.188 23.438c-0.313 0-0.5 0.25-0.5 0.563v1.063c0 0.313 0.188 0.563 0.5 0.563s0.563-0.25 0.563-0.563v-1.063c0-0.313-0.25-0.563-0.563-0.563zM3.188 26.688c-0.313 0-0.5 0.188-0.5 0.5v1.063c0 0.313 0.188 0.563 0.5 0.563s0.563-0.25 0.563-0.563v-1.063c0-0.313-0.25-0.5-0.563-0.5zM3.188 20.25c-0.313 0-0.5 0.25-0.5 0.563v1.063c0 0.313 0.188 0.5 0.5 0.5s0.563-0.188 0.563-0.5v-1.063c0-0.313-0.25-0.563-0.563-0.563zM5.313 23.438c-0.25 0-0.5 0.25-0.5 0.563v1.063c0 0.313 0.25 0.563 0.5 0.563 0.313 0 0.563-0.25 0.563-0.563v-1.063c0-0.313-0.25-0.563-0.563-0.563zM5.313 20.25c-0.25 0-0.5 0.25-0.5 0.563v1.063c0 0.313 0.25 0.5 0.5 0.5 0.313 0 0.563-0.188 0.563-0.5v-1.063c0-0.313-0.25-0.563-0.563-0.563zM5.313 26.688c-0.25 0-0.5 0.188-0.5 0.5v1.063c0 0.313 0.25 0.563 0.5 0.563 0.313 0 0.563-0.25 0.563-0.563v-1.063c0-0.313-0.25-0.5-0.563-0.5zM30.938 5.875h-1.063v-1.625c0-0.25-0.25-0.5-0.563-0.5h-3.188c-0.313 0-0.5 0.25-0.5 0.5v1.625h-1.063c-0.313 0-0.563 0.25-0.563 0.5v8.563h-0.563v-1.625c0-0.25-0.188-0.5-0.5-0.5h-0.563v-0.563c0-0.25-0.188-0.5-0.5-0.5s-0.563 0.25-0.563 0.5v0.563h-0.5c-0.313 0-0.563 0.25-0.563 0.5v1.625h-1.563v-10.688c0-0.25-0.25-0.5-0.563-0.5h-1.563v-3.188c0-0.313-0.25-0.563-0.563-0.563h-6.375c-0.313 0-0.563 0.25-0.563 0.563v3.188h-1.625c-0.25 0-0.5 0.25-0.5 0.5v13.875h-1.063v-1.563c0-0.313-0.25-0.563-0.563-0.563h-3.188c-0.313 0-0.5 0.25-0.5 0.563v1.563h-0.563c-0.313 0-0.5 0.25-0.5 0.563v12.75c0 0.313 0.188 0.563 0.5 0.563h29.875c0.313 0 0.5-0.25 0.5-0.563v-25.063c0-0.25-0.188-0.5-0.5-0.5zM15.438 6.375c0-0.25 0.25-0.5 0.563-0.5s0.563 0.25 0.563 0.5v8.563h-1.125zM13.313 2.688c0-0.313 0.25-0.563 0.563-0.563s0.5 0.25 0.5 0.563v1.563c0 0.313-0.188 0.563-0.5 0.563s-0.563-0.25-0.563-0.563zM13.313 6.375c0-0.25 0.25-0.5 0.563-0.5s0.5 0.25 0.5 0.5v8.563h-1.063zM11.188 2.688c0-0.313 0.25-0.563 0.563-0.563 0.25 0 0.5 0.25 0.5 0.563v1.563c0 0.313-0.25 0.563-0.5 0.563-0.313 0-0.563-0.25-0.563-0.563zM9.063 6.375c0-0.25 0.25-0.5 0.563-0.5 0.25 0 0.5 0.25 0.5 0.5v11.75h-1.063zM11.188 29.875h-1.563c-0.313 0-0.563-0.25-0.563-0.563 0-0.25 0.25-0.5 0.563-0.5h1.563zM11.188 27.75h-1.563c-0.313 0-0.563-0.25-0.563-0.563s0.25-0.5 0.563-0.5h1.563zM11.188 25.625h-1.563c-0.313 0-0.563-0.25-0.563-0.563s0.25-0.5 0.563-0.5h1.563zM11.188 23.438h-1.563c-0.313 0-0.563-0.188-0.563-0.5s0.25-0.563 0.563-0.563h1.563zM11.188 20.25h-3.75c-0.25 0-0.5 0.25-0.5 0.563v10.125h-5.313v-11.75h9.563zM11.188 15.438v-9.063c0-0.25 0.25-0.5 0.563-0.5 0.25 0 0.5 0.25 0.5 0.5v8.563h-0.5c-0.313 0-0.563 0.25-0.563 0.5zM24 30.938h-1.063v-13.313c0-0.313-0.25-0.563-0.563-0.563-0.25 0-0.5 0.25-0.5 0.563v13.313h-1.063v-13.313c0-0.313-0.25-0.563-0.563-0.563-0.25 0-0.5 0.25-0.5 0.563v13.313h-1.063v-13.313c0-0.313-0.25-0.563-0.563-0.563s-0.5 0.25-0.5 0.563v13.313h-1.063v-13.313c0-0.313-0.25-0.563-0.563-0.563s-0.563 0.25-0.563 0.563v13.313h-1.063v-13.313c0-0.313-0.188-0.563-0.5-0.563s-0.563 0.25-0.563 0.563v13.313h-1.063v-14.938h11.75zM27.188 28.875c0 0.313-0.25 0.563-0.5 0.563-0.313 0-0.563-0.25-0.563-0.563v-1.063c0-0.25 0.25-0.5 0.563-0.5 0.25 0 0.5 0.25 0.5 0.5zM27.188 25.688c0 0.313-0.25 0.563-0.5 0.563-0.313 0-0.563-0.25-0.563-0.563v-1.063c0-0.313 0.25-0.5 0.563-0.5 0.25 0 0.5 0.188 0.5 0.5zM27.188 22.5c0 0.313-0.25 0.563-0.5 0.563-0.313 0-0.563-0.25-0.563-0.563v-1.063c0-0.313 0.25-0.563 0.563-0.563 0.25 0 0.5 0.25 0.5 0.563zM27.188 19.313c0 0.313-0.25 0.5-0.5 0.5-0.313 0-0.563-0.188-0.563-0.5v-1.063c0-0.313 0.25-0.563 0.563-0.563 0.25 0 0.5 0.25 0.5 0.563zM27.188 16.125c0 0.25-0.25 0.5-0.5 0.5-0.313 0-0.563-0.25-0.563-0.5v-1.063c0-0.313 0.25-0.563 0.563-0.563 0.25 0 0.5 0.25 0.5 0.563zM27.188 12.875c0 0.313-0.25 0.563-0.5 0.563-0.313 0-0.563-0.25-0.563-0.563v-1.063c0-0.25 0.25-0.5 0.563-0.5 0.25 0 0.5 0.25 0.5 0.5zM27.188 9.688c0 0.313-0.25 0.563-0.5 0.563-0.313 0-0.563-0.25-0.563-0.563v-1.063c0-0.313 0.25-0.5 0.563-0.5 0.25 0 0.5 0.188 0.5 0.5zM29.313 28.875c0 0.313-0.188 0.563-0.5 0.563s-0.563-0.25-0.563-0.563v-1.063c0-0.25 0.25-0.5 0.563-0.5s0.5 0.25 0.5 0.5zM29.313 25.688c0 0.313-0.188 0.563-0.5 0.563s-0.563-0.25-0.563-0.563v-1.063c0-0.313 0.25-0.5 0.563-0.5s0.5 0.188 0.5 0.5zM29.313 22.5c0 0.313-0.188 0.563-0.5 0.563s-0.563-0.25-0.563-0.563v-1.063c0-0.313 0.25-0.563 0.563-0.563s0.5 0.25 0.5 0.563zM29.313 19.313c0 0.313-0.188 0.5-0.5 0.5s-0.563-0.188-0.563-0.5v-1.063c0-0.313 0.25-0.563 0.563-0.563s0.5 0.25 0.5 0.563zM29.313 16.125c0 0.25-0.188 0.5-0.5 0.5s-0.563-0.25-0.563-0.5v-1.063c0-0.313 0.25-0.563 0.563-0.563s0.5 0.25 0.5 0.563zM29.313 12.875c0 0.313-0.188 0.563-0.5 0.563s-0.563-0.25-0.563-0.563v-1.063c0-0.25 0.25-0.5 0.563-0.5s0.5 0.25 0.5 0.5zM29.313 9.688c0 0.313-0.188 0.563-0.5 0.563s-0.563-0.25-0.563-0.563v-1.063c0-0.313 0.25-0.5 0.563-0.5s0.5 0.188 0.5 0.5z"></path>
</svg>
