<!-- Generated by IcoMoon.io -->
<svg version="1.1" xmlns="http://www.w3.org/2000/svg" width="32" height="32" viewBox="0 0 32 32">
<title>buyutec</title>
<path d="M31 29.125l-7.625-7.875c1.938-2.375 3-5.25 3-8.313 0-7.125-5.75-12.938-12.875-12.938s-12.938 5.813-12.938 12.938c0 7.125 5.813 12.875 12.938 12.875 2.625 0 5.188-0.75 7.375-2.313l7.688 8c0.313 0.313 0.75 0.5 1.188 0.5s0.875-0.188 1.188-0.5c0.688-0.625 0.688-1.688 0.063-2.375zM13.5 3.375c5.25 0 9.5 4.25 9.5 9.563 0 5.25-4.25 9.563-9.5 9.563-5.313 0-9.563-4.313-9.563-9.563 0-5.313 4.25-9.563 9.563-9.563z"></path>
</svg>
