<!-- Generated by IcoMoon.io -->
<svg version="1.1" xmlns="http://www.w3.org/2000/svg" width="32" height="32" viewBox="0 0 32 32">
<title>canta</title>
<path d="M32 25.563v-9.375c0-1.125-0.375-1.125-1.188-0.438-1.688 1.438-5.625 3.313-14.813 3.375 0.063 0 0.125 0 0.188 0h-0.375c0.063 0 0.125 0 0.188 0-9.188-0.063-13.125-1.938-14.813-3.375-0.813-0.688-1.188-0.688-1.188 0.438v9.375c0 0-0.25 4.375 4.313 4.375h23.375c4.563 0 4.313-4.375 4.313-4.375zM19.125 23.5c0 1.188-0.938 2.063-2.125 2.063h-2.125c-1.188 0-2.125-0.875-2.125-2.063 0-0.438 0-0.813 0-1.125 0-0.625 0.875-1.125 2-1.125h2.438c1.125 0 2 0.5 1.938 1.125 0 0.313 0 0.688 0 1.125zM27.625 6.375l-2.188-0.063c-1.125 0-1.938-1-2.438-2-1-2.375-3.75-2.25-3.75-2.25h-6.5c-2.188 0-3.188 1.188-3.75 2.313-0.438 1.063-1.375 2-2.5 2h-2.25c-4.313 0-4.25 4.25-4.25 4.25v1.063c0 0.563 0.75 1.625 1.75 2.125 2.313 1.313 7.063 3.25 14.188 3.25 8.188 0 12.5-1.938 14.5-3.25 0.938-0.625 1.563-1.75 1.563-2.25s0-0.938 0-0.938c0-4.5-4.375-4.25-4.375-4.25zM17.375 12.75h-2.563c-1.125 0-2.188-0.938-1.5-1.563 0.313-0.313 0.813-0.563 1.625-0.563h2.375c0.75 0 1.25 0.25 1.563 0.563 0.688 0.625-0.375 1.563-1.5 1.563zM19.313 6.313h-6.625c-1.125 0-1.938-0.688-1.438-1.438 0.625-0.938 2.375-0.75 3.5-0.75h4.438c0.75 0 1.25 0.25 1.563 0.563 0.688 0.688-0.313 1.625-1.438 1.625z"></path>
</svg>
