<!-- Generated by IcoMoon.io -->
<svg version="1.1" xmlns="http://www.w3.org/2000/svg" width="32" height="32" viewBox="0 0 32 32">
<title>cuzdan</title>
<path d="M7.5 6.5l12.75-3.5-0.688-1.375c-0.438-0.875-1.563-1.25-2.438-0.813l-11.375 5.688zM24.188 3.125c-0.188 0-0.313 0-0.5 0.063l-3 0.813-9.125 2.5h14.938l-0.563-2.063c-0.25-0.813-0.938-1.313-1.75-1.313zM28.375 7.75h-26.563c-0.563 0-1.063 0.25-1.438 0.688-0.125 0.188-0.25 0.375-0.313 0.625-0.063 0.125-0.063 0.313-0.063 0.5v20c0 1 0.813 1.75 1.813 1.75h26.5c1 0 1.813-0.75 1.813-1.75v-5h-10.625c-1.688 0-3.063-1.375-3.063-3.063v-4c0-0.813 0.313-1.563 0.875-2.125 0.438-0.5 1.063-0.813 1.813-0.938 0.125 0 0.25 0 0.375 0h10.625v-4.875c0-1-0.813-1.813-1.75-1.813zM31.375 16.188c-0.188-0.188-0.375-0.313-0.625-0.375-0.188-0.063-0.375-0.125-0.563-0.125h-10.688c-1 0-1.813 0.813-1.813 1.813v4c0 1 0.813 1.75 1.813 1.75h10.688c0.188 0 0.375 0 0.563-0.063 0.25-0.063 0.438-0.188 0.625-0.375 0.375-0.313 0.625-0.813 0.625-1.313v-4c0-0.563-0.25-1-0.625-1.313zM23.25 19.813c0 0.5-0.438 0.938-0.938 0.938h-0.563c-0.5 0-0.938-0.438-0.938-0.938v-0.563c0-0.313 0.188-0.563 0.375-0.688 0.125-0.125 0.313-0.188 0.563-0.188h0.563c0.5 0 0.938 0.375 0.938 0.875z"></path>
</svg>
