<!-- Generated by IcoMoon.io -->
<svg version="1.1" xmlns="http://www.w3.org/2000/svg" width="32" height="32" viewBox="0 0 32 32">
<title>destek</title>
<path d="M9.813 14.25c1.5 3.25 4.625 4.625 6.188 4.625 1 0 2.75-0.563 4.188-1.938-0.5 0.063-1.125 0.063-1.688 0.063-0.188 0-0.313 0-0.5 0-0.313 0.25-0.688 0.375-1.063 0.375h-1.313c-1 0-1.75-0.813-1.75-1.75 0-1 0.75-1.813 1.75-1.813h1.313c0.438 0 0.938 0.188 1.25 0.5 0.063 0 0.188 0 0.313 0 1.688 0 2.813-0.125 3.5-0.313-0.063-0.25-0.125-0.5-0.125-0.75v-4.563c0-0.438 0.188-0.875 0.438-1.25-0.125-1.25-0.438-2.188-0.875-2.938-0.875-1.438-2.625-2.125-5.438-2.125-2.313 0-3.938 0.5-4.938 1.5-0.75 0.75-1.188 1.875-1.438 3.563 0.313 0.313 0.5 0.813 0.5 1.25v4.563c0 0.375-0.125 0.688-0.313 1zM6.625 14.313h1.563c0.625 0 1.063-0.5 1.063-1.063v-4.563c0-0.375-0.188-0.688-0.5-0.875 0.313-3.75 1.75-6.313 7.25-6.313 3.125 0 5.125 0.813 6.188 2.563 0.625 1 0.938 2.313 1.063 3.75-0.313 0.188-0.5 0.5-0.5 0.875v4.563c0 0.5 0.313 0.938 0.813 1-0.688 0.5-2.125 0.938-5.063 0.938-0.25 0-0.5 0-0.75 0-0.188-0.313-0.438-0.5-0.813-0.5h-1.313c-0.5 0-0.938 0.375-0.938 0.938 0 0.5 0.438 0.875 0.938 0.875h1.313c0.313 0 0.563-0.125 0.75-0.375 0.25 0 0.5 0 0.813 0 3.313 0 5.438-0.563 6.313-1.688 0-0.063 0.063-0.063 0.063-0.125h0.5c0.563 0 1.063-0.5 1.063-1.063v-4.563c0-0.563-0.5-1.063-1.063-1.063h-0.625c-0.125-1.688-0.5-3.125-1.25-4.375-1.375-2.188-3.813-3.25-7.5-3.25s-6.125 1.063-7.5 3.25c-0.75 1.25-1.125 2.688-1.25 4.375h-0.625c-0.563 0-1.063 0.5-1.063 1.063v4.563c0 0.563 0.5 1.063 1.063 1.063zM28.875 27.563c-0.313-2.188-1.063-5-2.5-6-1-0.75-4.5-2.563-6-3.375h-0.063c-0.125-0.125-0.375-0.063-0.5 0-0.75 0.625-1.625 1.063-2.563 1.25-0.125 0.063-0.25 0.125-0.313 0.313l-0.938 2.438-0.938-2.438c-0.063-0.188-0.188-0.25-0.313-0.313-0.938-0.188-1.813-0.625-2.563-1.25-0.125-0.063-0.375-0.125-0.5 0-1.5 0.75-5.063 2.688-6.063 3.313-1.625 1.188-2.375 5.25-2.5 6.063-0.063 0.125 0 0.188 0 0.25 0.063 0.188 1.625 4.188 12.875 4.188s12.813-4 12.875-4.188c0-0.063 0.063-0.125 0-0.25zM23.625 25.063h-4.438v-0.938h4.438z"></path>
</svg>
