<!-- Generated by IcoMoon.io -->
<svg version="1.1" xmlns="http://www.w3.org/2000/svg" width="32" height="32" viewBox="0 0 32 32">
<title>dunya</title>
<path d="M28.188 11.375l0.25 0.188h0.25v-0.5l0.875-0.063 0.75 0.563h1.25l0.125-0.063c-0.125-0.438-0.313-0.875-0.438-1.25h-0.813l-0.438-0.5-0.063-0.688-0.438 0.188-0.25 0.938-0.625-0.688v-0.625l-0.625-0.5-0.188-0.188h-0.688l0.188 0.563 0.813 0.5 0.188 0.125-0.188 0.125v0.5l-0.438 0.125-0.313-0.063-0.25-0.313 0.563 0.063 0.188-0.25-1.25-0.813-0.125-0.375-0.5 0.5-0.5-0.125-0.75 1-0.188 0.438h-1.25l-0.438-0.188-0.125-0.875 0.188-0.438 0.75-0.125 0.813 0.125 0.063-0.438-0.313-0.063 0.125-0.75 0.813-0.125 0.563-0.813 0.625-0.063 0.5 0.063h0.25l-0.125-0.75-0.688 0.25-0.188-0.563-0.375-0.063-0.125-0.438 0.313-0.313 0.75-0.313 0.188-0.313c-2.813-2.5-6.5-4-10.563-4-3.5 0-6.75 1.125-9.375 3.063h0.813l0.313 0.188 0.688 0.125 0.063 0.313h1.063l-0.125-0.313-0.938-0.063 0.188-0.188-0.063-0.25h-0.875l0.938-0.688h0.938l0.438 0.563 0.688 0.063 0.438-0.438 0.313 0.188-0.625 0.563c0 0-0.813 0-0.75 0s0.063 0.563 0.063 0.563l1-0.063 0.125-0.25h0.625l0.125-0.438-0.438-0.063 0.125-0.375 0.313-0.063 1.063 0.063-0.563 0.5 0.125 0.438 0.563 0.063v-0.75l0.563-0.25 1.063-0.125 1.5 0.625v0.563l0.438 0.125-0.25 0.5h-0.625l-0.25 0.5-1.5-0.375 1.188-0.625-0.438-0.438-1.063 0.125-0.438 0.438-0.5 0.063 0.063 0.25 0.188 0.063v0.063l-0.438 0.063v0.25h-0.438l-0.063-0.438-0.688 0.188-1.438 0.875 0.188 0.563 0.375 0.25 0.813 0.125v0.938l0.375-0.063 0.313-0.75 0.875-0.25v-1.063l0.438-0.375 1.188 0.25-0.125 0.75h0.313l0.875-0.438v0.938l0.625 0.375v0.563l-0.625 0.188 0.063 0.188 0.688 0.313v0.438h-0.188l-0.938-0.313v-0.25l0.25-0.188v-0.25l-0.25-0.063-0.125 0.188-0.438 0.125-0.063-0.063v0.063h-0.188l-0.125-0.25-0.188-0.063h-0.313l-0.188 0.125v0.25l0.313 0.125 0.313 0.063h-0.063l-0.313 0.313-0.125-0.188-0.25-0.063-0.688 0.688 0.063 0.063-1 0.563-1 1.063-0.063 0.438-1 0.688-0.5 0.438 0.063 1-0.688-0.313v-0.563h-1.875l-1 0.5-0.375 0.75-0.188 0.625 0.25 0.625 0.813 0.063 1.188-0.813 0.125 0.438-0.375 0.688 0.938 0.188 0.063 1.438 1.313 0.188 0.813-0.938 1 0.188 0.313 0.5 0.938-0.063 0.063-0.25 0.5 0.25 0.563 0.875 1 0.063 0.375 0.625 0.063 0.813 1.125 0.438h1.438l0.375 0.688 0.625 0.188-0.125 0.563-0.688 0.875-0.188 1.938-0.625 0.438h-0.875l-0.313 0.5 0.188 1-1 1.313-0.313 0.563-0.938 0.438-0.625 0.125v0.25l0.438 0.125-0.063 0.313-0.375 0.375 0.188 0.313h0.5v0.375l-0.125 0.313-0.063 0.313 0.688 0.625-0.063 0.25h-1l-0.938-0.813-0.75-1.313 0.125-1.25-0.563-0.75 0.25-1.25-0.375-0.063v-2.75c0 0-0.875-0.75-0.938-0.75s-0.5-0.063-0.5-0.063l-0.125-0.563-1.188-1.5 0.125-0.563 0.063-0.875 0.813-0.563-0.125-1-1.25-0.125-0.938-1.063-0.688-0.188-0.438-0.125 0.063-0.375-0.563-0.063v0.188l-1.375-0.313-0.563-0.875 0.188-0.438-0.875-1.25-0.125-0.938h-0.375l0.125 0.875 0.625 0.938-0.063 0.375-0.563-0.063-0.625-1.063v-1.25l-0.625-0.375v-0.875c-0.813 1.938-1.313 4-1.313 6.25 0 8.813 7.188 16 16 16 5 0 9.5-2.313 12.438-5.938h-0.563v-1.063l-0.563-0.813v-1.25l-0.5-0.5-0.063-0.5 0.625-1.125-1.125-2 0.125-1.375-1-0.063-0.375-0.375h-0.688l-0.313 0.313h-1.25v0.125h-0.688l-1.5-1.75v-1.375l0.25-0.063 0.063-0.563h-0.313l-0.188-0.5 1.813-1.313v-0.875l0.813-0.5 0.375 0.063h0.688l0.563-0.313 1.813-0.125v0.875zM23.688 5.688l0.125-0.25 0.563-0.125 0.125 0.688 0.25 0.438 0.188 0.188 0.375 0.125-0.313 0.375-0.625 0.063h-0.5l0.063-0.5 0.375-0.125v-0.25l-0.375-0.188-0.25-0.188zM22.813 6.688l0.313-0.563 0.438-0.063 0.313 0.125v0.375l-0.688 0.438h-0.375zM14.125 8.625l-0.313 0.063v-0.25l0.125-0.188 0.25 0.125zM15.313 8.25h-0.25l-0.063 0.188-0.125 0.125-0.313 0.063c0-0.063 0-0.125 0-0.125h-0.125v-0.25h0.438l0.125-0.25h0.188l0.188 0.063z"></path>
</svg>
