<!-- Generated by IcoMoon.io -->
<svg version="1.1" xmlns="http://www.w3.org/2000/svg" width="32" height="32" viewBox="0 0 32 32">
<title>duyuru</title>
<path d="M9.438 8.125h-4.375c0 0-3.438 0.188-3.438 3.5v0.125c-0.75 0.5-1.25 1.313-1.25 2.25 0 1 0.5 1.813 1.25 2.313 0 0.438 0.125 3.813 3.313 3.813 0 0 1.313 0.063 1.25 2.188v8.375c0 0-0.25 1.313 1.125 1.313 0 0 3.938-0.563 1.938-4.563 1.5-1.563-0.625-2.438 0.25-4.938 0 0 1.125-1.563 1.125-2.438l0.063-10.688c0 0 0.188-1.25-1.25-1.25zM29.563 10.25v-9.75c0-1.25-1.063 0.188-1.063 0.188-5.125 7.938-15.625 7.313-15.625 7.313-1.25 0-1.063 1.063-1.063 1.063v9.188c0 1.063 1.125 1.063 1.125 1.063 11.75 0 15.813 7.438 15.813 7.438s0.938 1.125 0.875-0.063l-0.063-9.688c1.25-0.688 2.063-1.938 2.063-3.375s-0.875-2.688-2.063-3.375zM18 9c0 0 6.938-1 10.25-6.188 0 0-1.313 6.063-10.25 6.188zM30.875 14.688c0 0 0.375-1.625-1-3.563 0 0 1.813 1 1 3.563z"></path>
</svg>
