<!-- Generated by IcoMoon.io -->
<svg version="1.1" xmlns="http://www.w3.org/2000/svg" width="32" height="32" viewBox="0 0 32 32">
<title>ev</title>
<path d="M31.688 13l-15.188-11.125c-0.313-0.188-0.688-0.188-1 0l-15.188 11.125c-0.313 0.25-0.438 0.813-0.125 1.188 0.25 0.375 0.75 0.438 1.125 0.188l14.688-10.75 14.688 10.75c0.125 0.063 0.313 0.125 0.5 0.125 0.25 0 0.5-0.125 0.625-0.313 0.313-0.375 0.188-0.938-0.125-1.188zM27.625 14.563c-0.438 0-0.813 0.375-0.813 0.813v13.25h-6.625v-7.25c0-2.313-1.875-4.188-4.188-4.188s-4.188 1.875-4.188 4.188v7.25h-6.625v-13.25c0-0.438-0.375-0.813-0.813-0.813-0.5 0-0.875 0.375-0.875 0.813v14.063c0 0.438 0.375 0.813 0.875 0.813h8.313c0.438 0 0.813-0.313 0.813-0.75 0 0 0-0.063 0-0.063v-8.063c0-1.375 1.125-2.5 2.5-2.5s2.5 1.125 2.5 2.5v8.063c0 0 0 0.063 0 0.063 0 0.438 0.375 0.75 0.813 0.75h8.313c0.5 0 0.875-0.375 0.875-0.813v-14.063c0-0.438-0.375-0.813-0.875-0.813z"></path>
</svg>
