<!-- Generated by IcoMoon.io -->
<svg version="1.1" xmlns="http://www.w3.org/2000/svg" width="32" height="32" viewBox="0 0 32 32">
<title>foto</title>
<path d="M29.688 6.875h-8.5l-1.688-2.875c-0.188-0.25-0.5-0.438-0.813-0.438h-5.375c-0.313 0-0.625 0.188-0.813 0.438l-1.688 2.875h-2.813v-0.625c0-0.5-0.375-0.938-0.875-0.938h-3.438c-0.563 0-0.938 0.438-0.938 0.938v0.625h-0.438c-1.25 0-2.313 1.063-2.313 2.375v16.875c0 1.25 1.063 2.313 2.313 2.313h27.375c1.25 0 2.313-1.063 2.313-2.313v-16.875c0-1.313-1.063-2.375-2.313-2.375zM16 24.313c-3.688 0-6.625-3-6.625-6.625 0-3.688 2.938-6.688 6.625-6.688s6.625 3 6.625 6.688c0 3.625-2.938 6.625-6.625 6.625zM28.188 11.688h-2.875c-0.5 0-0.938-0.438-0.938-0.938s0.438-0.938 0.938-0.938h2.875c0.563 0 0.938 0.438 0.938 0.938s-0.375 0.938-0.938 0.938zM20.625 17.688c0 2.563-2.063 4.625-4.625 4.625s-4.625-2.063-4.625-4.625c0-2.563 2.063-4.688 4.625-4.688s4.625 2.125 4.625 4.688z"></path>
</svg>
