<!-- Generated by IcoMoon.io -->
<svg version="1.1" xmlns="http://www.w3.org/2000/svg" width="32" height="32" viewBox="0 0 32 32">
<title>gazete</title>
<path d="M31.188 2.938c-0.438 0-0.813 0.375-0.813 0.813v22c0 2.375-1.938 4.25-4.25 4.25h-20.25c-2.313 0-4.188-1.938-4.188-4.25v-23.75h24.25v21.375c0 0.438 0.375 0.813 0.813 0.813s0.813-0.375 0.813-0.813v-22.188c0-0.438-0.375-0.813-0.813-0.813h-25.938c-0.438 0-0.813 0.375-0.813 0.813v24.563c0 3.25 2.625 5.875 5.875 5.875h20.25c3.25 0 5.875-2.625 5.875-5.875v-22c0-0.438-0.375-0.813-0.813-0.813zM22.75 6.813c0.438 0 0.813-0.375 0.813-0.813 0-0.5-0.375-0.875-0.813-0.875h-18.063c-0.438 0-0.813 0.375-0.813 0.875 0 0.438 0.375 0.813 0.813 0.813zM22.75 22.063h-18.063c-0.438 0-0.813 0.375-0.813 0.813s0.375 0.813 0.813 0.813h18.063c0.438 0 0.813-0.375 0.813-0.813s-0.375-0.813-0.813-0.813zM22.75 26.313h-15.188c-0.5 0-0.875 0.375-0.875 0.813s0.375 0.813 0.875 0.813h15.188c0.438 0 0.813-0.375 0.813-0.813s-0.375-0.813-0.813-0.813zM3.563 9.688v9c0 0.438 0.375 0.813 0.813 0.813h9c0.5 0 0.875-0.375 0.875-0.813v-9c0-0.438-0.375-0.813-0.875-0.813h-9c-0.438 0-0.813 0.375-0.813 0.813zM5.25 10.5h7.313v7.313h-7.313zM23.188 9.688h-5.938c-0.5 0-0.875 0.375-0.875 0.813 0 0.5 0.375 0.875 0.875 0.875h5.938c0.438 0 0.813-0.375 0.813-0.875 0-0.438-0.313-0.813-0.813-0.813zM23.188 13.438h-5.938c-0.5 0-0.875 0.375-0.875 0.813 0 0.5 0.375 0.875 0.875 0.875h5.938c0.438 0 0.813-0.375 0.813-0.875 0-0.438-0.313-0.813-0.813-0.813zM24 18.25c0-0.438-0.375-0.813-0.813-0.813h-5.938c-0.5 0-0.875 0.375-0.875 0.813s0.375 0.813 0.875 0.813h5.938c0.5 0 0.813-0.375 0.813-0.813z"></path>
</svg>
