<!-- Generated by IcoMoon.io -->
<svg version="1.1" xmlns="http://www.w3.org/2000/svg" width="32" height="32" viewBox="0 0 32 32">
<title>gulenyuz</title>
<path d="M16 0c-8.813 0-16 7.188-16 16s7.188 16 16 16c8.813 0 16-7.188 16-16s-7.188-16-16-16zM16 30.25c-3.938 0-7.5-1.563-10.063-4.125-1-1.063-1.875-2.188-2.563-3.5-1.063-2-1.625-4.25-1.625-6.625 0-7.875 6.375-14.25 14.25-14.25 3.75 0 7.125 1.438 9.688 3.75 1.313 1.25 2.375 2.688 3.188 4.375 0.875 1.813 1.375 3.938 1.375 6.125 0 7.875-6.375 14.25-14.25 14.25zM12.5 12.438c0 0.938-0.75 1.75-1.75 1.75-0.938 0-1.688-0.813-1.688-1.75s0.75-1.75 1.688-1.75c1 0 1.75 0.813 1.75 1.75zM23.188 12.438c0 0.938-0.75 1.75-1.688 1.75-1 0-1.75-0.813-1.75-1.75s0.75-1.75 1.75-1.75c0.938 0 1.688 0.813 1.688 1.75zM16 24.875c3.313 0 6.5-1.75 8.375-4.563l-1.438-0.938c-1.688 2.625-4.813 4.063-7.875 3.688-2.438-0.25-4.625-1.625-5.938-3.688l-1.5 0.938c1.625 2.5 4.313 4.125 7.25 4.5 0.375 0 0.75 0.063 1.125 0.063z"></path>
</svg>
