<!-- Generated by IcoMoon.io -->
<svg version="1.1" xmlns="http://www.w3.org/2000/svg" width="32" height="32" viewBox="0 0 32 32">
<title>harita</title>
<path d="M16 0c-7.063 0-12.813 5.75-12.813 12.813 0 0.813 0.063 1.625 0.188 2.438 0 0.063 0.063 0.188 0.125 0.438 0.188 0.813 0.438 1.688 0.813 2.5 1.438 3.25 4.438 8.25 11.125 13.625 0.188 0.125 0.375 0.188 0.563 0.188s0.375-0.063 0.563-0.188c6.688-5.375 9.688-10.375 11.125-13.625 0.375-0.813 0.625-1.625 0.813-2.5 0.063-0.25 0.125-0.375 0.125-0.438 0.125-0.813 0.188-1.625 0.188-2.438 0-7.063-5.75-12.813-12.813-12.813zM26.813 14.938c0 0.063-0.063 0.188-0.063 0.313-0.188 0.75-0.438 1.5-0.75 2.188 0 0 0 0.063 0 0.063-1.25 2.938-4 7.5-10 12.438-6-4.938-8.75-9.5-10-12.438 0 0 0-0.063 0-0.063-0.313-0.688-0.563-1.438-0.75-2.188-0.063-0.125-0.063-0.25-0.063-0.313-0.125-0.688-0.188-1.438-0.188-2.125 0-6.063 4.938-11 11-11s11 4.938 11 11c0 0.75-0.063 1.438-0.188 2.125zM16 4.813c-4.5 0-8.125 3.688-8.125 8.125 0 4.5 3.625 8.188 8.125 8.188s8.125-3.688 8.125-8.188c0-4.438-3.625-8.125-8.125-8.125zM16 19.313c-3.5 0-6.313-2.875-6.313-6.375 0-3.438 2.813-6.313 6.313-6.313s6.313 2.875 6.313 6.313c0 3.5-2.813 6.375-6.313 6.375z"></path>
</svg>
