<!-- Generated by IcoMoon.io -->
<svg version="1.1" xmlns="http://www.w3.org/2000/svg" width="32" height="32" viewBox="0 0 32 32">
<title>kalem</title>
<path d="M23.813 7.313l0.938-1.188c1.313-1.625 1.063-4-0.563-5.25l-0.063-0.063c-1.625-1.313-3.938-1-5.25 0.563l-0.938 1.188zM18.125 17.188c0 0.25 0.125 0.563 0.375 0.75 0.5 0.375 1.188 0.313 1.625-0.188l6.438-8.063c0.375-0.5 0.313-1.25-0.188-1.625s-1.188-0.25-1.625 0.25l-0.625 0.75-1.063-0.875-5.875-4.688-15 18.813 5.875 4.688 13.625-17.063 1.063 0.875-4.375 5.5c-0.25 0.25-0.313 0.563-0.25 0.875zM7.063 27.875l-5.563-4.438c-0.063 0.313-0.125 0.563-0.125 0.563l-1.25 6.125c-0.125 0.438 0.375 0.75 0.75 0.563l5.688-2.563c-0.063 0 0.188-0.063 0.5-0.25zM31.063 28.938c0 0-0.063 0.063-0.125 0.063l-8.563 1.063c-0.438 0.063-0.75-0.375-0.5-0.75 0.125-0.25 0.25-0.438 0.375-0.625 0.375-0.563-0.125-1.25-0.688-1.25-0.063 0-0.125 0-0.125 0l-16.188 2.438c-0.438 0.063-0.75 0.438-0.688 0.813 0 0.188 0.063 0.375 0.188 0.5 0.188 0.188 0.375 0.25 0.563 0.25 0.063 0 0.125 0 0.125 0l13.375-2c0.438-0.063 0.75 0.438 0.5 0.813-0.063 0.125-0.188 0.25-0.25 0.375-0.25 0.313-0.188 0.875 0.063 1.125 0.188 0.188 0.375 0.25 0.563 0.25 0 0 0 0 0.063 0l11.5-1.5c0.188 0 0.375-0.125 0.5-0.313s0.188-0.438 0.125-0.625c-0.125-0.375-0.375-0.625-0.813-0.625z"></path>
</svg>
