<!-- Generated by IcoMoon.io -->
<svg version="1.1" xmlns="http://www.w3.org/2000/svg" width="32" height="32" viewBox="0 0 32 32">
<title>kalp</title>
<path d="M29.5 5.063c-1.688-1.688-3.938-2.688-6.313-2.688s-4.625 0.938-6.313 2.625l-0.875 0.875-0.875-0.875c-1.625-1.688-3.875-2.625-6.25-2.625s-4.625 0.938-6.25 2.625c-1.688 1.688-2.625 3.875-2.625 6.25s0.938 4.625 2.625 6.313l11.063 11.063c0.625 0.688 1.5 1 2.313 1 0.875 0 1.688-0.313 2.313-1l11.063-11c3.438-3.438 3.5-9.125 0.125-12.563zM28.188 16.438l-11 11.063c-0.625 0.625-1.688 0.625-2.313 0l-11.125-11.125c-1.375-1.375-2.125-3.188-2.125-5.125s0.75-3.75 2.125-5.063c1.375-1.375 3.188-2.125 5.125-2.125s3.75 0.75 5.125 2.125l0.875 0.813-1.375 1.375c-0.313 0.313-0.313 0.813 0 1.125 0.188 0.188 0.375 0.25 0.625 0.25 0.188 0 0.375-0.063 0.563-0.25l3.375-3.313c1.375-1.375 3.188-2.125 5.125-2.125s3.75 0.75 5.125 2.188c2.75 2.813 2.688 7.375-0.125 10.188zM29.125 10.875c-0.063-1.438-0.688-2.813-1.75-3.875-0.688-0.688-1.625-1.25-2.625-1.5-0.438-0.125-0.875 0.125-1 0.563s0.125 0.875 0.563 1c0.75 0.188 1.375 0.625 1.938 1.125 0.75 0.75 1.188 1.75 1.25 2.813 0 0.438 0.375 0.75 0.813 0.75 0 0 0.063 0 0.063 0 0.438 0 0.813-0.375 0.75-0.875z"></path>
</svg>
