<!-- Generated by IcoMoon.io -->
<svg version="1.1" xmlns="http://www.w3.org/2000/svg" width="32" height="32" viewBox="0 0 32 32">
<title>kampanya</title>
<path d="M13.063 13.313c0 0.688-0.563 1.313-1.313 1.313s-1.313-0.625-1.313-1.313c0-0.75 0.563-1.375 1.313-1.375s1.313 0.625 1.313 1.375zM21.563 18.688c0 0.75-0.563 1.375-1.313 1.375s-1.313-0.625-1.313-1.375c0-0.688 0.563-1.313 1.313-1.313s1.313 0.625 1.313 1.313zM31.25 17.75l-0.438-0.625c-0.563-0.75-0.563-1.688-0.063-2.438l0.5-0.688c0.688-1 0.375-2.438-0.75-3.063l-0.688-0.375c-0.813-0.438-1.25-1.313-1.063-2.188l0.125-0.813c0.188-1.188-0.75-2.375-2-2.375l-0.813-0.063c-0.875-0.063-1.625-0.625-1.875-1.5l-0.25-0.813c-0.375-1.188-1.688-1.813-2.813-1.313l-0.75 0.313c-0.813 0.375-1.813 0.188-2.375-0.5l-0.563-0.625c-0.813-0.938-2.313-0.938-3.125 0.063l-0.563 0.563c-0.563 0.688-1.5 0.938-2.313 0.563l-0.813-0.313c-1.125-0.438-2.438 0.188-2.75 1.375l-0.25 0.813c-0.25 0.875-1 1.5-1.875 1.5l-0.813 0.063c-1.25 0.063-2.188 1.25-1.938 2.438l0.125 0.813c0.188 0.875-0.25 1.813-1 2.25l-0.75 0.375c-1.063 0.625-1.375 2.063-0.625 3.063l0.438 0.625c0.563 0.75 0.563 1.688 0.063 2.438l-0.5 0.688c-0.688 1-0.375 2.438 0.75 3.063l0.688 0.375c0.813 0.438 1.25 1.313 1.063 2.188l-0.125 0.813c-0.188 1.188 0.75 2.375 2 2.375l0.813 0.063c0.875 0.063 1.625 0.625 1.875 1.5l0.25 0.813c0.375 1.188 1.688 1.813 2.813 1.313l0.75-0.313c0.813-0.375 1.813-0.188 2.375 0.5l0.563 0.625c0.813 0.938 2.313 0.938 3.125-0.063l0.563-0.563c0.563-0.688 1.5-0.938 2.313-0.563l0.813 0.313c1.125 0.438 2.438-0.188 2.75-1.375l0.25-0.813c0.25-0.875 1-1.5 1.875-1.5l0.813-0.063c1.25-0.063 2.188-1.25 1.938-2.438l-0.125-0.813c-0.188-0.875 0.25-1.813 1-2.25l0.75-0.375c1.063-0.625 1.375-2 0.625-3.063zM8.5 13.313c0-1.813 1.438-3.25 3.25-3.25 1.75 0 3.188 1.438 3.188 3.25 0 1.75-1.438 3.188-3.188 3.188-1.813 0-3.25-1.438-3.25-3.188zM12.375 21.625c-0.313 0.313-0.813 0.375-1.125 0.063-0.313-0.25-0.375-0.75-0.125-1.063l8.5-10.25c0.25-0.313 0.75-0.375 1.125-0.063 0.313 0.25 0.375 0.75 0.063 1.125zM20.25 21.938c-1.813 0-3.25-1.438-3.25-3.25 0-1.75 1.438-3.188 3.25-3.188 1.75 0 3.25 1.438 3.25 3.188 0 1.813-1.5 3.25-3.25 3.25z"></path>
</svg>
