<!-- Generated by IcoMoon.io -->
<svg version="1.1" xmlns="http://www.w3.org/2000/svg" width="32" height="32" viewBox="0 0 32 32">
<title>kimlik</title>
<path d="M27.688 3.25h-7.25c-0.625-1.875-2.375-3.25-4.5-3.25-2.063 0-3.813 1.375-4.438 3.25h-7.188c-1.5 0-2.75 1.25-2.75 2.75v23.25c0 1.5 1.25 2.75 2.75 2.75h23.375c1.5 0 2.75-1.25 2.75-2.75v-23.25c0-1.5-1.25-2.75-2.75-2.75zM15.938 3.063c0.938 0 1.688 0.75 1.688 1.625s-0.75 1.625-1.688 1.625c-0.875 0-1.625-0.75-1.625-1.625s0.75-1.625 1.625-1.625zM24.125 26.625c0 0.5-0.438 0.875-0.938 0.875h-14.375c-0.5 0-0.938-0.375-0.938-0.875v-0.438c0-1.125 0.563-2.188 1.438-2.875 1.813-1.313 3.563-2.188 3.938-2.375 0.063 0 0.063-0.063 0.063-0.125v-1.563c-0.25-0.438-0.375-0.875-0.438-1.25-0.188-0.063-0.438-0.313-0.688-1.188-0.313-1.188 0.063-1.375 0.313-1.313-0.063-0.188-0.063-0.375-0.125-0.5-0.063-0.563-0.125-1.125 0-1.625 0.188-0.688 0.563-1.188 0.938-1.625 0.25-0.25 0.563-0.5 0.875-0.688 0.25-0.188 0.5-0.375 0.813-0.438 0.25-0.063 0.5-0.125 0.75-0.188 0.875-0.063 1.5 0.188 1.938 0.438 0.688 0.375 0.938 0.875 0.938 0.875s1.5 0.125 1 3.25c-0.063 0.125-0.063 0.313-0.125 0.5 0.313-0.063 0.688 0.125 0.313 1.313-0.25 0.875-0.5 1.125-0.625 1.188-0.063 0.375-0.25 0.813-0.5 1.25v1.563c0 0.063 0.063 0.125 0.125 0.125 0.375 0.188 2.063 1.063 3.875 2.375 0.938 0.688 1.438 1.75 1.438 2.875z"></path>
</svg>
