<!-- Generated by IcoMoon.io -->
<svg version="1.1" xmlns="http://www.w3.org/2000/svg" width="32" height="32" viewBox="0 0 32 32">
<title>kullanici</title>
<path d="M9.813 10.063c0.125 0.5 0.25 0.813 0.5 1 0.438 3.313 3.375 6.125 5.75 6 3.063-0.125 5.188-3.375 5.688-6 0.188-0.188 0.375-0.625 0.5-1.125 0.125-0.625 0.25-1.5-0.125-1.938 0-0.063-0.125-0.188-0.188-0.188 0.375-1.25 1.125-3.438-0.75-5.375-1-1.063-2.375-1.625-3.688-2-3.688-1.25-6.313 0.5-7.563 3.375-0.063 0.188-0.625 1.5 0.063 4-0.063 0.063-0.125 0.063-0.188 0.188-0.375 0.438-0.125 1.438 0 2.063zM29.063 28.125c-0.063-2.25-0.188-5.813-2.188-8.75 0 0-0.563-0.813-1.875-1.313 0 0-2.938-0.875-4.25-1.813l-0.625 0.375 0.063 4-3.688 9.813c-0.063 0.188-0.25 0.313-0.5 0.313s-0.438-0.125-0.5-0.313l-3.688-9.813c0 0 0.063-3.938 0.063-4 0 0.063-0.625-0.375-0.625-0.375-1.313 0.938-4.25 1.813-4.25 1.813-1.313 0.5-1.875 1.313-1.875 1.313-2 2.938-2.125 6.5-2.188 8.75-0.125 1.563 0.25 2.188 0.625 2.313 5.125 2.063 19.75 2.063 24.875 0 0.375-0.125 0.75-0.75 0.625-2.313zM16.125 18.313h-0.188c-0.5 0-1.063-0.063-1.563-0.25l1.438 2.188-1.313 1.313 1.375 8.125c0 0.063 0.063 0.125 0.125 0.125s0.125-0.063 0.125-0.125l1.375-8.125-1.313-1.313 1.438-2.188c-0.5 0.188-1 0.25-1.5 0.25z"></path>
</svg>
