<!-- Generated by IcoMoon.io -->
<svg version="1.1" xmlns="http://www.w3.org/2000/svg" width="32" height="32" viewBox="0 0 32 32">
<title>kurumsal</title>
<path d="M8.25 3.188c0 1.75-1.438 3.125-3.188 3.125s-3.125-1.375-3.125-3.125c0-1.75 1.375-3.188 3.125-3.188s3.188 1.438 3.188 3.188zM1.563 17.375h0.313v6.25c0 0.813 0.688 1.563 1.563 1.563h3.25c0.875 0 1.563-0.75 1.563-1.563v-0.375c-0.25-0.563-0.438-1.188-0.438-1.813v-8.188c0-1.625 0.938-3 2.313-3.563v-0.625c0-0.875-0.688-1.563-1.563-1.563h-7c-0.875 0-1.563 0.688-1.563 1.563v6.75c0 0.813 0.688 1.563 1.563 1.563zM30 3.188c0 1.75-1.375 3.125-3.125 3.125s-3.125-1.375-3.125-3.125c0-1.75 1.375-3.188 3.125-3.188s3.125 1.438 3.125 3.188zM21.75 9v0.625c1.375 0.625 2.375 2 2.375 3.563v8.188c0 0.625-0.188 1.25-0.5 1.813v0.375c0 0.813 0.75 1.563 1.563 1.563h3.313c0.875 0 1.563-0.75 1.563-1.563v-6.25h0.313c0.875 0 1.563-0.688 1.563-1.563v-6.75c0-0.813-0.688-1.563-1.563-1.563h-7.063c-0.813 0-1.563 0.75-1.563 1.563zM10.188 13.25v8.188c0 0.813 0.688 1.563 1.563 1.563h0.563v7.313c0 0.875 0.75 1.563 1.563 1.563h4.188c0.875 0 1.563-0.688 1.563-1.563v-7.375h0.625c0.875 0 1.563-0.688 1.563-1.563v-8.125c0-0.875-0.688-1.563-1.563-1.563h-8.5c-0.875 0-1.563 0.688-1.563 1.563zM19.563 6.75c0 2-1.563 3.625-3.563 3.625s-3.625-1.625-3.625-3.625c0-2 1.625-3.625 3.625-3.625s3.563 1.625 3.563 3.625z"></path>
</svg>
