<!-- Generated by IcoMoon.io -->
<svg version="1.1" xmlns="http://www.w3.org/2000/svg" width="32" height="32" viewBox="0 0 32 32">
<title>liste</title>
<path d="M32 4c0-0.813-0.563-1.313-1.313-1.313h-29.375c-0.75 0-1.313 0.5-1.313 1.313v2.688c0 0.75 0.563 1.313 1.313 1.313h29.375c0.75 0 1.313-0.563 1.313-1.313zM32 14.688c0-0.813-0.563-1.375-1.313-1.375h-29.375c-0.75 0-1.313 0.563-1.313 1.375v2.625c0 0.813 0.563 1.375 1.313 1.375h29.375c0.75 0 1.313-0.563 1.313-1.375zM32 25.313c0-0.75-0.563-1.313-1.313-1.313h-29.375c-0.75 0-1.313 0.563-1.313 1.313v2.688c0 0.813 0.563 1.313 1.313 1.313h29.375c0.75 0 1.313-0.5 1.313-1.313z"></path>
</svg>
