<!-- Generated by IcoMoon.io -->
<svg version="1.1" xmlns="http://www.w3.org/2000/svg" width="32" height="32" viewBox="0 0 32 32">
<title>mouse</title>
<path d="M31.688 27.063l-6.375-6.375 4.563-2.625c0.313-0.188 0.563-0.563 0.5-1 0-0.375-0.25-0.75-0.625-0.938l-20.313-8.063c-0.375-0.125-0.813-0.063-1.125 0.25s-0.375 0.75-0.25 1.125l8.063 20.313c0.188 0.375 0.563 0.625 0.938 0.625 0.438 0.063 0.813-0.188 1-0.5l2.625-4.563 6.375 6.375c0.188 0.188 0.5 0.313 0.75 0.313 0.313 0 0.563-0.125 0.75-0.313l3.125-3.125c0.438-0.375 0.438-1.063 0-1.5zM4.688 3.188c-0.438-0.438-1.063-0.438-1.5 0s-0.438 1.063 0 1.5l2.375 2.375c0.188 0.25 0.5 0.313 0.75 0.313s0.563-0.063 0.75-0.313c0.438-0.375 0.438-1.063 0-1.5zM5.5 10.563c0-0.563-0.5-1.063-1.063-1.063h-3.375c-0.563 0-1.063 0.5-1.063 1.063 0 0.625 0.5 1.063 1.063 1.063h3.375c0.563 0 1.063-0.438 1.063-1.063zM5.063 13.875l-2.375 2.375c-0.438 0.438-0.438 1.125 0 1.5 0.188 0.25 0.5 0.313 0.75 0.313 0.313 0 0.563-0.063 0.75-0.313l2.375-2.375c0.438-0.375 0.438-1.063 0-1.5-0.375-0.438-1.063-0.438-1.5 0zM10.563 5.5c0.625 0 1.063-0.5 1.063-1.063v-3.375c0-0.563-0.438-1.063-1.063-1.063-0.563 0-1.063 0.5-1.063 1.063v3.375c0 0.563 0.5 1.063 1.063 1.063zM14.625 6.875c0.313 0 0.563-0.063 0.75-0.313l2.375-2.375c0.438-0.375 0.438-1.063 0-1.5-0.375-0.438-1.063-0.438-1.5 0l-2.375 2.375c-0.438 0.438-0.438 1.125 0 1.5 0.25 0.25 0.5 0.313 0.75 0.313z"></path>
</svg>
