<!-- Generated by IcoMoon.io -->
<svg version="1.1" xmlns="http://www.w3.org/2000/svg" width="32" height="32" viewBox="0 0 32 32">
<title>nakliye</title>
<path d="M1.125 19.75v-13.625c0-0.75 0.625-1.375 1.375-1.375h13.625c0.75 0 1.375 0.625 1.375 1.375v13.625c0 0.25-0.25 0.438-0.5 0.438h-15.438c-0.25 0-0.438-0.188-0.438-0.438zM12.125 24.375c0 1.625-1.313 2.875-2.875 2.875s-2.813-1.25-2.813-2.875c0-1.563 1.25-2.813 2.813-2.813s2.875 1.25 2.875 2.813zM10.688 24.375c0-0.75-0.625-1.375-1.438-1.375-0.75 0-1.375 0.625-1.375 1.375 0 0.813 0.625 1.438 1.375 1.438 0.813 0 1.438-0.625 1.438-1.438zM6.813 21.563h-6.375c-0.25 0-0.438 0.188-0.438 0.438v1.375c0 0.313 0.188 0.5 0.438 0.5h5.125c0.125-0.938 0.563-1.75 1.25-2.313zM27 24.375c0 1.625-1.313 2.875-2.875 2.875s-2.813-1.25-2.813-2.875c0-1.563 1.25-2.813 2.813-2.813s2.875 1.25 2.875 2.813zM25.563 24.375c0-0.75-0.625-1.375-1.438-1.375-0.75 0-1.438 0.625-1.438 1.375 0 0.813 0.688 1.438 1.438 1.438 0.813 0 1.438-0.625 1.438-1.438zM32 22v1.375c0 0.313-0.188 0.5-0.438 0.5h-3.688c-0.313-1.813-1.875-3.25-3.75-3.25s-3.438 1.438-3.688 3.25h-7.438c-0.125-0.938-0.625-1.75-1.313-2.313h7.063v-13.063c0-0.5 0.438-0.938 0.938-0.938h4.313c1.188 0 2.375 0.625 3 1.625l2.813 4.125c0.375 0.625 0.625 1.313 0.625 2.063v6.188h1.125c0.25 0 0.438 0.188 0.438 0.438zM27.375 13.438l-2.25-3.188c-0.063-0.125-0.188-0.188-0.375-0.188h-3.438c-0.25 0-0.438 0.188-0.438 0.438v3.188c0 0.25 0.188 0.438 0.438 0.438h5.688c0.375 0 0.563-0.375 0.375-0.688z"></path>
</svg>
