<!-- Generated by IcoMoon.io -->
<svg version="1.1" xmlns="http://www.w3.org/2000/svg" width="32" height="32" viewBox="0 0 32 32">
<title>ok2</title>
<path d="M0 23.5c0 0.25 0.125 0.5 0.313 0.688s0.438 0.313 0.688 0.313h14v6.5c0 0.375 0.25 0.75 0.625 0.938 0.375 0.125 0.813 0.063 1.063-0.25l15-15c0.188-0.188 0.313-0.438 0.313-0.688s-0.125-0.5-0.313-0.688l-15-15c-0.25-0.313-0.688-0.375-1.063-0.25-0.375 0.188-0.625 0.563-0.625 0.938v6.5h-14c-0.25 0-0.5 0.125-0.688 0.313s-0.313 0.438-0.313 0.688z"></path>
</svg>
