<!-- Generated by IcoMoon.io -->
<svg version="1.1" xmlns="http://www.w3.org/2000/svg" width="32" height="32" viewBox="0 0 32 32">
<title>ozellik</title>
<path d="M31.875 14.25c0-0.5-0.563-0.813-1-0.813-1.5 0-2.75-0.875-3.313-2.188-0.563-1.375-0.188-2.938 0.875-3.938 0.375-0.313 0.375-0.875 0.125-1.25-0.75-0.938-1.625-1.813-2.563-2.563-0.375-0.25-0.875-0.25-1.188 0.125-0.938 1.063-2.688 1.438-4 0.875-1.375-0.563-2.25-1.938-2.188-3.438 0.063-0.5-0.313-0.875-0.75-0.938-1.188-0.188-2.438-0.188-3.625 0-0.438 0-0.813 0.438-0.75 0.875 0 1.5-0.875 2.875-2.25 3.438-1.25 0.5-3 0.125-3.938-0.938-0.313-0.313-0.813-0.375-1.188-0.063-1 0.75-1.875 1.625-2.625 2.563-0.25 0.375-0.25 0.875 0.125 1.188 1.125 1 1.438 2.625 0.875 4-0.563 1.313-1.875 2.188-3.438 2.188-0.563-0.063-0.875 0.313-0.938 0.75-0.188 1.188-0.188 2.438 0 3.625 0 0.5 0.563 0.813 1 0.813 1.438-0.063 2.75 0.813 3.313 2.188s0.188 2.938-0.875 3.938c-0.375 0.313-0.375 0.875-0.125 1.25 0.75 0.938 1.625 1.813 2.563 2.563 0.375 0.25 0.875 0.25 1.188-0.125 0.938-1.063 2.688-1.438 4-0.875 1.375 0.563 2.25 1.938 2.188 3.438-0.063 0.5 0.313 0.875 0.75 0.938 0.625 0.063 1.25 0.125 1.875 0.125 0.563 0 1.125-0.063 1.75-0.125 0.438 0 0.813-0.438 0.75-0.875 0-1.5 0.875-2.875 2.188-3.438 1.375-0.5 3.063-0.125 4 0.938 0.313 0.313 0.813 0.375 1.188 0.063 1-0.75 1.813-1.625 2.625-2.563 0.25-0.375 0.25-0.875-0.125-1.188-1.125-1-1.438-2.625-0.875-4 0.5-1.313 1.813-2.188 3.25-2.188h0.188c0.5 0.063 0.875-0.313 0.938-0.75 0.188-1.188 0.188-2.438 0-3.625zM16 21.375c-2.938 0-5.313-2.375-5.313-5.313 0-3 2.375-5.375 5.313-5.375s5.375 2.375 5.375 5.375c0 2.938-2.438 5.313-5.375 5.313z"></path>
</svg>
