<!-- Generated by IcoMoon.io -->
<svg version="1.1" xmlns="http://www.w3.org/2000/svg" width="32" height="32" viewBox="0 0 32 32">
<title>pdf</title>
<path d="M9.438 20.563c0-0.5-0.375-0.813-1-0.813-0.313 0-0.5 0-0.563 0.063v1.688c0.125 0 0.25 0 0.438 0 0.688 0 1.125-0.313 1.125-0.938zM13.438 19.75c-0.25 0-0.438 0.063-0.563 0.063v3.75c0.125 0.063 0.25 0.063 0.438 0.063 1.188 0 1.938-0.625 1.938-2.063 0-1.188-0.688-1.813-1.813-1.813zM20.938 0h-12.875c-1.875 0-3.375 1.5-3.375 3.375v12.625h-0.313c-0.813 0-1.375 0.625-1.375 1.375v8.313c0 0.75 0.563 1.375 1.375 1.375h0.313v1.563c0 1.875 1.5 3.375 3.375 3.375h17.563c1.875 0 3.375-1.5 3.375-3.375v-20.563zM6.563 18.875c0.438-0.063 1-0.125 1.75-0.125 0.813 0 1.375 0.188 1.813 0.438 0.375 0.313 0.625 0.813 0.625 1.375s-0.25 1.063-0.563 1.375c-0.438 0.375-1.125 0.625-1.875 0.625-0.188 0-0.313-0.063-0.438-0.063v2.063h-1.313zM25.625 29.938h-17.563c-0.688 0-1.313-0.625-1.313-1.313v-1.563h16.375c0.75 0 1.375-0.625 1.375-1.375v-8.313c0-0.75-0.625-1.375-1.375-1.375h-16.375v-12.625c0-0.688 0.625-1.313 1.313-1.313h12.125v4.5c0 1.25 1 2.313 2.313 2.313h4.375l0.063 19.75c0 0.688-0.563 1.313-1.313 1.313zM11.563 24.563v-5.688c0.5-0.063 1.125-0.125 1.75-0.125 1.125 0 1.813 0.188 2.375 0.625s1 1.125 1 2.188c0 1.063-0.438 1.875-1 2.313-0.625 0.5-1.5 0.75-2.625 0.75-0.688 0-1.188-0.063-1.5-0.063zM20.875 21.188v1.063h-2.063v2.313h-1.313v-5.75h3.563v1.063h-2.25v1.313z"></path>
</svg>
