<!-- Generated by IcoMoon.io -->
<svg version="1.1" xmlns="http://www.w3.org/2000/svg" width="32" height="32" viewBox="0 0 32 32">
<title>proje</title>
<path d="M19.25 16c0 1.813-1.438 3.25-3.25 3.25s-3.25-1.438-3.25-3.25c0-1.813 1.438-3.25 3.25-3.25s3.25 1.438 3.25 3.25zM27.938 17.625c-0.438-0.5-0.875-1.063-1.375-1.625 0.5-0.5 0.938-1.063 1.375-1.625 0.938-1.25 1.625-2.438 1.938-3.563 0.25-0.875 0.438-2.125-0.25-3.25-0.938-1.5-2.813-1.813-4.25-1.813-1.188 0-2.563 0.25-4 0.625-0.188-0.5-0.313-0.938-0.5-1.375-0.563-1.5-1.25-2.688-2-3.5-0.875-1-1.875-1.5-2.875-1.5h-0.063c-1.25 0-2.25 0.813-2.875 1.5-0.75 0.875-1.438 2.063-2 3.5-0.125 0.438-0.313 0.938-0.438 1.375-1.438-0.375-2.813-0.625-4-0.625-1.438 0-3.313 0.375-4.25 1.813-0.688 1.125-0.5 2.375-0.25 3.25 0.313 1.125 1 2.313 1.938 3.563 0.438 0.563 0.875 1.125 1.375 1.625-0.5 0.563-0.938 1.125-1.375 1.625-0.938 1.25-1.625 2.438-1.938 3.563-0.25 0.875-0.438 2.125 0.25 3.25 0.938 1.5 2.813 1.813 4.25 1.813 1.188 0 2.563-0.188 4-0.625 0.188 0.5 0.313 0.938 0.5 1.375 0.563 1.5 1.25 2.688 2 3.5 0.875 1 1.875 1.5 2.875 1.5h0.063c1.25 0 2.25-0.813 2.875-1.5 0.75-0.813 1.438-2 2-3.5 0.125-0.438 0.313-0.875 0.438-1.375 1.438 0.438 2.813 0.625 4 0.625 1.438 0 3.313-0.313 4.25-1.813 0.688-1.125 0.5-2.375 0.25-3.25-0.313-1.125-1-2.313-1.938-3.563zM25.375 7.625c0.75 0 2.188 0.125 2.688 0.938 0.563 0.938 0 2.688-1.563 4.75-0.375 0.438-0.813 0.938-1.25 1.438-0.813-0.813-1.75-1.625-2.75-2.375-0.188-1.5-0.375-2.875-0.688-4.25 1.313-0.313 2.563-0.5 3.563-0.5zM20.063 23.375c0-0.063 0-0.063 0-0.063-0.688-0.188-1.375-0.5-2.063-0.813 0.5-0.25 1-0.563 1.5-0.875 0.313-0.188 0.688-0.375 1-0.625-0.125 0.813-0.25 1.625-0.438 2.375zM18.563 20.125c-0.875 0.5-1.688 1-2.563 1.438-0.875-0.438-1.688-0.938-2.563-1.438-0.75-0.5-1.438-1-2.188-1.5-0.063-0.813-0.063-1.688-0.063-2.625 0-0.875 0-1.75 0.063-2.625 0.688-0.5 1.438-1 2.188-1.438 0.875-0.563 1.688-1 2.563-1.438 0.875 0.438 1.688 0.875 2.563 1.438 0.75 0.438 1.438 0.938 2.188 1.438 0.063 0.875 0.063 1.75 0.063 2.625s0 1.75-0.063 2.625c-0.688 0.5-1.438 1-2.188 1.5zM11.938 23.313c-0.188-0.688-0.313-1.5-0.438-2.313 0.313 0.25 0.688 0.438 1 0.688 0.5 0.25 1 0.563 1.5 0.813-0.688 0.313-1.375 0.563-2.063 0.813zM9.375 17.188c-0.438-0.375-0.938-0.75-1.375-1.188 0.438-0.375 0.875-0.75 1.375-1.188 0 0.438 0 0.813 0 1.188 0 0.438 0 0.813 0 1.188zM11.875 8.688c0.063 0 0.063 0 0.063 0 0.688 0.25 1.375 0.5 2.063 0.813-0.5 0.25-1 0.563-1.5 0.875-0.313 0.188-0.688 0.438-1 0.625 0.125-0.813 0.25-1.563 0.375-2.313zM20.063 8.688c0.188 0.75 0.313 1.5 0.438 2.313-0.313-0.188-0.688-0.438-1-0.625-0.5-0.313-1-0.625-1.5-0.875 0.688-0.313 1.375-0.563 2.063-0.813zM22.625 14.813c0.438 0.438 0.938 0.813 1.375 1.188-0.438 0.438-0.875 0.813-1.375 1.188 0-0.375 0-0.813 0-1.188s0-0.813 0-1.188zM12.75 5.688c0.938-2.438 2.125-3.875 3.25-3.875 1.063 0 2.25 1.438 3.188 3.875 0.125 0.375 0.313 0.813 0.438 1.25-1.188 0.375-2.375 0.875-3.625 1.5-1.25-0.625-2.438-1.125-3.625-1.5 0.125-0.438 0.25-0.875 0.375-1.25zM3.938 8.563c0.5-0.813 1.938-0.938 2.688-0.938 1 0 2.25 0.188 3.563 0.5-0.313 1.375-0.563 2.813-0.688 4.313-1 0.75-1.938 1.5-2.75 2.313-0.438-0.5-0.875-1-1.25-1.438-1.563-2.063-2.125-3.813-1.563-4.75zM6.625 24.438c-0.75 0-2.188-0.125-2.688-0.938-0.563-0.938 0-2.75 1.563-4.75 0.375-0.5 0.813-1 1.25-1.438 0.813 0.75 1.75 1.563 2.75 2.313 0.188 1.5 0.375 2.938 0.688 4.25-1.313 0.375-2.563 0.563-3.563 0.563zM19.25 26.375c-0.938 2.375-2.125 3.813-3.25 3.813-1.063 0-2.25-1.438-3.188-3.813-0.125-0.438-0.313-0.813-0.438-1.25 1.188-0.438 2.375-0.938 3.625-1.563 1.25 0.625 2.438 1.125 3.625 1.563-0.125 0.438-0.25 0.813-0.375 1.25zM28.063 23.5c-0.5 0.813-1.938 0.938-2.688 0.938-1 0-2.25-0.188-3.563-0.563 0.313-1.313 0.563-2.75 0.688-4.25 1-0.75 1.938-1.563 2.75-2.313 0.438 0.438 0.875 0.938 1.25 1.438 1.563 2 2.125 3.813 1.563 4.75z"></path>
</svg>
