<!-- Generated by IcoMoon.io -->
<svg version="1.1" xmlns="http://www.w3.org/2000/svg" width="32" height="32" viewBox="0 0 32 32">
<title>rastgele</title>
<path d="M32 24.25l-6.688-6.688v5.313h-0.625c-4.25 0-6.375-3.5-8.875-7.563-2.563-4.188-5.438-8.938-11.25-8.938h-4.563v2.75h4.563c4.25 0 6.438 3.5 8.875 7.563 2.563 4.188 5.438 8.938 11.25 8.938h0.625v5.25zM32 7.75l-6.688-6.625v5.25h-0.625c-4.188 0-6.813 2.438-8.938 5.375 0.563 0.875 1.063 1.688 1.563 2.5 1.938-2.875 4-5.125 7.375-5.125h0.625v5.313zM11.938 17.75c-1.938 2.875-4 5.125-7.375 5.125h-4.563v2.75h4.563c4.188 0 6.813-2.438 8.938-5.375-0.563-0.875-1.063-1.688-1.563-2.5z"></path>
</svg>
