<!-- Generated by IcoMoon.io -->
<svg version="1.1" xmlns="http://www.w3.org/2000/svg" width="32" height="32" viewBox="0 0 32 32">
<title>saat</title>
<path d="M16 0c-8.813 0-16 7.188-16 16s7.188 16 16 16c8.813 0 16-7.188 16-16s-7.188-16-16-16zM22.75 26.688l-0.688-1.188c-0.125-0.125-0.25-0.25-0.438-0.25-0.063 0-0.125 0.063-0.188 0.063-0.125 0.063-0.188 0.188-0.188 0.313-0.063 0.125-0.063 0.25 0 0.313l0.688 1.188c-1.5 0.813-3.25 1.375-5.125 1.5v-1.688c0-0.5-0.375-0.875-0.813-0.875s-0.813 0.375-0.813 0.875v1.688c-1.813-0.125-3.563-0.625-5.063-1.438l0.688-1.188c0.063-0.125 0.063-0.25 0-0.375 0-0.125-0.063-0.188-0.188-0.25-0.063-0.063-0.125-0.063-0.188-0.063-0.188 0-0.313 0.063-0.438 0.25l-0.688 1.188c-1.5-1-2.813-2.25-3.813-3.75l1.438-0.813c0.438-0.25 0.563-0.75 0.313-1.125-0.188-0.438-0.75-0.563-1.125-0.313l-1.438 0.813c-0.813-1.563-1.25-3.25-1.313-5.063h1.375c0.125 0 0.25-0.063 0.313-0.125 0.063-0.125 0.125-0.25 0.125-0.313 0-0.25-0.188-0.5-0.438-0.5h-1.375c0.063-1.813 0.5-3.563 1.313-5.125l1.438 0.813c0.125 0.063 0.25 0.125 0.438 0.125 0.25 0 0.563-0.125 0.688-0.438 0.25-0.375 0.125-0.875-0.313-1.125l-1.438-0.813c1-1.5 2.25-2.75 3.75-3.688l0.688 1.188c0.063 0.063 0.125 0.125 0.188 0.188 0.125 0.063 0.313 0.063 0.438 0s0.188-0.188 0.188-0.313c0.063-0.125 0.063-0.25 0-0.313l-0.688-1.188c1.5-0.813 3.25-1.375 5.125-1.5v1.688c0 0.5 0.375 0.875 0.813 0.875s0.813-0.375 0.813-0.875v-1.688c1.813 0.125 3.563 0.625 5.063 1.438l-0.688 1.188c-0.125 0.25 0 0.5 0.188 0.625 0.063 0.063 0.125 0.063 0.188 0.063 0.188 0 0.313-0.063 0.438-0.25l0.688-1.188c1.5 1 2.813 2.25 3.813 3.75l-1.438 0.813c-0.438 0.25-0.563 0.75-0.313 1.125 0.125 0.313 0.438 0.438 0.688 0.438 0.188 0 0.313-0.063 0.438-0.125l1.438-0.813c0.813 1.563 1.25 3.25 1.313 5.063h-1.375c-0.125 0-0.25 0.063-0.313 0.125-0.063 0.125-0.125 0.25-0.125 0.313 0 0.188 0.063 0.313 0.188 0.438 0.125 0 0.188 0.063 0.25 0.063h1.375c-0.063 1.813-0.5 3.563-1.313 5.125l-1.438-0.813c-0.375-0.25-0.938-0.125-1.125 0.313-0.25 0.375-0.125 0.875 0.313 1.125l1.438 0.813c-1 1.5-2.25 2.75-3.75 3.688zM22.25 11.438l-5.438 3c-0.25-0.125-0.5-0.188-0.813-0.188s-0.563 0.063-0.813 0.188l-5.438-3c-0.5-0.313-1.125-0.125-1.438 0.438-0.25 0.5-0.063 1.125 0.438 1.438l5.5 3c0.188 0.875 0.875 1.438 1.75 1.438s1.563-0.563 1.75-1.438l5.5-3c0.5-0.313 0.688-0.938 0.438-1.438-0.313-0.563-0.938-0.75-1.438-0.438z"></path>
</svg>
