<!-- Generated by IcoMoon.io -->
<svg version="1.1" xmlns="http://www.w3.org/2000/svg" width="32" height="32" viewBox="0 0 32 32">
<title>soru</title>
<path d="M29.813 7.938c-1.438-2.438-3.375-4.375-5.813-5.813s-5.125-2.125-8-2.125c-2.938 0-5.563 0.688-8.063 2.125-2.438 1.438-4.375 3.375-5.813 5.813-1.438 2.5-2.125 5.125-2.125 8.063 0 2.875 0.688 5.563 2.125 8s3.375 4.375 5.813 5.813c2.5 1.438 5.125 2.125 8.063 2.125 2.875 0 5.563-0.688 8-2.125s4.375-3.375 5.813-5.813c1.438-2.438 2.125-5.125 2.125-8 0-2.938-0.688-5.563-2.125-8.063zM18.625 26c0 0.188-0.063 0.313-0.188 0.438s-0.25 0.188-0.438 0.188h-4c-0.188 0-0.375-0.063-0.5-0.188s-0.188-0.25-0.188-0.438v-4c0-0.188 0.063-0.375 0.188-0.5s0.313-0.188 0.5-0.188h4c0.188 0 0.313 0.063 0.438 0.188s0.188 0.313 0.188 0.5zM23.688 13.688c-0.125 0.5-0.313 0.938-0.563 1.25-0.188 0.313-0.5 0.625-0.938 1-0.375 0.313-0.688 0.563-0.938 0.75-0.25 0.125-0.563 0.313-1 0.563-0.5 0.25-0.875 0.625-1.125 1.063-0.313 0.375-0.5 0.75-0.5 1 0 0.188-0.063 0.375-0.188 0.5s-0.25 0.188-0.438 0.188h-4c-0.188 0-0.375-0.063-0.5-0.188s-0.188-0.313-0.188-0.5v-0.75c0-0.938 0.375-1.813 1.125-2.625 0.688-0.813 1.5-1.375 2.375-1.813 0.688-0.25 1.125-0.563 1.438-0.938 0.25-0.313 0.375-0.688 0.375-1.25 0-0.438-0.25-0.875-0.75-1.25-0.5-0.313-1.125-0.5-1.813-0.5s-1.313 0.125-1.75 0.5c-0.5 0.313-1.063 0.938-1.813 1.875-0.125 0.188-0.313 0.25-0.5 0.25s-0.313 0-0.438-0.125l-2.688-2.063c-0.375-0.25-0.375-0.563-0.188-0.875 1.75-2.938 4.313-4.438 7.688-4.438 1.25 0 2.438 0.313 3.563 0.875s2.125 1.375 2.875 2.438c0.75 1 1.188 2.125 1.188 3.375 0 0.625-0.125 1.188-0.313 1.688z"></path>
</svg>
