<!-- Generated by IcoMoon.io -->
<svg version="1.1" xmlns="http://www.w3.org/2000/svg" width="32" height="32" viewBox="0 0 32 32">
<title>takvim</title>
<path d="M11.688 17.688c0-0.438-0.375-0.75-0.75-0.75h-2.563c-0.375 0-0.688 0.313-0.688 0.75v2.5c0 0.438 0.313 0.75 0.688 0.75h2.563c0.375 0 0.75-0.313 0.75-0.75zM18 17.688c0-0.438-0.313-0.75-0.75-0.75h-2.5c-0.438 0-0.75 0.313-0.75 0.75v2.5c0 0.438 0.313 0.75 0.75 0.75h2.5c0.438 0 0.75-0.313 0.75-0.75zM24.313 17.688c0-0.438-0.313-0.75-0.688-0.75h-2.563c-0.375 0-0.688 0.313-0.688 0.75v2.5c0 0.438 0.313 0.75 0.688 0.75h2.563c0.375 0 0.688-0.313 0.688-0.75zM11.688 24c0-0.375-0.375-0.75-0.75-0.75h-2.563c-0.375 0-0.688 0.375-0.688 0.75v2.563c0 0.375 0.313 0.688 0.688 0.688h2.563c0.375 0 0.75-0.313 0.75-0.688zM18 24c0-0.375-0.313-0.75-0.75-0.75h-2.5c-0.438 0-0.75 0.375-0.75 0.75v2.563c0 0.375 0.313 0.688 0.75 0.688h2.5c0.438 0 0.75-0.313 0.75-0.688zM24.313 24c0-0.375-0.313-0.75-0.688-0.75h-2.563c-0.375 0-0.688 0.375-0.688 0.75v2.563c0 0.375 0.313 0.688 0.688 0.688h2.563c0.375 0 0.688-0.313 0.688-0.688zM28.875 3.563v3.875c0 1.75-1.438 3.188-3.188 3.188h-2c-1.75 0-3.188-1.438-3.188-3.188v-3.875h-9v3.875c0 1.75-1.438 3.188-3.188 3.188h-2c-1.75 0-3.188-1.438-3.188-3.188v-3.875c-1.5 0.063-2.75 1.313-2.75 2.875v22.688c0 1.563 1.25 2.875 2.875 2.875h25.563c1.563 0 2.813-1.313 2.813-2.875v-22.688c0-1.563-1.25-2.813-2.75-2.875zM27.938 27.688c0 0.688-0.563 1.25-1.25 1.25h-21.438c-0.688 0-1.25-0.563-1.25-1.25v-11.688c0-0.688 0.563-1.25 1.25-1.25h21.438c0.688 0 1.25 0.563 1.25 1.25zM6.313 8.5h2c0.563 0 1.063-0.438 1.063-1.063v-6.375c0-0.563-0.5-1.063-1.063-1.063h-2c-0.625 0-1.125 0.5-1.125 1.063v6.375c0 0.625 0.5 1.063 1.125 1.063zM23.688 8.5h1.938c0.625 0 1.125-0.438 1.125-1.063v-6.375c0-0.563-0.5-1.063-1.125-1.063h-1.938c-0.625 0-1.125 0.5-1.125 1.063v6.375c0 0.625 0.5 1.063 1.125 1.063z"></path>
</svg>
