<!-- Generated by IcoMoon.io -->
<svg version="1.1" xmlns="http://www.w3.org/2000/svg" width="32" height="32" viewBox="0 0 32 32">
<title>tamir</title>
<path d="M0.875 26.875c-1.188 1.188-1.188 3.063 0 4.25 0.563 0.563 1.375 0.875 2.125 0.875s1.563-0.313 2.125-0.875l9.813-9.875-4.25-4.188zM25.5 8.625l4.25-2.188 2.25-4.313-2.063-2.125-4.375 2.25-2.188 4.25-5.25 5.25 2.125 2.125zM26.438 20h-0.438c-0.75 0-1.438 0.125-2.063 0.375l-12.313-12.313c0.25-0.625 0.375-1.313 0.375-2.063v-0.438c-0.25-3.063-2.813-5.563-6-5.563-0.875 0-1.75 0.25-2.563 0.625l4 3.938c0.188 0.25 0.375 0.5 0.438 0.75 0.25 0.688 0.125 1.5-0.438 2.125-0.375 0.375-0.875 0.563-1.438 0.563-0.188 0-0.438-0.063-0.688-0.125-0.25-0.125-0.5-0.25-0.688-0.438l-4-4c-0.375 0.75-0.563 1.625-0.563 2.563 0 3.188 2.438 5.75 5.563 5.938l0.375 0.063c0.75 0 1.438-0.188 2.125-0.375l12.25 12.25c-0.188 0.688-0.375 1.375-0.375 2.125l0.063 0.375c0.188 3.125 2.75 5.563 5.938 5.563 0.938 0 1.813-0.188 2.563-0.563l-3.938-4c-0.25-0.188-0.375-0.438-0.5-0.688-0.25-0.75-0.125-1.563 0.5-2.125 0.375-0.375 0.875-0.563 1.375-0.563 0.25 0 0.5 0 0.688 0.125 0.25 0.063 0.5 0.25 0.75 0.438l3.938 4c0.375-0.813 0.625-1.688 0.625-2.563 0-3.188-2.5-5.75-5.563-6z"></path>
</svg>
