<!-- Generated by IcoMoon.io -->
<svg version="1.1" xmlns="http://www.w3.org/2000/svg" width="32" height="32" viewBox="0 0 32 32">
<title>telefon</title>
<path d="M32 25.25c0.063 0.5-0.125 1-0.5 1.375l-4.5 4.438c-0.188 0.25-0.438 0.438-0.813 0.563-0.313 0.188-0.625 0.313-0.938 0.313 0 0-0.125 0-0.188 0.063-0.125 0-0.313 0-0.438 0-0.438 0-1.125-0.063-2.125-0.25-0.938-0.125-2.125-0.5-3.5-1.063s-3-1.438-4.75-2.563c-1.75-1.188-3.625-2.75-5.625-4.75-1.563-1.563-2.875-3.063-3.938-4.5-1-1.438-1.875-2.75-2.5-3.938s-1.063-2.313-1.375-3.313c-0.375-0.938-0.563-1.813-0.688-2.5-0.125-0.75-0.125-1.313-0.125-1.688 0-0.438 0.063-0.625 0.063-0.688 0-0.313 0.125-0.625 0.313-0.938 0.125-0.375 0.313-0.625 0.563-0.813l4.5-4.5c0.313-0.313 0.688-0.5 1.063-0.5 0.313 0 0.563 0.125 0.813 0.25 0.188 0.188 0.375 0.375 0.563 0.625l3.625 6.875c0.188 0.375 0.25 0.75 0.188 1.188-0.125 0.438-0.313 0.813-0.625 1.125l-1.625 1.625c-0.063 0.063-0.125 0.125-0.125 0.25-0.063 0.063-0.063 0.188-0.063 0.25 0.125 0.438 0.313 1 0.625 1.625 0.25 0.5 0.688 1.188 1.25 1.938 0.563 0.813 1.375 1.688 2.375 2.75 1.063 1 1.938 1.813 2.75 2.375 0.75 0.625 1.438 1 1.938 1.313 0.563 0.25 0.938 0.438 1.25 0.5l0.438 0.063c0 0 0.125 0 0.188-0.063 0.125 0 0.188-0.063 0.25-0.125l1.938-1.938c0.375-0.375 0.875-0.563 1.375-0.563 0.438 0 0.688 0.063 0.938 0.188h0.063l6.5 3.875c0.5 0.313 0.75 0.688 0.875 1.125z"></path>
</svg>
