<!-- Generated by IcoMoon.io -->
<svg version="1.1" xmlns="http://www.w3.org/2000/svg" width="32" height="32" viewBox="0 0 32 32">
<title>ucak</title>
<path d="M32 5.938c0-0.063 0-0.063 0-0.125 0 0 0 0 0-0.063 0 0-0.063-0.063-0.063-0.125s0-0.063 0-0.063c-0.063-0.063-0.125-0.063-0.125-0.125-0.063 0-0.063 0-0.063 0s-0.063-0.063-0.125-0.063c0 0-0.063 0-0.063 0s-0.063 0-0.125 0c0 0 0 0-0.063 0l-30.938 6.375c-0.25 0.063-0.375 0.25-0.438 0.438 0 0.25 0.063 0.438 0.313 0.563l8.813 4.688 1.563 8.625c0 0.063 0 0.063 0 0.125 0 0 0 0.063 0 0.063 0.063 0.063 0.063 0.063 0.063 0.125 0 0 0 0.063 0 0.063s0.063 0 0.063 0c0 0.063 0.063 0.063 0.063 0.125 0.063 0 0.063 0 0.063 0s0.063 0.063 0.125 0.063c0.063 0 0.125 0 0.188 0 0.125 0 0.313-0.063 0.375-0.125l5.938-3.938 6.188 4c0.063 0.063 0.188 0.063 0.25 0.063s0.125 0 0.188 0c0.125-0.063 0.25-0.188 0.313-0.313l7.438-20.25c0.063 0 0.063-0.063 0.063-0.063s0 0 0-0.063zM25.813 9.375l-12.75 9.375c-0.063 0-0.063 0.063-0.063 0.063s-0.063 0-0.063 0c0 0.063 0 0.063 0 0.063s0 0-0.063 0.063c0 0 0 0.063 0 0.063s0 0 0 0.063l-1.5 4.75-1.188-6.438zM12.188 24.813l1.5-4.813 2.25 1.5 0.625 0.438zM27.75 7.188l-18.125 9.25-7.5-3.938zM23.75 25.313l-9.438-6.125 16.063-11.813z"></path>
</svg>
