<!-- Generated by IcoMoon.io -->
<svg version="1.1" xmlns="http://www.w3.org/2000/svg" width="32" height="32" viewBox="0 0 32 32">
<title>urun</title>
<path d="M30.688 7.563c0-0.125 0-0.25-0.063-0.375-0.125-0.25-0.313-0.375-0.563-0.438l-13.75-6.688c-0.188-0.063-0.438-0.063-0.688 0l-13.875 6.75c-0.313 0.125-0.438 0.375-0.5 0.688 0 0 0 0.063 0 0.063v16.875c0 0.313 0.188 0.625 0.5 0.75l13.875 6.75c0 0 0.063 0 0.063 0s0 0 0.063 0c0 0 0 0 0.063 0.063 0 0 0.063 0 0.063 0 0.063 0 0.063 0 0.125 0 0 0 0.063 0 0.063 0 0.063 0 0.063 0 0.063 0 0.063 0 0.063 0 0.063 0 0-0.063 0-0.063 0.063-0.063s0.063 0 0.063 0l13.938-6.75c0.313-0.188 0.5-0.438 0.5-0.75v-16.875c-0.063 0-0.063 0-0.063 0zM16 1.688l12 5.875-4.438 2.125-12-5.813zM16 13.375l-12.063-5.813 5.75-2.813 12.063 5.875zM2.875 8.875l12.313 5.938v15.063l-12.313-5.938zM16.813 29.875v-15.063l5.75-2.813v3.938c0 0.438 0.375 0.813 0.813 0.813s0.813-0.375 0.813-0.813v-4.75l4.938-2.375v15.125z"></path>
</svg>
