<!-- Generated by IcoMoon.io -->
<svg version="1.1" xmlns="http://www.w3.org/2000/svg" width="32" height="32" viewBox="0 0 32 32">
<title>video</title>
<path d="M29.875 8c-4.438-7.625-14.25-10.25-21.875-5.875-7.625 4.438-10.25 14.25-5.875 21.875 4.438 7.688 14.25 10.25 21.875 5.875 7.688-4.438 10.25-14.25 5.875-21.875zM22.375 27.063c-6.063 3.563-13.938 1.438-17.438-4.688-3.563-6.063-1.438-13.938 4.688-17.438 6.125-3.563 13.938-1.438 17.438 4.688 3.563 6.125 1.438 13.938-4.688 17.438zM21.75 15.375l-8.375-4.938c-0.75-0.438-1.375-0.063-1.375 0.813l0.063 9.688c0 0.875 0.625 1.25 1.375 0.813l8.313-4.813c0.75-0.438 0.75-1.125 0-1.563z"></path>
</svg>
