<!-- Generated by IcoMoon.io -->
<svg version="1.1" xmlns="http://www.w3.org/2000/svg" width="32" height="32" viewBox="0 0 32 32">
<title>whatsapp</title>
<path d="M31.688 15.438c0 8.5-7 15.375-15.563 15.375-2.75 0-5.313-0.688-7.5-1.875l-8.625 2.75 2.813-8.313c-1.438-2.313-2.25-5.063-2.25-7.938 0-8.563 7-15.438 15.563-15.438s15.563 6.875 15.563 15.438zM16.125 2.438c-7.188 0-13.063 5.813-13.063 13 0 2.813 0.938 5.438 2.5 7.563l-1.625 4.813 5-1.563c2.063 1.375 4.5 2.125 7.188 2.125 7.188 0 13.063-5.813 13.063-12.938 0-7.188-5.875-13-13.063-13zM23.938 19c-0.063-0.188-0.313-0.25-0.688-0.438-0.375-0.25-2.25-1.125-2.625-1.25s-0.625-0.188-0.875 0.188c-0.25 0.375-0.938 1.25-1.188 1.5s-0.438 0.25-0.813 0.063c-0.375-0.188-1.625-0.563-3.063-1.875-1.125-1-1.938-2.25-2.125-2.625-0.25-0.375 0-0.563 0.188-0.75 0.125-0.188 0.375-0.438 0.563-0.688 0.188-0.188 0.25-0.375 0.375-0.625s0.063-0.438-0.063-0.625c-0.063-0.188-0.813-2.063-1.125-2.813-0.375-0.75-0.688-0.625-0.875-0.625-0.25 0-0.5-0.063-0.75-0.063s-0.688 0.125-1 0.5c-0.375 0.375-1.313 1.25-1.313 3.125s1.313 3.688 1.5 3.938c0.25 0.25 2.688 4.188 6.563 5.688s3.875 1 4.563 0.938c0.688-0.063 2.25-0.875 2.563-1.813 0.313-0.875 0.313-1.625 0.188-1.75z"></path>
</svg>
