<!-- Generated by IcoMoon.io -->
<svg version="1.1" xmlns="http://www.w3.org/2000/svg" width="32" height="32" viewBox="0 0 32 32">
<title>yildiz</title>
<path d="M31.313 14.563c0.625-0.625 0.875-1.5 0.563-2.375-0.25-0.813-1-1.438-1.813-1.563l-7.75-1.125c-0.375 0-0.625-0.25-0.813-0.5l-3.438-7.063c-0.375-0.75-1.188-1.25-2.063-1.25s-1.688 0.5-2.063 1.25l-3.438 7.063c-0.188 0.25-0.438 0.5-0.813 0.5l-7.75 1.125c-0.813 0.125-1.563 0.75-1.813 1.563-0.313 0.875-0.063 1.75 0.563 2.375l5.625 5.438c0.25 0.25 0.313 0.625 0.25 0.938l-1.313 7.688c-0.125 0.688 0.063 1.375 0.5 1.875 0.688 0.813 1.875 1.063 2.875 0.563l6.875-3.625c0.313-0.188 0.688-0.188 1 0l6.875 3.625c0.375 0.188 0.75 0.25 1.125 0.25 0.625 0 1.313-0.313 1.75-0.813s0.625-1.188 0.5-1.875l-1.313-7.688c-0.063-0.313 0-0.688 0.25-0.938z"></path>
</svg>
