<!-- Generated by IcoMoon.io -->
<svg version="1.1" xmlns="http://www.w3.org/2000/svg" width="32" height="32" viewBox="0 0 32 32">
<title>yorum</title>
<path d="M16 0.813c-8.813 0-16 6.438-16 14.375 0 2.813 0.875 5.5 2.563 7.813-0.313 3.5-1.188 6.063-2.375 7.313-0.188 0.125-0.25 0.375-0.125 0.563 0.063 0.188 0.25 0.313 0.5 0.313 0 0 0 0 0.063 0 0.188 0 5.188-0.75 8.875-2.813 2.063 0.813 4.25 1.25 6.5 1.25 8.813 0 16-6.5 16-14.438s-7.188-14.375-16-14.375zM8.563 17.313c-1.188 0-2.188-0.938-2.188-2.125s1-2.125 2.188-2.125c1.125 0 2.125 0.938 2.125 2.125s-1 2.125-2.125 2.125zM16 17.313c-1.188 0-2.125-0.938-2.125-2.125s0.938-2.125 2.125-2.125c1.188 0 2.125 0.938 2.125 2.125s-0.938 2.125-2.125 2.125zM23.438 17.313c-1.125 0-2.125-0.938-2.125-2.125s1-2.125 2.125-2.125c1.188 0 2.188 0.938 2.188 2.125s-1 2.125-2.188 2.125z"></path>
</svg>
