<!-- Generated by IcoMoon.io -->
<svg version="1.1" xmlns="http://www.w3.org/2000/svg" width="32" height="32" viewBox="0 0 32 32">
<title>yorumyaz</title>
<path d="M19.813 14.063l1.5 0.875 3-1.688-4.5-2.688zM28.875 8.625l1.063-1.938c0.875-1.5-1.563-3.188-2.75-3.813-1.188-0.688-3.875-2.063-4.75-0.438l-1.438 2.563c-1.5-0.313-3.25-0.563-4.938-0.563-8.875 0-16.063 4.813-16.063 10.688 0 5.938 7.188 10.75 16.063 10.75 0 0 0 0 0.063 0 0.125 1.25-1.375 3.375-3.5 4.438 8.438 0 12.313-6.313 12.313-6.313 4.25-1.875 7.063-5.125 7.063-8.875 0.188-2.438-1.063-4.688-3.125-6.5zM7.375 18.125c-0.875 0-1.5-0.625-1.5-1.5 0-0.813 0.625-1.5 1.5-1.5s1.5 0.688 1.5 1.5c0 0.875-0.75 1.5-1.5 1.5zM11.313 18.125c-0.813 0-1.5-0.625-1.5-1.5 0-0.813 0.688-1.5 1.5-1.5 0.875 0 1.5 0.688 1.5 1.5 0 0.875-0.625 1.5-1.5 1.5zM15.313 18.125c-0.875 0-1.5-0.625-1.5-1.5 0-0.813 0.625-1.5 1.5-1.5 0.813 0 1.5 0.688 1.5 1.5 0 0.875-0.688 1.5-1.5 1.5zM24.813 13.563l-3.125 1.688-2.563 1.375v-6.375l4.313-7.375c0.188-0.438 1.688 0 3.313 0.813 1.625 0.875 2.688 1.938 2.375 2.375z"></path>
</svg>
