<svg version="1.1" xmlns="http://www.w3.org/2000/svg" xmlns:xlink="http://www.w3.org/1999/xlink" viewBox="0 0 32 32" style="display:none"><symbol id="safiricon-alinti" viewBox="0 0 32 32"> <path d="M30.75 9.75c-0.875-1.938-2-3.625-3.438-5.063s-3.125-2.563-5.063-3.438c-2-0.813-4.063-1.25-6.25-1.25-1.5 0-2.875 0.188-4.25 0.563s-2.625 0.938-3.813 1.625c-1.188 0.688-2.25 1.5-3.25 2.5s-1.813 2.063-2.5 3.25c-0.688 1.188-1.25 2.438-1.625 3.813s-0.563 2.75-0.563 4.25c0 1.5 0.188 2.875 0.563 4.25s0.938 2.625 1.625 3.813c0.688 1.188 1.5 2.25 2.5 3.25s2.063 1.813 3.25 2.5c1.188 0.688 2.438 1.25 3.813 1.625s2.75 0.563 4.25 0.563c1.5 0 2.875-0.188 4.25-0.563s2.625-0.938 3.813-1.625c1.188-0.688 2.25-1.5 3.25-2.5s1.813-2.063 2.5-3.25c0.688-1.188 1.25-2.438 1.625-3.813s0.563-2.75 0.563-4.25c0-2.188-0.438-4.25-1.25-6.25zM15.5 11.125c-0.063 0.125-0.188 0.188-0.313 0.188-2.188 0.313-3.313 1.375-3.313 3.063h1.938c0.375 0 0.5 0.188 0.5 0.5v7.375c0 0.313-0.125 0.5-0.5 0.5h-6.125c-0.375 0-0.5-0.188-0.5-0.5v-6.375c0-5 2.438-7.625 7.313-7.938 0.125 0 0.25 0.063 0.375 0.125 0.063 0.063 0.125 0.188 0.188 0.313l0.5 2.375c0.063 0.125 0.063 0.25-0.063 0.375zM25 11.125c-0.063 0.125-0.188 0.188-0.375 0.188-2.125 0.313-3.25 1.375-3.25 3.063h1.938c0.125 0 0.25 0.063 0.375 0.125 0.125 0.125 0.125 0.25 0.125 0.375v7.375c0 0.125 0 0.25-0.125 0.375-0.125 0.063-0.25 0.125-0.375 0.125h-6.125c-0.125 0-0.25-0.063-0.375-0.125-0.125-0.125-0.188-0.25-0.188-0.375v-6.375c0-5 2.5-7.625 7.438-7.938 0.125 0 0.188 0.063 0.313 0.125 0.063 0.063 0.188 0.188 0.188 0.313l0.5 2.375c0.063 0.125 0.063 0.25-0.063 0.375z"></path> </symbol><symbol id="safiricon-anlasma" viewBox="0 0 32 32"> <path d="M22.125 2.313c-0.813-0.75-2.063-0.75-2.813 0l-0.438 0.438c-0.75 0.75-0.75 2.063 0 2.813l0.063 0.063c-0.625 0.375-1.563 1-2.625 1.688-0.938-1.188-2.125-2.25-2.688-2.75 0.188-0.625 0-1.313-0.5-1.813l-0.438-0.438c-0.75-0.75-2-0.75-2.813 0l-9.313 9.375c-0.75 0.75-0.75 2 0 2.813l0.438 0.375c0.625 0.625 1.5 0.75 2.25 0.438 0.375 0.5 1.375 1.875 2.563 3.438-0.625 0.75-1.75 2.063-1.813 3.375 0 0.688 0.25 1.313 0.688 1.75 1.438 1.438 5.75 5.75 5.75 5.75l0.125 0.063c0.063 0.063 0.75 0.563 1.938 0.563 1 0 2.25-0.313 3.688-1.563 0.313 0.25 0.5 0.375 0.563 0.375 0.125 0.125 1.125 0.688 2.25 0.688 0.375 0 0.75-0.063 1.125-0.188 0.5-0.25 1.063-0.688 1.375-1.688 0.875-0.25 1.875-0.938 2.313-2.188 0.938-0.25 2-0.875 2.313-2.188 0.938-0.125 2-0.625 2.375-2 0.313-1 0-1.875-0.438-2.563 0.688-0.75 1.563-1.938 1.688-3.5 0.5 0 0.938-0.188 1.25-0.563l0.438-0.375c0.75-0.813 0.75-2.063 0-2.813zM27.75 14.438c0.25 1.313-0.5 2.438-1.125 3.063l-5.375-5.063-0.625 0.5c-1.375 0.938-3.125 0.125-3.125 0.125l-0.563-0.313-0.563 0.375c0 0.063-1.625 1.313-3.75 1.5-0.188 0-0.313 0-0.438 0-0.563 0-0.75-0.063-0.75-0.063-0.063-0.188 0.188-0.875 0.875-1.75 0.813-1 5.25-3.938 8.063-5.75zM7.75 21.125l-1.438 1.563c-0.063-0.063-0.125-0.125-0.188-0.25-0.063-0.063-0.125-0.125-0.125-0.25 0-0.5 0.563-1.25 1.125-1.875 0.188 0.313 0.438 0.563 0.625 0.813zM10.688 27.063c-0.188-0.188-0.438-0.438-0.688-0.688l1.438-1.5c0.25 0.188 0.5 0.438 0.75 0.625zM8.625 25c-0.313-0.313-0.625-0.625-0.875-0.875l1.375-1.5c0.188 0.188 0.375 0.375 0.563 0.563 0.125 0.125 0.188 0.188 0.313 0.313zM12.375 28.25l1.375-1.438c0.25 0.188 0.563 0.438 0.813 0.625-0.938 0.688-1.688 0.813-2.188 0.813zM26.563 20.938c-0.125 0.5-0.563 0.563-0.875 0.563l-5.563-5.25-1.375 1.438 5.5 5.188c-0.125 0.563-0.563 0.813-0.875 0.875l-5.563-5.25-1.375 1.438 5.438 5.188c-0.188 0.438-0.563 0.688-0.875 0.813l-5.438-5.125-1.375 1.438 5.375 5.125c-0.063 0.188-0.125 0.313-0.25 0.313-0.375 0.188-1.125-0.063-1.5-0.25 0-0.063-3.688-2.625-6.688-5.625-2.813-2.875-5.938-7.25-6.375-7.875l7.75-7.75c0.5 0.5 1.438 1.375 2.125 2.25-1.688 1.188-3.25 2.438-3.813 3.125-0.625 0.688-1.875 2.5-1.125 3.938 0.438 0.875 1.5 1.25 3.125 1.125 2-0.188 3.563-1.063 4.375-1.563 0.813 0.25 2.313 0.625 3.875-0.063l5.313 4.938c0.188 0.313 0.313 0.625 0.188 1z"></path> </symbol><symbol id="safiricon-arti" viewBox="0 0 32 32"> <path d="M29.813 7.938c-1.438-2.438-3.375-4.375-5.813-5.813s-5.125-2.125-8-2.125c-2.938 0-5.563 0.688-8.063 2.125-2.438 1.438-4.375 3.375-5.813 5.813-1.438 2.5-2.125 5.125-2.125 8.063 0 2.875 0.688 5.563 2.125 8s3.375 4.375 5.813 5.813c2.5 1.438 5.125 2.125 8.063 2.125 2.875 0 5.563-0.688 8-2.125s4.375-3.375 5.813-5.813c1.438-2.438 2.125-5.125 2.125-8 0-2.938-0.688-5.563-2.125-8.063zM25.313 17.313c0 0.375-0.125 0.688-0.375 0.938-0.313 0.25-0.625 0.375-0.938 0.375h-5.375v5.375c0 0.313-0.125 0.625-0.375 0.938-0.25 0.25-0.563 0.375-0.938 0.375h-2.688c-0.313 0-0.625-0.125-0.938-0.375-0.25-0.313-0.375-0.625-0.375-0.938v-5.375h-5.313c-0.375 0-0.688-0.125-0.938-0.375s-0.375-0.563-0.375-0.938v-2.688c0-0.313 0.125-0.625 0.375-0.938 0.25-0.25 0.563-0.375 0.938-0.375h5.313v-5.313c0-0.375 0.125-0.688 0.375-0.938 0.313-0.25 0.625-0.375 0.938-0.375h2.688c0.375 0 0.688 0.125 0.938 0.375s0.375 0.563 0.375 0.938v5.313h5.375c0.313 0 0.625 0.125 0.938 0.375 0.25 0.313 0.375 0.625 0.375 0.938z"></path> </symbol><symbol id="safiricon-basari" viewBox="0 0 32 32"> <path d="M27.813 14.438l-1.563-2.125c-0.125-0.125-0.125-0.313 0-0.5l1.5-2.125c0.125-0.188 0.063-0.5-0.125-0.563l-2.313-1.25c-0.188-0.125-0.25-0.25-0.25-0.438l0.438-2.625c0.063-0.25-0.125-0.438-0.375-0.438l-2.625-0.125c-0.188 0-0.313-0.125-0.375-0.313l-0.688-2.5c-0.125-0.25-0.375-0.375-0.563-0.313l-2.438 1.063c-0.188 0.063-0.375 0.063-0.438-0.063l-1.813-2c-0.125-0.188-0.438-0.188-0.563 0l-1.75 2c-0.125 0.125-0.313 0.188-0.438 0.125l-2.5-1c-0.188-0.125-0.438 0-0.5 0.25l-0.688 2.563c-0.063 0.125-0.188 0.25-0.375 0.25l-2.625 0.188c-0.25 0-0.438 0.25-0.375 0.438l0.438 2.625c0.063 0.188-0.063 0.313-0.188 0.438l-2.313 1.25c-0.188 0.125-0.25 0.438-0.125 0.625l1.563 2.125c0.125 0.125 0.125 0.313 0 0.438l-1.5 2.188c-0.188 0.188-0.063 0.438 0.125 0.563l2.313 1.25c0.188 0.063 0.25 0.25 0.188 0.438l-0.438 2.563c0 0.25 0.188 0.5 0.438 0.5l2.625 0.125c0.188 0 0.313 0.125 0.375 0.25l0.75 2.563c0.063 0.25 0.313 0.375 0.5 0.25l2.438-1.063c0.188-0.063 0.375 0 0.438 0.125l1.813 1.938c0.125 0.188 0.438 0.188 0.563 0l1.75-2c0.125-0.125 0.313-0.125 0.438-0.063l2.5 1c0.188 0.063 0.438-0.063 0.5-0.25l0.688-2.563c0.063-0.188 0.188-0.313 0.375-0.313l2.625-0.125c0.25 0 0.438-0.25 0.375-0.5l-0.438-2.563c-0.063-0.188 0.063-0.375 0.188-0.438l2.313-1.313c0.188-0.063 0.25-0.375 0.125-0.563zM16 19.313c-3.938 0-7.188-3.188-7.188-7.188 0-3.938 3.25-7.188 7.188-7.188s7.188 3.25 7.188 7.188c0 4-3.25 7.188-7.188 7.188zM22.5 24c-0.375 0.375-0.938 0.563-1.5 0.563-0.188 0-0.438 0-0.625-0.063l-1.688-0.5-1.25 1.188c-0.063 0.063-0.125 0.063-0.188 0.125l2.125 6.5c0.063 0.188 0.375 0.25 0.5 0.063l1.563-1.938c0.063-0.125 0.188-0.125 0.313-0.125l2.375 0.688c0.188 0.063 0.438-0.125 0.375-0.375zM13.313 24l-1.688 0.5c-0.188 0.063-0.375 0.063-0.625 0.063-0.563 0-1.063-0.188-1.438-0.563l-2 6.125c-0.063 0.25 0.125 0.438 0.375 0.375l2.375-0.688c0.063 0 0.188 0 0.313 0.125l1.5 1.938c0.125 0.188 0.438 0.125 0.5-0.063l2.125-6.5c-0.063-0.063-0.125-0.063-0.125-0.125zM20.25 10.375l-2.688-0.188-1-2.563c-0.188-0.438-0.875-0.438-1.063 0l-1.063 2.563-2.688 0.188c-0.5 0-0.688 0.688-0.313 1l2.063 1.75-0.625 2.625c-0.125 0.5 0.375 0.875 0.813 0.625l2.313-1.438 2.313 1.438c0.438 0.25 1-0.125 0.875-0.625l-0.688-2.625 2.063-1.75c0.438-0.313 0.188-1-0.313-1z"></path> </symbol><symbol id="safiricon-bina" viewBox="0 0 32 32"> <path d="M3.188 23.438c-0.313 0-0.5 0.25-0.5 0.563v1.063c0 0.313 0.188 0.563 0.5 0.563s0.563-0.25 0.563-0.563v-1.063c0-0.313-0.25-0.563-0.563-0.563zM3.188 26.688c-0.313 0-0.5 0.188-0.5 0.5v1.063c0 0.313 0.188 0.563 0.5 0.563s0.563-0.25 0.563-0.563v-1.063c0-0.313-0.25-0.5-0.563-0.5zM3.188 20.25c-0.313 0-0.5 0.25-0.5 0.563v1.063c0 0.313 0.188 0.5 0.5 0.5s0.563-0.188 0.563-0.5v-1.063c0-0.313-0.25-0.563-0.563-0.563zM5.313 23.438c-0.25 0-0.5 0.25-0.5 0.563v1.063c0 0.313 0.25 0.563 0.5 0.563 0.313 0 0.563-0.25 0.563-0.563v-1.063c0-0.313-0.25-0.563-0.563-0.563zM5.313 20.25c-0.25 0-0.5 0.25-0.5 0.563v1.063c0 0.313 0.25 0.5 0.5 0.5 0.313 0 0.563-0.188 0.563-0.5v-1.063c0-0.313-0.25-0.563-0.563-0.563zM5.313 26.688c-0.25 0-0.5 0.188-0.5 0.5v1.063c0 0.313 0.25 0.563 0.5 0.563 0.313 0 0.563-0.25 0.563-0.563v-1.063c0-0.313-0.25-0.5-0.563-0.5zM30.938 5.875h-1.063v-1.625c0-0.25-0.25-0.5-0.563-0.5h-3.188c-0.313 0-0.5 0.25-0.5 0.5v1.625h-1.063c-0.313 0-0.563 0.25-0.563 0.5v8.563h-0.563v-1.625c0-0.25-0.188-0.5-0.5-0.5h-0.563v-0.563c0-0.25-0.188-0.5-0.5-0.5s-0.563 0.25-0.563 0.5v0.563h-0.5c-0.313 0-0.563 0.25-0.563 0.5v1.625h-1.563v-10.688c0-0.25-0.25-0.5-0.563-0.5h-1.563v-3.188c0-0.313-0.25-0.563-0.563-0.563h-6.375c-0.313 0-0.563 0.25-0.563 0.563v3.188h-1.625c-0.25 0-0.5 0.25-0.5 0.5v13.875h-1.063v-1.563c0-0.313-0.25-0.563-0.563-0.563h-3.188c-0.313 0-0.5 0.25-0.5 0.563v1.563h-0.563c-0.313 0-0.5 0.25-0.5 0.563v12.75c0 0.313 0.188 0.563 0.5 0.563h29.875c0.313 0 0.5-0.25 0.5-0.563v-25.063c0-0.25-0.188-0.5-0.5-0.5zM15.438 6.375c0-0.25 0.25-0.5 0.563-0.5s0.563 0.25 0.563 0.5v8.563h-1.125zM13.313 2.688c0-0.313 0.25-0.563 0.563-0.563s0.5 0.25 0.5 0.563v1.563c0 0.313-0.188 0.563-0.5 0.563s-0.563-0.25-0.563-0.563zM13.313 6.375c0-0.25 0.25-0.5 0.563-0.5s0.5 0.25 0.5 0.5v8.563h-1.063zM11.188 2.688c0-0.313 0.25-0.563 0.563-0.563 0.25 0 0.5 0.25 0.5 0.563v1.563c0 0.313-0.25 0.563-0.5 0.563-0.313 0-0.563-0.25-0.563-0.563zM9.063 6.375c0-0.25 0.25-0.5 0.563-0.5 0.25 0 0.5 0.25 0.5 0.5v11.75h-1.063zM11.188 29.875h-1.563c-0.313 0-0.563-0.25-0.563-0.563 0-0.25 0.25-0.5 0.563-0.5h1.563zM11.188 27.75h-1.563c-0.313 0-0.563-0.25-0.563-0.563s0.25-0.5 0.563-0.5h1.563zM11.188 25.625h-1.563c-0.313 0-0.563-0.25-0.563-0.563s0.25-0.5 0.563-0.5h1.563zM11.188 23.438h-1.563c-0.313 0-0.563-0.188-0.563-0.5s0.25-0.563 0.563-0.563h1.563zM11.188 20.25h-3.75c-0.25 0-0.5 0.25-0.5 0.563v10.125h-5.313v-11.75h9.563zM11.188 15.438v-9.063c0-0.25 0.25-0.5 0.563-0.5 0.25 0 0.5 0.25 0.5 0.5v8.563h-0.5c-0.313 0-0.563 0.25-0.563 0.5zM24 30.938h-1.063v-13.313c0-0.313-0.25-0.563-0.563-0.563-0.25 0-0.5 0.25-0.5 0.563v13.313h-1.063v-13.313c0-0.313-0.25-0.563-0.563-0.563-0.25 0-0.5 0.25-0.5 0.563v13.313h-1.063v-13.313c0-0.313-0.25-0.563-0.563-0.563s-0.5 0.25-0.5 0.563v13.313h-1.063v-13.313c0-0.313-0.25-0.563-0.563-0.563s-0.563 0.25-0.563 0.563v13.313h-1.063v-13.313c0-0.313-0.188-0.563-0.5-0.563s-0.563 0.25-0.563 0.563v13.313h-1.063v-14.938h11.75zM27.188 28.875c0 0.313-0.25 0.563-0.5 0.563-0.313 0-0.563-0.25-0.563-0.563v-1.063c0-0.25 0.25-0.5 0.563-0.5 0.25 0 0.5 0.25 0.5 0.5zM27.188 25.688c0 0.313-0.25 0.563-0.5 0.563-0.313 0-0.563-0.25-0.563-0.563v-1.063c0-0.313 0.25-0.5 0.563-0.5 0.25 0 0.5 0.188 0.5 0.5zM27.188 22.5c0 0.313-0.25 0.563-0.5 0.563-0.313 0-0.563-0.25-0.563-0.563v-1.063c0-0.313 0.25-0.563 0.563-0.563 0.25 0 0.5 0.25 0.5 0.563zM27.188 19.313c0 0.313-0.25 0.5-0.5 0.5-0.313 0-0.563-0.188-0.563-0.5v-1.063c0-0.313 0.25-0.563 0.563-0.563 0.25 0 0.5 0.25 0.5 0.563zM27.188 16.125c0 0.25-0.25 0.5-0.5 0.5-0.313 0-0.563-0.25-0.563-0.5v-1.063c0-0.313 0.25-0.563 0.563-0.563 0.25 0 0.5 0.25 0.5 0.563zM27.188 12.875c0 0.313-0.25 0.563-0.5 0.563-0.313 0-0.563-0.25-0.563-0.563v-1.063c0-0.25 0.25-0.5 0.563-0.5 0.25 0 0.5 0.25 0.5 0.5zM27.188 9.688c0 0.313-0.25 0.563-0.5 0.563-0.313 0-0.563-0.25-0.563-0.563v-1.063c0-0.313 0.25-0.5 0.563-0.5 0.25 0 0.5 0.188 0.5 0.5zM29.313 28.875c0 0.313-0.188 0.563-0.5 0.563s-0.563-0.25-0.563-0.563v-1.063c0-0.25 0.25-0.5 0.563-0.5s0.5 0.25 0.5 0.5zM29.313 25.688c0 0.313-0.188 0.563-0.5 0.563s-0.563-0.25-0.563-0.563v-1.063c0-0.313 0.25-0.5 0.563-0.5s0.5 0.188 0.5 0.5zM29.313 22.5c0 0.313-0.188 0.563-0.5 0.563s-0.563-0.25-0.563-0.563v-1.063c0-0.313 0.25-0.563 0.563-0.563s0.5 0.25 0.5 0.563zM29.313 19.313c0 0.313-0.188 0.5-0.5 0.5s-0.563-0.188-0.563-0.5v-1.063c0-0.313 0.25-0.563 0.563-0.563s0.5 0.25 0.5 0.563zM29.313 16.125c0 0.25-0.188 0.5-0.5 0.5s-0.563-0.25-0.563-0.5v-1.063c0-0.313 0.25-0.563 0.563-0.563s0.5 0.25 0.5 0.563zM29.313 12.875c0 0.313-0.188 0.563-0.5 0.563s-0.563-0.25-0.563-0.563v-1.063c0-0.25 0.25-0.5 0.563-0.5s0.5 0.25 0.5 0.5zM29.313 9.688c0 0.313-0.188 0.563-0.5 0.563s-0.563-0.25-0.563-0.563v-1.063c0-0.313 0.25-0.5 0.563-0.5s0.5 0.188 0.5 0.5z"></path> </symbol><symbol id="safiricon-buyutec" viewBox="0 0 32 32"> <path d="M31 29.125l-7.625-7.875c1.938-2.375 3-5.25 3-8.313 0-7.125-5.75-12.938-12.875-12.938s-12.938 5.813-12.938 12.938c0 7.125 5.813 12.875 12.938 12.875 2.625 0 5.188-0.75 7.375-2.313l7.688 8c0.313 0.313 0.75 0.5 1.188 0.5s0.875-0.188 1.188-0.5c0.688-0.625 0.688-1.688 0.063-2.375zM13.5 3.375c5.25 0 9.5 4.25 9.5 9.563 0 5.25-4.25 9.563-9.5 9.563-5.313 0-9.563-4.313-9.563-9.563 0-5.313 4.25-9.563 9.563-9.563z"></path> </symbol><symbol id="safiricon-canta" viewBox="0 0 32 32"> <path d="M32 25.563v-9.375c0-1.125-0.375-1.125-1.188-0.438-1.688 1.438-5.625 3.313-14.813 3.375 0.063 0 0.125 0 0.188 0h-0.375c0.063 0 0.125 0 0.188 0-9.188-0.063-13.125-1.938-14.813-3.375-0.813-0.688-1.188-0.688-1.188 0.438v9.375c0 0-0.25 4.375 4.313 4.375h23.375c4.563 0 4.313-4.375 4.313-4.375zM19.125 23.5c0 1.188-0.938 2.063-2.125 2.063h-2.125c-1.188 0-2.125-0.875-2.125-2.063 0-0.438 0-0.813 0-1.125 0-0.625 0.875-1.125 2-1.125h2.438c1.125 0 2 0.5 1.938 1.125 0 0.313 0 0.688 0 1.125zM27.625 6.375l-2.188-0.063c-1.125 0-1.938-1-2.438-2-1-2.375-3.75-2.25-3.75-2.25h-6.5c-2.188 0-3.188 1.188-3.75 2.313-0.438 1.063-1.375 2-2.5 2h-2.25c-4.313 0-4.25 4.25-4.25 4.25v1.063c0 0.563 0.75 1.625 1.75 2.125 2.313 1.313 7.063 3.25 14.188 3.25 8.188 0 12.5-1.938 14.5-3.25 0.938-0.625 1.563-1.75 1.563-2.25s0-0.938 0-0.938c0-4.5-4.375-4.25-4.375-4.25zM17.375 12.75h-2.563c-1.125 0-2.188-0.938-1.5-1.563 0.313-0.313 0.813-0.563 1.625-0.563h2.375c0.75 0 1.25 0.25 1.563 0.563 0.688 0.625-0.375 1.563-1.5 1.563zM19.313 6.313h-6.625c-1.125 0-1.938-0.688-1.438-1.438 0.625-0.938 2.375-0.75 3.5-0.75h4.438c0.75 0 1.25 0.25 1.563 0.563 0.688 0.688-0.313 1.625-1.438 1.625z"></path> </symbol><symbol id="safiricon-cuzdan" viewBox="0 0 32 32"> <path d="M7.5 6.5l12.75-3.5-0.688-1.375c-0.438-0.875-1.563-1.25-2.438-0.813l-11.375 5.688zM24.188 3.125c-0.188 0-0.313 0-0.5 0.063l-3 0.813-9.125 2.5h14.938l-0.563-2.063c-0.25-0.813-0.938-1.313-1.75-1.313zM28.375 7.75h-26.563c-0.563 0-1.063 0.25-1.438 0.688-0.125 0.188-0.25 0.375-0.313 0.625-0.063 0.125-0.063 0.313-0.063 0.5v20c0 1 0.813 1.75 1.813 1.75h26.5c1 0 1.813-0.75 1.813-1.75v-5h-10.625c-1.688 0-3.063-1.375-3.063-3.063v-4c0-0.813 0.313-1.563 0.875-2.125 0.438-0.5 1.063-0.813 1.813-0.938 0.125 0 0.25 0 0.375 0h10.625v-4.875c0-1-0.813-1.813-1.75-1.813zM31.375 16.188c-0.188-0.188-0.375-0.313-0.625-0.375-0.188-0.063-0.375-0.125-0.563-0.125h-10.688c-1 0-1.813 0.813-1.813 1.813v4c0 1 0.813 1.75 1.813 1.75h10.688c0.188 0 0.375 0 0.563-0.063 0.25-0.063 0.438-0.188 0.625-0.375 0.375-0.313 0.625-0.813 0.625-1.313v-4c0-0.563-0.25-1-0.625-1.313zM23.25 19.813c0 0.5-0.438 0.938-0.938 0.938h-0.563c-0.5 0-0.938-0.438-0.938-0.938v-0.563c0-0.313 0.188-0.563 0.375-0.688 0.125-0.125 0.313-0.188 0.563-0.188h0.563c0.5 0 0.938 0.375 0.938 0.875z"></path> </symbol><symbol id="safiricon-destek" viewBox="0 0 32 32"> <path d="M9.813 14.25c1.5 3.25 4.625 4.625 6.188 4.625 1 0 2.75-0.563 4.188-1.938-0.5 0.063-1.125 0.063-1.688 0.063-0.188 0-0.313 0-0.5 0-0.313 0.25-0.688 0.375-1.063 0.375h-1.313c-1 0-1.75-0.813-1.75-1.75 0-1 0.75-1.813 1.75-1.813h1.313c0.438 0 0.938 0.188 1.25 0.5 0.063 0 0.188 0 0.313 0 1.688 0 2.813-0.125 3.5-0.313-0.063-0.25-0.125-0.5-0.125-0.75v-4.563c0-0.438 0.188-0.875 0.438-1.25-0.125-1.25-0.438-2.188-0.875-2.938-0.875-1.438-2.625-2.125-5.438-2.125-2.313 0-3.938 0.5-4.938 1.5-0.75 0.75-1.188 1.875-1.438 3.563 0.313 0.313 0.5 0.813 0.5 1.25v4.563c0 0.375-0.125 0.688-0.313 1zM6.625 14.313h1.563c0.625 0 1.063-0.5 1.063-1.063v-4.563c0-0.375-0.188-0.688-0.5-0.875 0.313-3.75 1.75-6.313 7.25-6.313 3.125 0 5.125 0.813 6.188 2.563 0.625 1 0.938 2.313 1.063 3.75-0.313 0.188-0.5 0.5-0.5 0.875v4.563c0 0.5 0.313 0.938 0.813 1-0.688 0.5-2.125 0.938-5.063 0.938-0.25 0-0.5 0-0.75 0-0.188-0.313-0.438-0.5-0.813-0.5h-1.313c-0.5 0-0.938 0.375-0.938 0.938 0 0.5 0.438 0.875 0.938 0.875h1.313c0.313 0 0.563-0.125 0.75-0.375 0.25 0 0.5 0 0.813 0 3.313 0 5.438-0.563 6.313-1.688 0-0.063 0.063-0.063 0.063-0.125h0.5c0.563 0 1.063-0.5 1.063-1.063v-4.563c0-0.563-0.5-1.063-1.063-1.063h-0.625c-0.125-1.688-0.5-3.125-1.25-4.375-1.375-2.188-3.813-3.25-7.5-3.25s-6.125 1.063-7.5 3.25c-0.75 1.25-1.125 2.688-1.25 4.375h-0.625c-0.563 0-1.063 0.5-1.063 1.063v4.563c0 0.563 0.5 1.063 1.063 1.063zM28.875 27.563c-0.313-2.188-1.063-5-2.5-6-1-0.75-4.5-2.563-6-3.375h-0.063c-0.125-0.125-0.375-0.063-0.5 0-0.75 0.625-1.625 1.063-2.563 1.25-0.125 0.063-0.25 0.125-0.313 0.313l-0.938 2.438-0.938-2.438c-0.063-0.188-0.188-0.25-0.313-0.313-0.938-0.188-1.813-0.625-2.563-1.25-0.125-0.063-0.375-0.125-0.5 0-1.5 0.75-5.063 2.688-6.063 3.313-1.625 1.188-2.375 5.25-2.5 6.063-0.063 0.125 0 0.188 0 0.25 0.063 0.188 1.625 4.188 12.875 4.188s12.813-4 12.875-4.188c0-0.063 0.063-0.125 0-0.25zM23.625 25.063h-4.438v-0.938h4.438z"></path> </symbol><symbol id="safiricon-dunya" viewBox="0 0 32 32"> <path d="M28.188 11.375l0.25 0.188h0.25v-0.5l0.875-0.063 0.75 0.563h1.25l0.125-0.063c-0.125-0.438-0.313-0.875-0.438-1.25h-0.813l-0.438-0.5-0.063-0.688-0.438 0.188-0.25 0.938-0.625-0.688v-0.625l-0.625-0.5-0.188-0.188h-0.688l0.188 0.563 0.813 0.5 0.188 0.125-0.188 0.125v0.5l-0.438 0.125-0.313-0.063-0.25-0.313 0.563 0.063 0.188-0.25-1.25-0.813-0.125-0.375-0.5 0.5-0.5-0.125-0.75 1-0.188 0.438h-1.25l-0.438-0.188-0.125-0.875 0.188-0.438 0.75-0.125 0.813 0.125 0.063-0.438-0.313-0.063 0.125-0.75 0.813-0.125 0.563-0.813 0.625-0.063 0.5 0.063h0.25l-0.125-0.75-0.688 0.25-0.188-0.563-0.375-0.063-0.125-0.438 0.313-0.313 0.75-0.313 0.188-0.313c-2.813-2.5-6.5-4-10.563-4-3.5 0-6.75 1.125-9.375 3.063h0.813l0.313 0.188 0.688 0.125 0.063 0.313h1.063l-0.125-0.313-0.938-0.063 0.188-0.188-0.063-0.25h-0.875l0.938-0.688h0.938l0.438 0.563 0.688 0.063 0.438-0.438 0.313 0.188-0.625 0.563c0 0-0.813 0-0.75 0s0.063 0.563 0.063 0.563l1-0.063 0.125-0.25h0.625l0.125-0.438-0.438-0.063 0.125-0.375 0.313-0.063 1.063 0.063-0.563 0.5 0.125 0.438 0.563 0.063v-0.75l0.563-0.25 1.063-0.125 1.5 0.625v0.563l0.438 0.125-0.25 0.5h-0.625l-0.25 0.5-1.5-0.375 1.188-0.625-0.438-0.438-1.063 0.125-0.438 0.438-0.5 0.063 0.063 0.25 0.188 0.063v0.063l-0.438 0.063v0.25h-0.438l-0.063-0.438-0.688 0.188-1.438 0.875 0.188 0.563 0.375 0.25 0.813 0.125v0.938l0.375-0.063 0.313-0.75 0.875-0.25v-1.063l0.438-0.375 1.188 0.25-0.125 0.75h0.313l0.875-0.438v0.938l0.625 0.375v0.563l-0.625 0.188 0.063 0.188 0.688 0.313v0.438h-0.188l-0.938-0.313v-0.25l0.25-0.188v-0.25l-0.25-0.063-0.125 0.188-0.438 0.125-0.063-0.063v0.063h-0.188l-0.125-0.25-0.188-0.063h-0.313l-0.188 0.125v0.25l0.313 0.125 0.313 0.063h-0.063l-0.313 0.313-0.125-0.188-0.25-0.063-0.688 0.688 0.063 0.063-1 0.563-1 1.063-0.063 0.438-1 0.688-0.5 0.438 0.063 1-0.688-0.313v-0.563h-1.875l-1 0.5-0.375 0.75-0.188 0.625 0.25 0.625 0.813 0.063 1.188-0.813 0.125 0.438-0.375 0.688 0.938 0.188 0.063 1.438 1.313 0.188 0.813-0.938 1 0.188 0.313 0.5 0.938-0.063 0.063-0.25 0.5 0.25 0.563 0.875 1 0.063 0.375 0.625 0.063 0.813 1.125 0.438h1.438l0.375 0.688 0.625 0.188-0.125 0.563-0.688 0.875-0.188 1.938-0.625 0.438h-0.875l-0.313 0.5 0.188 1-1 1.313-0.313 0.563-0.938 0.438-0.625 0.125v0.25l0.438 0.125-0.063 0.313-0.375 0.375 0.188 0.313h0.5v0.375l-0.125 0.313-0.063 0.313 0.688 0.625-0.063 0.25h-1l-0.938-0.813-0.75-1.313 0.125-1.25-0.563-0.75 0.25-1.25-0.375-0.063v-2.75c0 0-0.875-0.75-0.938-0.75s-0.5-0.063-0.5-0.063l-0.125-0.563-1.188-1.5 0.125-0.563 0.063-0.875 0.813-0.563-0.125-1-1.25-0.125-0.938-1.063-0.688-0.188-0.438-0.125 0.063-0.375-0.563-0.063v0.188l-1.375-0.313-0.563-0.875 0.188-0.438-0.875-1.25-0.125-0.938h-0.375l0.125 0.875 0.625 0.938-0.063 0.375-0.563-0.063-0.625-1.063v-1.25l-0.625-0.375v-0.875c-0.813 1.938-1.313 4-1.313 6.25 0 8.813 7.188 16 16 16 5 0 9.5-2.313 12.438-5.938h-0.563v-1.063l-0.563-0.813v-1.25l-0.5-0.5-0.063-0.5 0.625-1.125-1.125-2 0.125-1.375-1-0.063-0.375-0.375h-0.688l-0.313 0.313h-1.25v0.125h-0.688l-1.5-1.75v-1.375l0.25-0.063 0.063-0.563h-0.313l-0.188-0.5 1.813-1.313v-0.875l0.813-0.5 0.375 0.063h0.688l0.563-0.313 1.813-0.125v0.875zM23.688 5.688l0.125-0.25 0.563-0.125 0.125 0.688 0.25 0.438 0.188 0.188 0.375 0.125-0.313 0.375-0.625 0.063h-0.5l0.063-0.5 0.375-0.125v-0.25l-0.375-0.188-0.25-0.188zM22.813 6.688l0.313-0.563 0.438-0.063 0.313 0.125v0.375l-0.688 0.438h-0.375zM14.125 8.625l-0.313 0.063v-0.25l0.125-0.188 0.25 0.125zM15.313 8.25h-0.25l-0.063 0.188-0.125 0.125-0.313 0.063c0-0.063 0-0.125 0-0.125h-0.125v-0.25h0.438l0.125-0.25h0.188l0.188 0.063z"></path> </symbol><symbol id="safiricon-duyuru" viewBox="0 0 32 32"> <path d="M9.438 8.125h-4.375c0 0-3.438 0.188-3.438 3.5v0.125c-0.75 0.5-1.25 1.313-1.25 2.25 0 1 0.5 1.813 1.25 2.313 0 0.438 0.125 3.813 3.313 3.813 0 0 1.313 0.063 1.25 2.188v8.375c0 0-0.25 1.313 1.125 1.313 0 0 3.938-0.563 1.938-4.563 1.5-1.563-0.625-2.438 0.25-4.938 0 0 1.125-1.563 1.125-2.438l0.063-10.688c0 0 0.188-1.25-1.25-1.25zM29.563 10.25v-9.75c0-1.25-1.063 0.188-1.063 0.188-5.125 7.938-15.625 7.313-15.625 7.313-1.25 0-1.063 1.063-1.063 1.063v9.188c0 1.063 1.125 1.063 1.125 1.063 11.75 0 15.813 7.438 15.813 7.438s0.938 1.125 0.875-0.063l-0.063-9.688c1.25-0.688 2.063-1.938 2.063-3.375s-0.875-2.688-2.063-3.375zM18 9c0 0 6.938-1 10.25-6.188 0 0-1.313 6.063-10.25 6.188zM30.875 14.688c0 0 0.375-1.625-1-3.563 0 0 1.813 1 1 3.563z"></path> </symbol><symbol id="safiricon-ev" viewBox="0 0 32 32"> <path d="M31.688 13l-15.188-11.125c-0.313-0.188-0.688-0.188-1 0l-15.188 11.125c-0.313 0.25-0.438 0.813-0.125 1.188 0.25 0.375 0.75 0.438 1.125 0.188l14.688-10.75 14.688 10.75c0.125 0.063 0.313 0.125 0.5 0.125 0.25 0 0.5-0.125 0.625-0.313 0.313-0.375 0.188-0.938-0.125-1.188zM27.625 14.563c-0.438 0-0.813 0.375-0.813 0.813v13.25h-6.625v-7.25c0-2.313-1.875-4.188-4.188-4.188s-4.188 1.875-4.188 4.188v7.25h-6.625v-13.25c0-0.438-0.375-0.813-0.813-0.813-0.5 0-0.875 0.375-0.875 0.813v14.063c0 0.438 0.375 0.813 0.875 0.813h8.313c0.438 0 0.813-0.313 0.813-0.75 0 0 0-0.063 0-0.063v-8.063c0-1.375 1.125-2.5 2.5-2.5s2.5 1.125 2.5 2.5v8.063c0 0 0 0.063 0 0.063 0 0.438 0.375 0.75 0.813 0.75h8.313c0.5 0 0.875-0.375 0.875-0.813v-14.063c0-0.438-0.375-0.813-0.875-0.813z"></path> </symbol><symbol id="safiricon-foto" viewBox="0 0 32 32"> <path d="M29.688 6.875h-8.5l-1.688-2.875c-0.188-0.25-0.5-0.438-0.813-0.438h-5.375c-0.313 0-0.625 0.188-0.813 0.438l-1.688 2.875h-2.813v-0.625c0-0.5-0.375-0.938-0.875-0.938h-3.438c-0.563 0-0.938 0.438-0.938 0.938v0.625h-0.438c-1.25 0-2.313 1.063-2.313 2.375v16.875c0 1.25 1.063 2.313 2.313 2.313h27.375c1.25 0 2.313-1.063 2.313-2.313v-16.875c0-1.313-1.063-2.375-2.313-2.375zM16 24.313c-3.688 0-6.625-3-6.625-6.625 0-3.688 2.938-6.688 6.625-6.688s6.625 3 6.625 6.688c0 3.625-2.938 6.625-6.625 6.625zM28.188 11.688h-2.875c-0.5 0-0.938-0.438-0.938-0.938s0.438-0.938 0.938-0.938h2.875c0.563 0 0.938 0.438 0.938 0.938s-0.375 0.938-0.938 0.938zM20.625 17.688c0 2.563-2.063 4.625-4.625 4.625s-4.625-2.063-4.625-4.625c0-2.563 2.063-4.688 4.625-4.688s4.625 2.125 4.625 4.688z"></path> </symbol><symbol id="safiricon-gazete" viewBox="0 0 32 32"> <path d="M31.188 2.938c-0.438 0-0.813 0.375-0.813 0.813v22c0 2.375-1.938 4.25-4.25 4.25h-20.25c-2.313 0-4.188-1.938-4.188-4.25v-23.75h24.25v21.375c0 0.438 0.375 0.813 0.813 0.813s0.813-0.375 0.813-0.813v-22.188c0-0.438-0.375-0.813-0.813-0.813h-25.938c-0.438 0-0.813 0.375-0.813 0.813v24.563c0 3.25 2.625 5.875 5.875 5.875h20.25c3.25 0 5.875-2.625 5.875-5.875v-22c0-0.438-0.375-0.813-0.813-0.813zM22.75 6.813c0.438 0 0.813-0.375 0.813-0.813 0-0.5-0.375-0.875-0.813-0.875h-18.063c-0.438 0-0.813 0.375-0.813 0.875 0 0.438 0.375 0.813 0.813 0.813zM22.75 22.063h-18.063c-0.438 0-0.813 0.375-0.813 0.813s0.375 0.813 0.813 0.813h18.063c0.438 0 0.813-0.375 0.813-0.813s-0.375-0.813-0.813-0.813zM22.75 26.313h-15.188c-0.5 0-0.875 0.375-0.875 0.813s0.375 0.813 0.875 0.813h15.188c0.438 0 0.813-0.375 0.813-0.813s-0.375-0.813-0.813-0.813zM3.563 9.688v9c0 0.438 0.375 0.813 0.813 0.813h9c0.5 0 0.875-0.375 0.875-0.813v-9c0-0.438-0.375-0.813-0.875-0.813h-9c-0.438 0-0.813 0.375-0.813 0.813zM5.25 10.5h7.313v7.313h-7.313zM23.188 9.688h-5.938c-0.5 0-0.875 0.375-0.875 0.813 0 0.5 0.375 0.875 0.875 0.875h5.938c0.438 0 0.813-0.375 0.813-0.875 0-0.438-0.313-0.813-0.813-0.813zM23.188 13.438h-5.938c-0.5 0-0.875 0.375-0.875 0.813 0 0.5 0.375 0.875 0.875 0.875h5.938c0.438 0 0.813-0.375 0.813-0.875 0-0.438-0.313-0.813-0.813-0.813zM24 18.25c0-0.438-0.375-0.813-0.813-0.813h-5.938c-0.5 0-0.875 0.375-0.875 0.813s0.375 0.813 0.875 0.813h5.938c0.5 0 0.813-0.375 0.813-0.813z"></path> </symbol><symbol id="safiricon-gulenyuz" viewBox="0 0 32 32"> <path d="M16 0c-8.813 0-16 7.188-16 16s7.188 16 16 16c8.813 0 16-7.188 16-16s-7.188-16-16-16zM16 30.25c-3.938 0-7.5-1.563-10.063-4.125-1-1.063-1.875-2.188-2.563-3.5-1.063-2-1.625-4.25-1.625-6.625 0-7.875 6.375-14.25 14.25-14.25 3.75 0 7.125 1.438 9.688 3.75 1.313 1.25 2.375 2.688 3.188 4.375 0.875 1.813 1.375 3.938 1.375 6.125 0 7.875-6.375 14.25-14.25 14.25zM12.5 12.438c0 0.938-0.75 1.75-1.75 1.75-0.938 0-1.688-0.813-1.688-1.75s0.75-1.75 1.688-1.75c1 0 1.75 0.813 1.75 1.75zM23.188 12.438c0 0.938-0.75 1.75-1.688 1.75-1 0-1.75-0.813-1.75-1.75s0.75-1.75 1.75-1.75c0.938 0 1.688 0.813 1.688 1.75zM16 24.875c3.313 0 6.5-1.75 8.375-4.563l-1.438-0.938c-1.688 2.625-4.813 4.063-7.875 3.688-2.438-0.25-4.625-1.625-5.938-3.688l-1.5 0.938c1.625 2.5 4.313 4.125 7.25 4.5 0.375 0 0.75 0.063 1.125 0.063z"></path> </symbol><symbol id="safiricon-harita" viewBox="0 0 32 32"> <path d="M16 0c-7.063 0-12.813 5.75-12.813 12.813 0 0.813 0.063 1.625 0.188 2.438 0 0.063 0.063 0.188 0.125 0.438 0.188 0.813 0.438 1.688 0.813 2.5 1.438 3.25 4.438 8.25 11.125 13.625 0.188 0.125 0.375 0.188 0.563 0.188s0.375-0.063 0.563-0.188c6.688-5.375 9.688-10.375 11.125-13.625 0.375-0.813 0.625-1.625 0.813-2.5 0.063-0.25 0.125-0.375 0.125-0.438 0.125-0.813 0.188-1.625 0.188-2.438 0-7.063-5.75-12.813-12.813-12.813zM26.813 14.938c0 0.063-0.063 0.188-0.063 0.313-0.188 0.75-0.438 1.5-0.75 2.188 0 0 0 0.063 0 0.063-1.25 2.938-4 7.5-10 12.438-6-4.938-8.75-9.5-10-12.438 0 0 0-0.063 0-0.063-0.313-0.688-0.563-1.438-0.75-2.188-0.063-0.125-0.063-0.25-0.063-0.313-0.125-0.688-0.188-1.438-0.188-2.125 0-6.063 4.938-11 11-11s11 4.938 11 11c0 0.75-0.063 1.438-0.188 2.125zM16 4.813c-4.5 0-8.125 3.688-8.125 8.125 0 4.5 3.625 8.188 8.125 8.188s8.125-3.688 8.125-8.188c0-4.438-3.625-8.125-8.125-8.125zM16 19.313c-3.5 0-6.313-2.875-6.313-6.375 0-3.438 2.813-6.313 6.313-6.313s6.313 2.875 6.313 6.313c0 3.5-2.813 6.375-6.313 6.375z"></path> </symbol><symbol id="safiricon-iletisim" viewBox="0 0 32 32"> <path d="M16 20.563l-3.938-3.438-11.313 9.688c0.375 0.375 0.938 0.625 1.563 0.625h27.375c0.625 0 1.188-0.25 1.563-0.625l-11.313-9.688zM31.25 5.188c-0.375-0.375-0.938-0.625-1.563-0.625h-27.375c-0.625 0-1.188 0.25-1.563 0.625l15.25 13.125zM0 6.563v19l11.063-9.375zM20.938 16.188l11.063 9.375v-19z"></path> </symbol><symbol id="safiricon-istatistik" viewBox="0 0 32 32"> <path d="M12 32h8v-32h-8zM0 32h8v-16h-8zM24 10v22h8v-22z"></path> </symbol><symbol id="safiricon-kalem" viewBox="0 0 32 32"> <path d="M23.813 7.313l0.938-1.188c1.313-1.625 1.063-4-0.563-5.25l-0.063-0.063c-1.625-1.313-3.938-1-5.25 0.563l-0.938 1.188zM18.125 17.188c0 0.25 0.125 0.563 0.375 0.75 0.5 0.375 1.188 0.313 1.625-0.188l6.438-8.063c0.375-0.5 0.313-1.25-0.188-1.625s-1.188-0.25-1.625 0.25l-0.625 0.75-1.063-0.875-5.875-4.688-15 18.813 5.875 4.688 13.625-17.063 1.063 0.875-4.375 5.5c-0.25 0.25-0.313 0.563-0.25 0.875zM7.063 27.875l-5.563-4.438c-0.063 0.313-0.125 0.563-0.125 0.563l-1.25 6.125c-0.125 0.438 0.375 0.75 0.75 0.563l5.688-2.563c-0.063 0 0.188-0.063 0.5-0.25zM31.063 28.938c0 0-0.063 0.063-0.125 0.063l-8.563 1.063c-0.438 0.063-0.75-0.375-0.5-0.75 0.125-0.25 0.25-0.438 0.375-0.625 0.375-0.563-0.125-1.25-0.688-1.25-0.063 0-0.125 0-0.125 0l-16.188 2.438c-0.438 0.063-0.75 0.438-0.688 0.813 0 0.188 0.063 0.375 0.188 0.5 0.188 0.188 0.375 0.25 0.563 0.25 0.063 0 0.125 0 0.125 0l13.375-2c0.438-0.063 0.75 0.438 0.5 0.813-0.063 0.125-0.188 0.25-0.25 0.375-0.25 0.313-0.188 0.875 0.063 1.125 0.188 0.188 0.375 0.25 0.563 0.25 0 0 0 0 0.063 0l11.5-1.5c0.188 0 0.375-0.125 0.5-0.313s0.188-0.438 0.125-0.625c-0.125-0.375-0.375-0.625-0.813-0.625z"></path> </symbol><symbol id="safiricon-kalp" viewBox="0 0 32 32"> <path d="M29.5 5.063c-1.688-1.688-3.938-2.688-6.313-2.688s-4.625 0.938-6.313 2.625l-0.875 0.875-0.875-0.875c-1.625-1.688-3.875-2.625-6.25-2.625s-4.625 0.938-6.25 2.625c-1.688 1.688-2.625 3.875-2.625 6.25s0.938 4.625 2.625 6.313l11.063 11.063c0.625 0.688 1.5 1 2.313 1 0.875 0 1.688-0.313 2.313-1l11.063-11c3.438-3.438 3.5-9.125 0.125-12.563zM28.188 16.438l-11 11.063c-0.625 0.625-1.688 0.625-2.313 0l-11.125-11.125c-1.375-1.375-2.125-3.188-2.125-5.125s0.75-3.75 2.125-5.063c1.375-1.375 3.188-2.125 5.125-2.125s3.75 0.75 5.125 2.125l0.875 0.813-1.375 1.375c-0.313 0.313-0.313 0.813 0 1.125 0.188 0.188 0.375 0.25 0.625 0.25 0.188 0 0.375-0.063 0.563-0.25l3.375-3.313c1.375-1.375 3.188-2.125 5.125-2.125s3.75 0.75 5.125 2.188c2.75 2.813 2.688 7.375-0.125 10.188zM29.125 10.875c-0.063-1.438-0.688-2.813-1.75-3.875-0.688-0.688-1.625-1.25-2.625-1.5-0.438-0.125-0.875 0.125-1 0.563s0.125 0.875 0.563 1c0.75 0.188 1.375 0.625 1.938 1.125 0.75 0.75 1.188 1.75 1.25 2.813 0 0.438 0.375 0.75 0.813 0.75 0 0 0.063 0 0.063 0 0.438 0 0.813-0.375 0.75-0.875z"></path> </symbol><symbol id="safiricon-kampanya" viewBox="0 0 32 32"> <path d="M13.063 13.313c0 0.688-0.563 1.313-1.313 1.313s-1.313-0.625-1.313-1.313c0-0.75 0.563-1.375 1.313-1.375s1.313 0.625 1.313 1.375zM21.563 18.688c0 0.75-0.563 1.375-1.313 1.375s-1.313-0.625-1.313-1.375c0-0.688 0.563-1.313 1.313-1.313s1.313 0.625 1.313 1.313zM31.25 17.75l-0.438-0.625c-0.563-0.75-0.563-1.688-0.063-2.438l0.5-0.688c0.688-1 0.375-2.438-0.75-3.063l-0.688-0.375c-0.813-0.438-1.25-1.313-1.063-2.188l0.125-0.813c0.188-1.188-0.75-2.375-2-2.375l-0.813-0.063c-0.875-0.063-1.625-0.625-1.875-1.5l-0.25-0.813c-0.375-1.188-1.688-1.813-2.813-1.313l-0.75 0.313c-0.813 0.375-1.813 0.188-2.375-0.5l-0.563-0.625c-0.813-0.938-2.313-0.938-3.125 0.063l-0.563 0.563c-0.563 0.688-1.5 0.938-2.313 0.563l-0.813-0.313c-1.125-0.438-2.438 0.188-2.75 1.375l-0.25 0.813c-0.25 0.875-1 1.5-1.875 1.5l-0.813 0.063c-1.25 0.063-2.188 1.25-1.938 2.438l0.125 0.813c0.188 0.875-0.25 1.813-1 2.25l-0.75 0.375c-1.063 0.625-1.375 2.063-0.625 3.063l0.438 0.625c0.563 0.75 0.563 1.688 0.063 2.438l-0.5 0.688c-0.688 1-0.375 2.438 0.75 3.063l0.688 0.375c0.813 0.438 1.25 1.313 1.063 2.188l-0.125 0.813c-0.188 1.188 0.75 2.375 2 2.375l0.813 0.063c0.875 0.063 1.625 0.625 1.875 1.5l0.25 0.813c0.375 1.188 1.688 1.813 2.813 1.313l0.75-0.313c0.813-0.375 1.813-0.188 2.375 0.5l0.563 0.625c0.813 0.938 2.313 0.938 3.125-0.063l0.563-0.563c0.563-0.688 1.5-0.938 2.313-0.563l0.813 0.313c1.125 0.438 2.438-0.188 2.75-1.375l0.25-0.813c0.25-0.875 1-1.5 1.875-1.5l0.813-0.063c1.25-0.063 2.188-1.25 1.938-2.438l-0.125-0.813c-0.188-0.875 0.25-1.813 1-2.25l0.75-0.375c1.063-0.625 1.375-2 0.625-3.063zM8.5 13.313c0-1.813 1.438-3.25 3.25-3.25 1.75 0 3.188 1.438 3.188 3.25 0 1.75-1.438 3.188-3.188 3.188-1.813 0-3.25-1.438-3.25-3.188zM12.375 21.625c-0.313 0.313-0.813 0.375-1.125 0.063-0.313-0.25-0.375-0.75-0.125-1.063l8.5-10.25c0.25-0.313 0.75-0.375 1.125-0.063 0.313 0.25 0.375 0.75 0.063 1.125zM20.25 21.938c-1.813 0-3.25-1.438-3.25-3.25 0-1.75 1.438-3.188 3.25-3.188 1.75 0 3.25 1.438 3.25 3.188 0 1.813-1.5 3.25-3.25 3.25z"></path> </symbol><symbol id="safiricon-kimlik" viewBox="0 0 32 32"> <path d="M27.688 3.25h-7.25c-0.625-1.875-2.375-3.25-4.5-3.25-2.063 0-3.813 1.375-4.438 3.25h-7.188c-1.5 0-2.75 1.25-2.75 2.75v23.25c0 1.5 1.25 2.75 2.75 2.75h23.375c1.5 0 2.75-1.25 2.75-2.75v-23.25c0-1.5-1.25-2.75-2.75-2.75zM15.938 3.063c0.938 0 1.688 0.75 1.688 1.625s-0.75 1.625-1.688 1.625c-0.875 0-1.625-0.75-1.625-1.625s0.75-1.625 1.625-1.625zM24.125 26.625c0 0.5-0.438 0.875-0.938 0.875h-14.375c-0.5 0-0.938-0.375-0.938-0.875v-0.438c0-1.125 0.563-2.188 1.438-2.875 1.813-1.313 3.563-2.188 3.938-2.375 0.063 0 0.063-0.063 0.063-0.125v-1.563c-0.25-0.438-0.375-0.875-0.438-1.25-0.188-0.063-0.438-0.313-0.688-1.188-0.313-1.188 0.063-1.375 0.313-1.313-0.063-0.188-0.063-0.375-0.125-0.5-0.063-0.563-0.125-1.125 0-1.625 0.188-0.688 0.563-1.188 0.938-1.625 0.25-0.25 0.563-0.5 0.875-0.688 0.25-0.188 0.5-0.375 0.813-0.438 0.25-0.063 0.5-0.125 0.75-0.188 0.875-0.063 1.5 0.188 1.938 0.438 0.688 0.375 0.938 0.875 0.938 0.875s1.5 0.125 1 3.25c-0.063 0.125-0.063 0.313-0.125 0.5 0.313-0.063 0.688 0.125 0.313 1.313-0.25 0.875-0.5 1.125-0.625 1.188-0.063 0.375-0.25 0.813-0.5 1.25v1.563c0 0.063 0.063 0.125 0.125 0.125 0.375 0.188 2.063 1.063 3.875 2.375 0.938 0.688 1.438 1.75 1.438 2.875z"></path> </symbol><symbol id="safiricon-klasor" viewBox="0 0 32 32"> <path d="M12.813 3.188h-9.625c-1.75 0-3.188 1.438-3.188 3.188v19.25c0 1.75 1.438 3.188 3.188 3.188h25.625c1.75 0 3.188-1.438 3.188-3.188v-16c0-1.813-1.438-3.25-3.188-3.25h-12.813z"></path> </symbol><symbol id="safiricon-kullanici" viewBox="0 0 32 32"> <path d="M9.813 10.063c0.125 0.5 0.25 0.813 0.5 1 0.438 3.313 3.375 6.125 5.75 6 3.063-0.125 5.188-3.375 5.688-6 0.188-0.188 0.375-0.625 0.5-1.125 0.125-0.625 0.25-1.5-0.125-1.938 0-0.063-0.125-0.188-0.188-0.188 0.375-1.25 1.125-3.438-0.75-5.375-1-1.063-2.375-1.625-3.688-2-3.688-1.25-6.313 0.5-7.563 3.375-0.063 0.188-0.625 1.5 0.063 4-0.063 0.063-0.125 0.063-0.188 0.188-0.375 0.438-0.125 1.438 0 2.063zM29.063 28.125c-0.063-2.25-0.188-5.813-2.188-8.75 0 0-0.563-0.813-1.875-1.313 0 0-2.938-0.875-4.25-1.813l-0.625 0.375 0.063 4-3.688 9.813c-0.063 0.188-0.25 0.313-0.5 0.313s-0.438-0.125-0.5-0.313l-3.688-9.813c0 0 0.063-3.938 0.063-4 0 0.063-0.625-0.375-0.625-0.375-1.313 0.938-4.25 1.813-4.25 1.813-1.313 0.5-1.875 1.313-1.875 1.313-2 2.938-2.125 6.5-2.188 8.75-0.125 1.563 0.25 2.188 0.625 2.313 5.125 2.063 19.75 2.063 24.875 0 0.375-0.125 0.75-0.75 0.625-2.313zM16.125 18.313h-0.188c-0.5 0-1.063-0.063-1.563-0.25l1.438 2.188-1.313 1.313 1.375 8.125c0 0.063 0.063 0.125 0.125 0.125s0.125-0.063 0.125-0.125l1.375-8.125-1.313-1.313 1.438-2.188c-0.5 0.188-1 0.25-1.5 0.25z"></path> </symbol><symbol id="safiricon-kurumsal" viewBox="0 0 32 32"> <path d="M8.25 3.188c0 1.75-1.438 3.125-3.188 3.125s-3.125-1.375-3.125-3.125c0-1.75 1.375-3.188 3.125-3.188s3.188 1.438 3.188 3.188zM1.563 17.375h0.313v6.25c0 0.813 0.688 1.563 1.563 1.563h3.25c0.875 0 1.563-0.75 1.563-1.563v-0.375c-0.25-0.563-0.438-1.188-0.438-1.813v-8.188c0-1.625 0.938-3 2.313-3.563v-0.625c0-0.875-0.688-1.563-1.563-1.563h-7c-0.875 0-1.563 0.688-1.563 1.563v6.75c0 0.813 0.688 1.563 1.563 1.563zM30 3.188c0 1.75-1.375 3.125-3.125 3.125s-3.125-1.375-3.125-3.125c0-1.75 1.375-3.188 3.125-3.188s3.125 1.438 3.125 3.188zM21.75 9v0.625c1.375 0.625 2.375 2 2.375 3.563v8.188c0 0.625-0.188 1.25-0.5 1.813v0.375c0 0.813 0.75 1.563 1.563 1.563h3.313c0.875 0 1.563-0.75 1.563-1.563v-6.25h0.313c0.875 0 1.563-0.688 1.563-1.563v-6.75c0-0.813-0.688-1.563-1.563-1.563h-7.063c-0.813 0-1.563 0.75-1.563 1.563zM10.188 13.25v8.188c0 0.813 0.688 1.563 1.563 1.563h0.563v7.313c0 0.875 0.75 1.563 1.563 1.563h4.188c0.875 0 1.563-0.688 1.563-1.563v-7.375h0.625c0.875 0 1.563-0.688 1.563-1.563v-8.125c0-0.875-0.688-1.563-1.563-1.563h-8.5c-0.875 0-1.563 0.688-1.563 1.563zM19.563 6.75c0 2-1.563 3.625-3.563 3.625s-3.625-1.625-3.625-3.625c0-2 1.625-3.625 3.625-3.625s3.563 1.625 3.563 3.625z"></path> </symbol><symbol id="safiricon-liste" viewBox="0 0 32 32"> <path d="M32 4c0-0.813-0.563-1.313-1.313-1.313h-29.375c-0.75 0-1.313 0.5-1.313 1.313v2.688c0 0.75 0.563 1.313 1.313 1.313h29.375c0.75 0 1.313-0.563 1.313-1.313zM32 14.688c0-0.813-0.563-1.375-1.313-1.375h-29.375c-0.75 0-1.313 0.563-1.313 1.375v2.625c0 0.813 0.563 1.375 1.313 1.375h29.375c0.75 0 1.313-0.563 1.313-1.375zM32 25.313c0-0.75-0.563-1.313-1.313-1.313h-29.375c-0.75 0-1.313 0.563-1.313 1.313v2.688c0 0.813 0.563 1.313 1.313 1.313h29.375c0.75 0 1.313-0.5 1.313-1.313z"></path> </symbol><symbol id="safiricon-monitor" viewBox="0 0 32 32"> <path d="M23 30h-2c-1.125 0-2-0.875-2-2v-3h-6v3c0 1.125-0.875 2-2 2h-2c-0.563 0-1 0.438-1 1s0.438 1 1 1h14c0.563 0 1-0.438 1-1s-0.438-1-1-1zM30.25 0h-28.5c-0.938 0-1.75 0.813-1.75 1.875v19.25c0 1.063 0.813 1.875 1.75 1.875h28.5c0.938 0 1.75-0.813 1.75-1.875v-19.25c0-1.063-0.813-1.875-1.75-1.875zM30 21h-28v-19h28z"></path> </symbol><symbol id="safiricon-mouse" viewBox="0 0 32 32"> <path d="M31.688 27.063l-6.375-6.375 4.563-2.625c0.313-0.188 0.563-0.563 0.5-1 0-0.375-0.25-0.75-0.625-0.938l-20.313-8.063c-0.375-0.125-0.813-0.063-1.125 0.25s-0.375 0.75-0.25 1.125l8.063 20.313c0.188 0.375 0.563 0.625 0.938 0.625 0.438 0.063 0.813-0.188 1-0.5l2.625-4.563 6.375 6.375c0.188 0.188 0.5 0.313 0.75 0.313 0.313 0 0.563-0.125 0.75-0.313l3.125-3.125c0.438-0.375 0.438-1.063 0-1.5zM4.688 3.188c-0.438-0.438-1.063-0.438-1.5 0s-0.438 1.063 0 1.5l2.375 2.375c0.188 0.25 0.5 0.313 0.75 0.313s0.563-0.063 0.75-0.313c0.438-0.375 0.438-1.063 0-1.5zM5.5 10.563c0-0.563-0.5-1.063-1.063-1.063h-3.375c-0.563 0-1.063 0.5-1.063 1.063 0 0.625 0.5 1.063 1.063 1.063h3.375c0.563 0 1.063-0.438 1.063-1.063zM5.063 13.875l-2.375 2.375c-0.438 0.438-0.438 1.125 0 1.5 0.188 0.25 0.5 0.313 0.75 0.313 0.313 0 0.563-0.063 0.75-0.313l2.375-2.375c0.438-0.375 0.438-1.063 0-1.5-0.375-0.438-1.063-0.438-1.5 0zM10.563 5.5c0.625 0 1.063-0.5 1.063-1.063v-3.375c0-0.563-0.438-1.063-1.063-1.063-0.563 0-1.063 0.5-1.063 1.063v3.375c0 0.563 0.5 1.063 1.063 1.063zM14.625 6.875c0.313 0 0.563-0.063 0.75-0.313l2.375-2.375c0.438-0.375 0.438-1.063 0-1.5-0.375-0.438-1.063-0.438-1.5 0l-2.375 2.375c-0.438 0.438-0.438 1.125 0 1.5 0.25 0.25 0.5 0.313 0.75 0.313z"></path> </symbol><symbol id="safiricon-nakliye" viewBox="0 0 32 32"> <path d="M1.125 19.75v-13.625c0-0.75 0.625-1.375 1.375-1.375h13.625c0.75 0 1.375 0.625 1.375 1.375v13.625c0 0.25-0.25 0.438-0.5 0.438h-15.438c-0.25 0-0.438-0.188-0.438-0.438zM12.125 24.375c0 1.625-1.313 2.875-2.875 2.875s-2.813-1.25-2.813-2.875c0-1.563 1.25-2.813 2.813-2.813s2.875 1.25 2.875 2.813zM10.688 24.375c0-0.75-0.625-1.375-1.438-1.375-0.75 0-1.375 0.625-1.375 1.375 0 0.813 0.625 1.438 1.375 1.438 0.813 0 1.438-0.625 1.438-1.438zM6.813 21.563h-6.375c-0.25 0-0.438 0.188-0.438 0.438v1.375c0 0.313 0.188 0.5 0.438 0.5h5.125c0.125-0.938 0.563-1.75 1.25-2.313zM27 24.375c0 1.625-1.313 2.875-2.875 2.875s-2.813-1.25-2.813-2.875c0-1.563 1.25-2.813 2.813-2.813s2.875 1.25 2.875 2.813zM25.563 24.375c0-0.75-0.625-1.375-1.438-1.375-0.75 0-1.438 0.625-1.438 1.375 0 0.813 0.688 1.438 1.438 1.438 0.813 0 1.438-0.625 1.438-1.438zM32 22v1.375c0 0.313-0.188 0.5-0.438 0.5h-3.688c-0.313-1.813-1.875-3.25-3.75-3.25s-3.438 1.438-3.688 3.25h-7.438c-0.125-0.938-0.625-1.75-1.313-2.313h7.063v-13.063c0-0.5 0.438-0.938 0.938-0.938h4.313c1.188 0 2.375 0.625 3 1.625l2.813 4.125c0.375 0.625 0.625 1.313 0.625 2.063v6.188h1.125c0.25 0 0.438 0.188 0.438 0.438zM27.375 13.438l-2.25-3.188c-0.063-0.125-0.188-0.188-0.375-0.188h-3.438c-0.25 0-0.438 0.188-0.438 0.438v3.188c0 0.25 0.188 0.438 0.438 0.438h5.688c0.375 0 0.563-0.375 0.375-0.688z"></path> </symbol><symbol id="safiricon-ok" viewBox="0 0 32 32"> <path d="M24.438 17.563l-13.75 13.75c-0.875 0.875-2.25 0.875-3.125 0s-0.875-2.25 0-3.125l12.125-12.188-12.125-12.188c-0.875-0.875-0.875-2.313 0-3.125 0.875-0.938 2.25-0.938 3.125 0l13.75 13.75c0.438 0.438 0.688 1 0.688 1.563s-0.25 1.125-0.688 1.563z"></path> </symbol><symbol id="safiricon-ok2" viewBox="0 0 32 32"> <path d="M0 23.5c0 0.25 0.125 0.5 0.313 0.688s0.438 0.313 0.688 0.313h14v6.5c0 0.375 0.25 0.75 0.625 0.938 0.375 0.125 0.813 0.063 1.063-0.25l15-15c0.188-0.188 0.313-0.438 0.313-0.688s-0.125-0.5-0.313-0.688l-15-15c-0.25-0.313-0.688-0.375-1.063-0.25-0.375 0.188-0.625 0.563-0.625 0.938v6.5h-14c-0.25 0-0.5 0.125-0.688 0.313s-0.313 0.438-0.313 0.688z"></path> </symbol><symbol id="safiricon-ozellik" viewBox="0 0 32 32"> <path d="M31.875 14.25c0-0.5-0.563-0.813-1-0.813-1.5 0-2.75-0.875-3.313-2.188-0.563-1.375-0.188-2.938 0.875-3.938 0.375-0.313 0.375-0.875 0.125-1.25-0.75-0.938-1.625-1.813-2.563-2.563-0.375-0.25-0.875-0.25-1.188 0.125-0.938 1.063-2.688 1.438-4 0.875-1.375-0.563-2.25-1.938-2.188-3.438 0.063-0.5-0.313-0.875-0.75-0.938-1.188-0.188-2.438-0.188-3.625 0-0.438 0-0.813 0.438-0.75 0.875 0 1.5-0.875 2.875-2.25 3.438-1.25 0.5-3 0.125-3.938-0.938-0.313-0.313-0.813-0.375-1.188-0.063-1 0.75-1.875 1.625-2.625 2.563-0.25 0.375-0.25 0.875 0.125 1.188 1.125 1 1.438 2.625 0.875 4-0.563 1.313-1.875 2.188-3.438 2.188-0.563-0.063-0.875 0.313-0.938 0.75-0.188 1.188-0.188 2.438 0 3.625 0 0.5 0.563 0.813 1 0.813 1.438-0.063 2.75 0.813 3.313 2.188s0.188 2.938-0.875 3.938c-0.375 0.313-0.375 0.875-0.125 1.25 0.75 0.938 1.625 1.813 2.563 2.563 0.375 0.25 0.875 0.25 1.188-0.125 0.938-1.063 2.688-1.438 4-0.875 1.375 0.563 2.25 1.938 2.188 3.438-0.063 0.5 0.313 0.875 0.75 0.938 0.625 0.063 1.25 0.125 1.875 0.125 0.563 0 1.125-0.063 1.75-0.125 0.438 0 0.813-0.438 0.75-0.875 0-1.5 0.875-2.875 2.188-3.438 1.375-0.5 3.063-0.125 4 0.938 0.313 0.313 0.813 0.375 1.188 0.063 1-0.75 1.813-1.625 2.625-2.563 0.25-0.375 0.25-0.875-0.125-1.188-1.125-1-1.438-2.625-0.875-4 0.5-1.313 1.813-2.188 3.25-2.188h0.188c0.5 0.063 0.875-0.313 0.938-0.75 0.188-1.188 0.188-2.438 0-3.625zM16 21.375c-2.938 0-5.313-2.375-5.313-5.313 0-3 2.375-5.375 5.313-5.375s5.375 2.375 5.375 5.375c0 2.938-2.438 5.313-5.375 5.313z"></path> </symbol><symbol id="safiricon-pdf" viewBox="0 0 32 32"> <path d="M9.438 20.563c0-0.5-0.375-0.813-1-0.813-0.313 0-0.5 0-0.563 0.063v1.688c0.125 0 0.25 0 0.438 0 0.688 0 1.125-0.313 1.125-0.938zM13.438 19.75c-0.25 0-0.438 0.063-0.563 0.063v3.75c0.125 0.063 0.25 0.063 0.438 0.063 1.188 0 1.938-0.625 1.938-2.063 0-1.188-0.688-1.813-1.813-1.813zM20.938 0h-12.875c-1.875 0-3.375 1.5-3.375 3.375v12.625h-0.313c-0.813 0-1.375 0.625-1.375 1.375v8.313c0 0.75 0.563 1.375 1.375 1.375h0.313v1.563c0 1.875 1.5 3.375 3.375 3.375h17.563c1.875 0 3.375-1.5 3.375-3.375v-20.563zM6.563 18.875c0.438-0.063 1-0.125 1.75-0.125 0.813 0 1.375 0.188 1.813 0.438 0.375 0.313 0.625 0.813 0.625 1.375s-0.25 1.063-0.563 1.375c-0.438 0.375-1.125 0.625-1.875 0.625-0.188 0-0.313-0.063-0.438-0.063v2.063h-1.313zM25.625 29.938h-17.563c-0.688 0-1.313-0.625-1.313-1.313v-1.563h16.375c0.75 0 1.375-0.625 1.375-1.375v-8.313c0-0.75-0.625-1.375-1.375-1.375h-16.375v-12.625c0-0.688 0.625-1.313 1.313-1.313h12.125v4.5c0 1.25 1 2.313 2.313 2.313h4.375l0.063 19.75c0 0.688-0.563 1.313-1.313 1.313zM11.563 24.563v-5.688c0.5-0.063 1.125-0.125 1.75-0.125 1.125 0 1.813 0.188 2.375 0.625s1 1.125 1 2.188c0 1.063-0.438 1.875-1 2.313-0.625 0.5-1.5 0.75-2.625 0.75-0.688 0-1.188-0.063-1.5-0.063zM20.875 21.188v1.063h-2.063v2.313h-1.313v-5.75h3.563v1.063h-2.25v1.313z"></path> </symbol><symbol id="safiricon-proje" viewBox="0 0 32 32"> <path d="M19.25 16c0 1.813-1.438 3.25-3.25 3.25s-3.25-1.438-3.25-3.25c0-1.813 1.438-3.25 3.25-3.25s3.25 1.438 3.25 3.25zM27.938 17.625c-0.438-0.5-0.875-1.063-1.375-1.625 0.5-0.5 0.938-1.063 1.375-1.625 0.938-1.25 1.625-2.438 1.938-3.563 0.25-0.875 0.438-2.125-0.25-3.25-0.938-1.5-2.813-1.813-4.25-1.813-1.188 0-2.563 0.25-4 0.625-0.188-0.5-0.313-0.938-0.5-1.375-0.563-1.5-1.25-2.688-2-3.5-0.875-1-1.875-1.5-2.875-1.5h-0.063c-1.25 0-2.25 0.813-2.875 1.5-0.75 0.875-1.438 2.063-2 3.5-0.125 0.438-0.313 0.938-0.438 1.375-1.438-0.375-2.813-0.625-4-0.625-1.438 0-3.313 0.375-4.25 1.813-0.688 1.125-0.5 2.375-0.25 3.25 0.313 1.125 1 2.313 1.938 3.563 0.438 0.563 0.875 1.125 1.375 1.625-0.5 0.563-0.938 1.125-1.375 1.625-0.938 1.25-1.625 2.438-1.938 3.563-0.25 0.875-0.438 2.125 0.25 3.25 0.938 1.5 2.813 1.813 4.25 1.813 1.188 0 2.563-0.188 4-0.625 0.188 0.5 0.313 0.938 0.5 1.375 0.563 1.5 1.25 2.688 2 3.5 0.875 1 1.875 1.5 2.875 1.5h0.063c1.25 0 2.25-0.813 2.875-1.5 0.75-0.813 1.438-2 2-3.5 0.125-0.438 0.313-0.875 0.438-1.375 1.438 0.438 2.813 0.625 4 0.625 1.438 0 3.313-0.313 4.25-1.813 0.688-1.125 0.5-2.375 0.25-3.25-0.313-1.125-1-2.313-1.938-3.563zM25.375 7.625c0.75 0 2.188 0.125 2.688 0.938 0.563 0.938 0 2.688-1.563 4.75-0.375 0.438-0.813 0.938-1.25 1.438-0.813-0.813-1.75-1.625-2.75-2.375-0.188-1.5-0.375-2.875-0.688-4.25 1.313-0.313 2.563-0.5 3.563-0.5zM20.063 23.375c0-0.063 0-0.063 0-0.063-0.688-0.188-1.375-0.5-2.063-0.813 0.5-0.25 1-0.563 1.5-0.875 0.313-0.188 0.688-0.375 1-0.625-0.125 0.813-0.25 1.625-0.438 2.375zM18.563 20.125c-0.875 0.5-1.688 1-2.563 1.438-0.875-0.438-1.688-0.938-2.563-1.438-0.75-0.5-1.438-1-2.188-1.5-0.063-0.813-0.063-1.688-0.063-2.625 0-0.875 0-1.75 0.063-2.625 0.688-0.5 1.438-1 2.188-1.438 0.875-0.563 1.688-1 2.563-1.438 0.875 0.438 1.688 0.875 2.563 1.438 0.75 0.438 1.438 0.938 2.188 1.438 0.063 0.875 0.063 1.75 0.063 2.625s0 1.75-0.063 2.625c-0.688 0.5-1.438 1-2.188 1.5zM11.938 23.313c-0.188-0.688-0.313-1.5-0.438-2.313 0.313 0.25 0.688 0.438 1 0.688 0.5 0.25 1 0.563 1.5 0.813-0.688 0.313-1.375 0.563-2.063 0.813zM9.375 17.188c-0.438-0.375-0.938-0.75-1.375-1.188 0.438-0.375 0.875-0.75 1.375-1.188 0 0.438 0 0.813 0 1.188 0 0.438 0 0.813 0 1.188zM11.875 8.688c0.063 0 0.063 0 0.063 0 0.688 0.25 1.375 0.5 2.063 0.813-0.5 0.25-1 0.563-1.5 0.875-0.313 0.188-0.688 0.438-1 0.625 0.125-0.813 0.25-1.563 0.375-2.313zM20.063 8.688c0.188 0.75 0.313 1.5 0.438 2.313-0.313-0.188-0.688-0.438-1-0.625-0.5-0.313-1-0.625-1.5-0.875 0.688-0.313 1.375-0.563 2.063-0.813zM22.625 14.813c0.438 0.438 0.938 0.813 1.375 1.188-0.438 0.438-0.875 0.813-1.375 1.188 0-0.375 0-0.813 0-1.188s0-0.813 0-1.188zM12.75 5.688c0.938-2.438 2.125-3.875 3.25-3.875 1.063 0 2.25 1.438 3.188 3.875 0.125 0.375 0.313 0.813 0.438 1.25-1.188 0.375-2.375 0.875-3.625 1.5-1.25-0.625-2.438-1.125-3.625-1.5 0.125-0.438 0.25-0.875 0.375-1.25zM3.938 8.563c0.5-0.813 1.938-0.938 2.688-0.938 1 0 2.25 0.188 3.563 0.5-0.313 1.375-0.563 2.813-0.688 4.313-1 0.75-1.938 1.5-2.75 2.313-0.438-0.5-0.875-1-1.25-1.438-1.563-2.063-2.125-3.813-1.563-4.75zM6.625 24.438c-0.75 0-2.188-0.125-2.688-0.938-0.563-0.938 0-2.75 1.563-4.75 0.375-0.5 0.813-1 1.25-1.438 0.813 0.75 1.75 1.563 2.75 2.313 0.188 1.5 0.375 2.938 0.688 4.25-1.313 0.375-2.563 0.563-3.563 0.563zM19.25 26.375c-0.938 2.375-2.125 3.813-3.25 3.813-1.063 0-2.25-1.438-3.188-3.813-0.125-0.438-0.313-0.813-0.438-1.25 1.188-0.438 2.375-0.938 3.625-1.563 1.25 0.625 2.438 1.125 3.625 1.563-0.125 0.438-0.25 0.813-0.375 1.25zM28.063 23.5c-0.5 0.813-1.938 0.938-2.688 0.938-1 0-2.25-0.188-3.563-0.563 0.313-1.313 0.563-2.75 0.688-4.25 1-0.75 1.938-1.563 2.75-2.313 0.438 0.438 0.875 0.938 1.25 1.438 1.563 2 2.125 3.813 1.563 4.75z"></path> </symbol><symbol id="safiricon-rastgele" viewBox="0 0 32 32"> <path d="M32 24.25l-6.688-6.688v5.313h-0.625c-4.25 0-6.375-3.5-8.875-7.563-2.563-4.188-5.438-8.938-11.25-8.938h-4.563v2.75h4.563c4.25 0 6.438 3.5 8.875 7.563 2.563 4.188 5.438 8.938 11.25 8.938h0.625v5.25zM32 7.75l-6.688-6.625v5.25h-0.625c-4.188 0-6.813 2.438-8.938 5.375 0.563 0.875 1.063 1.688 1.563 2.5 1.938-2.875 4-5.125 7.375-5.125h0.625v5.313zM11.938 17.75c-1.938 2.875-4 5.125-7.375 5.125h-4.563v2.75h4.563c4.188 0 6.813-2.438 8.938-5.375-0.563-0.875-1.063-1.688-1.563-2.5z"></path> </symbol><symbol id="safiricon-saat" viewBox="0 0 32 32"> <path d="M16 0c-8.813 0-16 7.188-16 16s7.188 16 16 16c8.813 0 16-7.188 16-16s-7.188-16-16-16zM22.75 26.688l-0.688-1.188c-0.125-0.125-0.25-0.25-0.438-0.25-0.063 0-0.125 0.063-0.188 0.063-0.125 0.063-0.188 0.188-0.188 0.313-0.063 0.125-0.063 0.25 0 0.313l0.688 1.188c-1.5 0.813-3.25 1.375-5.125 1.5v-1.688c0-0.5-0.375-0.875-0.813-0.875s-0.813 0.375-0.813 0.875v1.688c-1.813-0.125-3.563-0.625-5.063-1.438l0.688-1.188c0.063-0.125 0.063-0.25 0-0.375 0-0.125-0.063-0.188-0.188-0.25-0.063-0.063-0.125-0.063-0.188-0.063-0.188 0-0.313 0.063-0.438 0.25l-0.688 1.188c-1.5-1-2.813-2.25-3.813-3.75l1.438-0.813c0.438-0.25 0.563-0.75 0.313-1.125-0.188-0.438-0.75-0.563-1.125-0.313l-1.438 0.813c-0.813-1.563-1.25-3.25-1.313-5.063h1.375c0.125 0 0.25-0.063 0.313-0.125 0.063-0.125 0.125-0.25 0.125-0.313 0-0.25-0.188-0.5-0.438-0.5h-1.375c0.063-1.813 0.5-3.563 1.313-5.125l1.438 0.813c0.125 0.063 0.25 0.125 0.438 0.125 0.25 0 0.563-0.125 0.688-0.438 0.25-0.375 0.125-0.875-0.313-1.125l-1.438-0.813c1-1.5 2.25-2.75 3.75-3.688l0.688 1.188c0.063 0.063 0.125 0.125 0.188 0.188 0.125 0.063 0.313 0.063 0.438 0s0.188-0.188 0.188-0.313c0.063-0.125 0.063-0.25 0-0.313l-0.688-1.188c1.5-0.813 3.25-1.375 5.125-1.5v1.688c0 0.5 0.375 0.875 0.813 0.875s0.813-0.375 0.813-0.875v-1.688c1.813 0.125 3.563 0.625 5.063 1.438l-0.688 1.188c-0.125 0.25 0 0.5 0.188 0.625 0.063 0.063 0.125 0.063 0.188 0.063 0.188 0 0.313-0.063 0.438-0.25l0.688-1.188c1.5 1 2.813 2.25 3.813 3.75l-1.438 0.813c-0.438 0.25-0.563 0.75-0.313 1.125 0.125 0.313 0.438 0.438 0.688 0.438 0.188 0 0.313-0.063 0.438-0.125l1.438-0.813c0.813 1.563 1.25 3.25 1.313 5.063h-1.375c-0.125 0-0.25 0.063-0.313 0.125-0.063 0.125-0.125 0.25-0.125 0.313 0 0.188 0.063 0.313 0.188 0.438 0.125 0 0.188 0.063 0.25 0.063h1.375c-0.063 1.813-0.5 3.563-1.313 5.125l-1.438-0.813c-0.375-0.25-0.938-0.125-1.125 0.313-0.25 0.375-0.125 0.875 0.313 1.125l1.438 0.813c-1 1.5-2.25 2.75-3.75 3.688zM22.25 11.438l-5.438 3c-0.25-0.125-0.5-0.188-0.813-0.188s-0.563 0.063-0.813 0.188l-5.438-3c-0.5-0.313-1.125-0.125-1.438 0.438-0.25 0.5-0.063 1.125 0.438 1.438l5.5 3c0.188 0.875 0.875 1.438 1.75 1.438s1.563-0.563 1.75-1.438l5.5-3c0.5-0.313 0.688-0.938 0.438-1.438-0.313-0.563-0.938-0.75-1.438-0.438z"></path> </symbol><symbol id="safiricon-soru" viewBox="0 0 32 32"> <path d="M29.813 7.938c-1.438-2.438-3.375-4.375-5.813-5.813s-5.125-2.125-8-2.125c-2.938 0-5.563 0.688-8.063 2.125-2.438 1.438-4.375 3.375-5.813 5.813-1.438 2.5-2.125 5.125-2.125 8.063 0 2.875 0.688 5.563 2.125 8s3.375 4.375 5.813 5.813c2.5 1.438 5.125 2.125 8.063 2.125 2.875 0 5.563-0.688 8-2.125s4.375-3.375 5.813-5.813c1.438-2.438 2.125-5.125 2.125-8 0-2.938-0.688-5.563-2.125-8.063zM18.625 26c0 0.188-0.063 0.313-0.188 0.438s-0.25 0.188-0.438 0.188h-4c-0.188 0-0.375-0.063-0.5-0.188s-0.188-0.25-0.188-0.438v-4c0-0.188 0.063-0.375 0.188-0.5s0.313-0.188 0.5-0.188h4c0.188 0 0.313 0.063 0.438 0.188s0.188 0.313 0.188 0.5zM23.688 13.688c-0.125 0.5-0.313 0.938-0.563 1.25-0.188 0.313-0.5 0.625-0.938 1-0.375 0.313-0.688 0.563-0.938 0.75-0.25 0.125-0.563 0.313-1 0.563-0.5 0.25-0.875 0.625-1.125 1.063-0.313 0.375-0.5 0.75-0.5 1 0 0.188-0.063 0.375-0.188 0.5s-0.25 0.188-0.438 0.188h-4c-0.188 0-0.375-0.063-0.5-0.188s-0.188-0.313-0.188-0.5v-0.75c0-0.938 0.375-1.813 1.125-2.625 0.688-0.813 1.5-1.375 2.375-1.813 0.688-0.25 1.125-0.563 1.438-0.938 0.25-0.313 0.375-0.688 0.375-1.25 0-0.438-0.25-0.875-0.75-1.25-0.5-0.313-1.125-0.5-1.813-0.5s-1.313 0.125-1.75 0.5c-0.5 0.313-1.063 0.938-1.813 1.875-0.125 0.188-0.313 0.25-0.5 0.25s-0.313 0-0.438-0.125l-2.688-2.063c-0.375-0.25-0.375-0.563-0.188-0.875 1.75-2.938 4.313-4.438 7.688-4.438 1.25 0 2.438 0.313 3.563 0.875s2.125 1.375 2.875 2.438c0.75 1 1.188 2.125 1.188 3.375 0 0.625-0.125 1.188-0.313 1.688z"></path> </symbol><symbol id="safiricon-takvim" viewBox="0 0 32 32"> <path d="M11.688 17.688c0-0.438-0.375-0.75-0.75-0.75h-2.563c-0.375 0-0.688 0.313-0.688 0.75v2.5c0 0.438 0.313 0.75 0.688 0.75h2.563c0.375 0 0.75-0.313 0.75-0.75zM18 17.688c0-0.438-0.313-0.75-0.75-0.75h-2.5c-0.438 0-0.75 0.313-0.75 0.75v2.5c0 0.438 0.313 0.75 0.75 0.75h2.5c0.438 0 0.75-0.313 0.75-0.75zM24.313 17.688c0-0.438-0.313-0.75-0.688-0.75h-2.563c-0.375 0-0.688 0.313-0.688 0.75v2.5c0 0.438 0.313 0.75 0.688 0.75h2.563c0.375 0 0.688-0.313 0.688-0.75zM11.688 24c0-0.375-0.375-0.75-0.75-0.75h-2.563c-0.375 0-0.688 0.375-0.688 0.75v2.563c0 0.375 0.313 0.688 0.688 0.688h2.563c0.375 0 0.75-0.313 0.75-0.688zM18 24c0-0.375-0.313-0.75-0.75-0.75h-2.5c-0.438 0-0.75 0.375-0.75 0.75v2.563c0 0.375 0.313 0.688 0.75 0.688h2.5c0.438 0 0.75-0.313 0.75-0.688zM24.313 24c0-0.375-0.313-0.75-0.688-0.75h-2.563c-0.375 0-0.688 0.375-0.688 0.75v2.563c0 0.375 0.313 0.688 0.688 0.688h2.563c0.375 0 0.688-0.313 0.688-0.688zM28.875 3.563v3.875c0 1.75-1.438 3.188-3.188 3.188h-2c-1.75 0-3.188-1.438-3.188-3.188v-3.875h-9v3.875c0 1.75-1.438 3.188-3.188 3.188h-2c-1.75 0-3.188-1.438-3.188-3.188v-3.875c-1.5 0.063-2.75 1.313-2.75 2.875v22.688c0 1.563 1.25 2.875 2.875 2.875h25.563c1.563 0 2.813-1.313 2.813-2.875v-22.688c0-1.563-1.25-2.813-2.75-2.875zM27.938 27.688c0 0.688-0.563 1.25-1.25 1.25h-21.438c-0.688 0-1.25-0.563-1.25-1.25v-11.688c0-0.688 0.563-1.25 1.25-1.25h21.438c0.688 0 1.25 0.563 1.25 1.25zM6.313 8.5h2c0.563 0 1.063-0.438 1.063-1.063v-6.375c0-0.563-0.5-1.063-1.063-1.063h-2c-0.625 0-1.125 0.5-1.125 1.063v6.375c0 0.625 0.5 1.063 1.125 1.063zM23.688 8.5h1.938c0.625 0 1.125-0.438 1.125-1.063v-6.375c0-0.563-0.5-1.063-1.125-1.063h-1.938c-0.625 0-1.125 0.5-1.125 1.063v6.375c0 0.625 0.5 1.063 1.125 1.063z"></path> </symbol><symbol id="safiricon-tamir" viewBox="0 0 32 32"> <path d="M0.875 26.875c-1.188 1.188-1.188 3.063 0 4.25 0.563 0.563 1.375 0.875 2.125 0.875s1.563-0.313 2.125-0.875l9.813-9.875-4.25-4.188zM25.5 8.625l4.25-2.188 2.25-4.313-2.063-2.125-4.375 2.25-2.188 4.25-5.25 5.25 2.125 2.125zM26.438 20h-0.438c-0.75 0-1.438 0.125-2.063 0.375l-12.313-12.313c0.25-0.625 0.375-1.313 0.375-2.063v-0.438c-0.25-3.063-2.813-5.563-6-5.563-0.875 0-1.75 0.25-2.563 0.625l4 3.938c0.188 0.25 0.375 0.5 0.438 0.75 0.25 0.688 0.125 1.5-0.438 2.125-0.375 0.375-0.875 0.563-1.438 0.563-0.188 0-0.438-0.063-0.688-0.125-0.25-0.125-0.5-0.25-0.688-0.438l-4-4c-0.375 0.75-0.563 1.625-0.563 2.563 0 3.188 2.438 5.75 5.563 5.938l0.375 0.063c0.75 0 1.438-0.188 2.125-0.375l12.25 12.25c-0.188 0.688-0.375 1.375-0.375 2.125l0.063 0.375c0.188 3.125 2.75 5.563 5.938 5.563 0.938 0 1.813-0.188 2.563-0.563l-3.938-4c-0.25-0.188-0.375-0.438-0.5-0.688-0.25-0.75-0.125-1.563 0.5-2.125 0.375-0.375 0.875-0.563 1.375-0.563 0.25 0 0.5 0 0.688 0.125 0.25 0.063 0.5 0.25 0.75 0.438l3.938 4c0.375-0.813 0.625-1.688 0.625-2.563 0-3.188-2.5-5.75-5.563-6z"></path> </symbol><symbol id="safiricon-telefon" viewBox="0 0 32 32"> <path d="M32 25.25c0.063 0.5-0.125 1-0.5 1.375l-4.5 4.438c-0.188 0.25-0.438 0.438-0.813 0.563-0.313 0.188-0.625 0.313-0.938 0.313 0 0-0.125 0-0.188 0.063-0.125 0-0.313 0-0.438 0-0.438 0-1.125-0.063-2.125-0.25-0.938-0.125-2.125-0.5-3.5-1.063s-3-1.438-4.75-2.563c-1.75-1.188-3.625-2.75-5.625-4.75-1.563-1.563-2.875-3.063-3.938-4.5-1-1.438-1.875-2.75-2.5-3.938s-1.063-2.313-1.375-3.313c-0.375-0.938-0.563-1.813-0.688-2.5-0.125-0.75-0.125-1.313-0.125-1.688 0-0.438 0.063-0.625 0.063-0.688 0-0.313 0.125-0.625 0.313-0.938 0.125-0.375 0.313-0.625 0.563-0.813l4.5-4.5c0.313-0.313 0.688-0.5 1.063-0.5 0.313 0 0.563 0.125 0.813 0.25 0.188 0.188 0.375 0.375 0.563 0.625l3.625 6.875c0.188 0.375 0.25 0.75 0.188 1.188-0.125 0.438-0.313 0.813-0.625 1.125l-1.625 1.625c-0.063 0.063-0.125 0.125-0.125 0.25-0.063 0.063-0.063 0.188-0.063 0.25 0.125 0.438 0.313 1 0.625 1.625 0.25 0.5 0.688 1.188 1.25 1.938 0.563 0.813 1.375 1.688 2.375 2.75 1.063 1 1.938 1.813 2.75 2.375 0.75 0.625 1.438 1 1.938 1.313 0.563 0.25 0.938 0.438 1.25 0.5l0.438 0.063c0 0 0.125 0 0.188-0.063 0.125 0 0.188-0.063 0.25-0.125l1.938-1.938c0.375-0.375 0.875-0.563 1.375-0.563 0.438 0 0.688 0.063 0.938 0.188h0.063l6.5 3.875c0.5 0.313 0.75 0.688 0.875 1.125z"></path> </symbol><symbol id="safiricon-ucak" viewBox="0 0 32 32"> <path d="M32 5.938c0-0.063 0-0.063 0-0.125 0 0 0 0 0-0.063 0 0-0.063-0.063-0.063-0.125s0-0.063 0-0.063c-0.063-0.063-0.125-0.063-0.125-0.125-0.063 0-0.063 0-0.063 0s-0.063-0.063-0.125-0.063c0 0-0.063 0-0.063 0s-0.063 0-0.125 0c0 0 0 0-0.063 0l-30.938 6.375c-0.25 0.063-0.375 0.25-0.438 0.438 0 0.25 0.063 0.438 0.313 0.563l8.813 4.688 1.563 8.625c0 0.063 0 0.063 0 0.125 0 0 0 0.063 0 0.063 0.063 0.063 0.063 0.063 0.063 0.125 0 0 0 0.063 0 0.063s0.063 0 0.063 0c0 0.063 0.063 0.063 0.063 0.125 0.063 0 0.063 0 0.063 0s0.063 0.063 0.125 0.063c0.063 0 0.125 0 0.188 0 0.125 0 0.313-0.063 0.375-0.125l5.938-3.938 6.188 4c0.063 0.063 0.188 0.063 0.25 0.063s0.125 0 0.188 0c0.125-0.063 0.25-0.188 0.313-0.313l7.438-20.25c0.063 0 0.063-0.063 0.063-0.063s0 0 0-0.063zM25.813 9.375l-12.75 9.375c-0.063 0-0.063 0.063-0.063 0.063s-0.063 0-0.063 0c0 0.063 0 0.063 0 0.063s0 0-0.063 0.063c0 0 0 0.063 0 0.063s0 0 0 0.063l-1.5 4.75-1.188-6.438zM12.188 24.813l1.5-4.813 2.25 1.5 0.625 0.438zM27.75 7.188l-18.125 9.25-7.5-3.938zM23.75 25.313l-9.438-6.125 16.063-11.813z"></path> </symbol><symbol id="safiricon-urun" viewBox="0 0 32 32"> <path d="M30.688 7.563c0-0.125 0-0.25-0.063-0.375-0.125-0.25-0.313-0.375-0.563-0.438l-13.75-6.688c-0.188-0.063-0.438-0.063-0.688 0l-13.875 6.75c-0.313 0.125-0.438 0.375-0.5 0.688 0 0 0 0.063 0 0.063v16.875c0 0.313 0.188 0.625 0.5 0.75l13.875 6.75c0 0 0.063 0 0.063 0s0 0 0.063 0c0 0 0 0 0.063 0.063 0 0 0.063 0 0.063 0 0.063 0 0.063 0 0.125 0 0 0 0.063 0 0.063 0 0.063 0 0.063 0 0.063 0 0.063 0 0.063 0 0.063 0 0-0.063 0-0.063 0.063-0.063s0.063 0 0.063 0l13.938-6.75c0.313-0.188 0.5-0.438 0.5-0.75v-16.875c-0.063 0-0.063 0-0.063 0zM16 1.688l12 5.875-4.438 2.125-12-5.813zM16 13.375l-12.063-5.813 5.75-2.813 12.063 5.875zM2.875 8.875l12.313 5.938v15.063l-12.313-5.938zM16.813 29.875v-15.063l5.75-2.813v3.938c0 0.438 0.375 0.813 0.813 0.813s0.813-0.375 0.813-0.813v-4.75l4.938-2.375v15.125z"></path> </symbol><symbol id="safiricon-video" viewBox="0 0 32 32"> <path d="M29.875 8c-4.438-7.625-14.25-10.25-21.875-5.875-7.625 4.438-10.25 14.25-5.875 21.875 4.438 7.688 14.25 10.25 21.875 5.875 7.688-4.438 10.25-14.25 5.875-21.875zM22.375 27.063c-6.063 3.563-13.938 1.438-17.438-4.688-3.563-6.063-1.438-13.938 4.688-17.438 6.125-3.563 13.938-1.438 17.438 4.688 3.563 6.125 1.438 13.938-4.688 17.438zM21.75 15.375l-8.375-4.938c-0.75-0.438-1.375-0.063-1.375 0.813l0.063 9.688c0 0.875 0.625 1.25 1.375 0.813l8.313-4.813c0.75-0.438 0.75-1.125 0-1.563z"></path> </symbol><symbol id="safiricon-whatsapp" viewBox="0 0 32 32"> <path d="M31.688 15.438c0 8.5-7 15.375-15.563 15.375-2.75 0-5.313-0.688-7.5-1.875l-8.625 2.75 2.813-8.313c-1.438-2.313-2.25-5.063-2.25-7.938 0-8.563 7-15.438 15.563-15.438s15.563 6.875 15.563 15.438zM16.125 2.438c-7.188 0-13.063 5.813-13.063 13 0 2.813 0.938 5.438 2.5 7.563l-1.625 4.813 5-1.563c2.063 1.375 4.5 2.125 7.188 2.125 7.188 0 13.063-5.813 13.063-12.938 0-7.188-5.875-13-13.063-13zM23.938 19c-0.063-0.188-0.313-0.25-0.688-0.438-0.375-0.25-2.25-1.125-2.625-1.25s-0.625-0.188-0.875 0.188c-0.25 0.375-0.938 1.25-1.188 1.5s-0.438 0.25-0.813 0.063c-0.375-0.188-1.625-0.563-3.063-1.875-1.125-1-1.938-2.25-2.125-2.625-0.25-0.375 0-0.563 0.188-0.75 0.125-0.188 0.375-0.438 0.563-0.688 0.188-0.188 0.25-0.375 0.375-0.625s0.063-0.438-0.063-0.625c-0.063-0.188-0.813-2.063-1.125-2.813-0.375-0.75-0.688-0.625-0.875-0.625-0.25 0-0.5-0.063-0.75-0.063s-0.688 0.125-1 0.5c-0.375 0.375-1.313 1.25-1.313 3.125s1.313 3.688 1.5 3.938c0.25 0.25 2.688 4.188 6.563 5.688s3.875 1 4.563 0.938c0.688-0.063 2.25-0.875 2.563-1.813 0.313-0.875 0.313-1.625 0.188-1.75z"></path> </symbol><symbol id="safiricon-yildiz" viewBox="0 0 32 32"> <path d="M31.313 14.563c0.625-0.625 0.875-1.5 0.563-2.375-0.25-0.813-1-1.438-1.813-1.563l-7.75-1.125c-0.375 0-0.625-0.25-0.813-0.5l-3.438-7.063c-0.375-0.75-1.188-1.25-2.063-1.25s-1.688 0.5-2.063 1.25l-3.438 7.063c-0.188 0.25-0.438 0.5-0.813 0.5l-7.75 1.125c-0.813 0.125-1.563 0.75-1.813 1.563-0.313 0.875-0.063 1.75 0.563 2.375l5.625 5.438c0.25 0.25 0.313 0.625 0.25 0.938l-1.313 7.688c-0.125 0.688 0.063 1.375 0.5 1.875 0.688 0.813 1.875 1.063 2.875 0.563l6.875-3.625c0.313-0.188 0.688-0.188 1 0l6.875 3.625c0.375 0.188 0.75 0.25 1.125 0.25 0.625 0 1.313-0.313 1.75-0.813s0.625-1.188 0.5-1.875l-1.313-7.688c-0.063-0.313 0-0.688 0.25-0.938z"></path> </symbol><symbol id="safiricon-yorum" viewBox="0 0 32 32"> <path d="M16 0.813c-8.813 0-16 6.438-16 14.375 0 2.813 0.875 5.5 2.563 7.813-0.313 3.5-1.188 6.063-2.375 7.313-0.188 0.125-0.25 0.375-0.125 0.563 0.063 0.188 0.25 0.313 0.5 0.313 0 0 0 0 0.063 0 0.188 0 5.188-0.75 8.875-2.813 2.063 0.813 4.25 1.25 6.5 1.25 8.813 0 16-6.5 16-14.438s-7.188-14.375-16-14.375zM8.563 17.313c-1.188 0-2.188-0.938-2.188-2.125s1-2.125 2.188-2.125c1.125 0 2.125 0.938 2.125 2.125s-1 2.125-2.125 2.125zM16 17.313c-1.188 0-2.125-0.938-2.125-2.125s0.938-2.125 2.125-2.125c1.188 0 2.125 0.938 2.125 2.125s-0.938 2.125-2.125 2.125zM23.438 17.313c-1.125 0-2.125-0.938-2.125-2.125s1-2.125 2.125-2.125c1.188 0 2.188 0.938 2.188 2.125s-1 2.125-2.188 2.125z"></path> </symbol><symbol id="safiricon-yorumyaz" viewBox="0 0 32 32"> <path d="M19.813 14.063l1.5 0.875 3-1.688-4.5-2.688zM28.875 8.625l1.063-1.938c0.875-1.5-1.563-3.188-2.75-3.813-1.188-0.688-3.875-2.063-4.75-0.438l-1.438 2.563c-1.5-0.313-3.25-0.563-4.938-0.563-8.875 0-16.063 4.813-16.063 10.688 0 5.938 7.188 10.75 16.063 10.75 0 0 0 0 0.063 0 0.125 1.25-1.375 3.375-3.5 4.438 8.438 0 12.313-6.313 12.313-6.313 4.25-1.875 7.063-5.125 7.063-8.875 0.188-2.438-1.063-4.688-3.125-6.5zM7.375 18.125c-0.875 0-1.5-0.625-1.5-1.5 0-0.813 0.625-1.5 1.5-1.5s1.5 0.688 1.5 1.5c0 0.875-0.75 1.5-1.5 1.5zM11.313 18.125c-0.813 0-1.5-0.625-1.5-1.5 0-0.813 0.688-1.5 1.5-1.5 0.875 0 1.5 0.688 1.5 1.5 0 0.875-0.625 1.5-1.5 1.5zM15.313 18.125c-0.875 0-1.5-0.625-1.5-1.5 0-0.813 0.625-1.5 1.5-1.5 0.813 0 1.5 0.688 1.5 1.5 0 0.875-0.688 1.5-1.5 1.5zM24.813 13.563l-3.125 1.688-2.563 1.375v-6.375l4.313-7.375c0.188-0.438 1.688 0 3.313 0.813 1.625 0.875 2.688 1.938 2.375 2.375z"></path> </symbol></svg>