<svg width="334" height="60" viewBox="0 0 334 60" fill="none" xmlns="http://www.w3.org/2000/svg">
<g clip-path="url(#clip0_54_32)">
<path d="M30 54.5455C43.5561 54.5455 54.5455 43.5561 54.5455 30C54.5455 16.4439 43.5561 5.45447 30 5.45447C16.4439 5.45447 5.45447 16.4439 5.45447 30C5.45447 43.5561 16.4439 54.5455 30 54.5455Z" fill="#ECF0F9"/>
<path d="M27.2727 27.2727L15 47.7273L35.4545 35.4545L47.7273 15L27.2727 27.2727Z" fill="#D5E3EF"/>
<path d="M30 0C13.3636 0 0 13.3636 0 30C0 46.6364 13.3636 60 30 60C46.6364 60 60 46.6364 60 30C60 13.3636 46.6364 0 30 0ZM30 54.5455C16.5 54.5455 5.45449 43.5 5.45449 30C5.45449 16.5 16.5 5.45449 30 5.45449C43.5 5.45449 54.5455 16.5 54.5455 30C54.5455 43.5 43.5 54.5455 30 54.5455Z" fill="#595A66"/>
<path d="M7.49998 32.0455C7.49998 18.5455 18.5455 7.49998 32.0455 7.49998C38.3182 7.49998 44.0455 9.81818 48.2728 13.7727C43.7727 8.59087 37.3636 5.45447 30 5.45447C16.5 5.45447 5.45447 16.5 5.45447 30C5.45447 37.3636 8.59087 43.7727 13.7727 48.2727C9.81818 44.0455 7.49998 38.3182 7.49998 32.0455Z" fill="#D5E3EF"/>
<path d="M6.8182 31.3635H1.36359C0.545508 31.3635 0 30.8181 0 29.9999C0 29.1817 0.545508 28.6364 1.36359 28.6364H6.81809C7.63629 28.6364 8.18168 29.1819 8.18168 29.9999C8.1818 30.8181 7.63641 31.3635 6.8182 31.3635Z" fill="#595A66"/>
<path d="M5.59087 28.6364C5.45447 29.0455 5.45447 29.5908 5.45447 29.9999C5.45447 30.409 5.45447 30.9544 5.59087 31.3635H6.81818C7.09087 31.3635 7.36369 31.2271 7.49998 31.0908C7.49998 30.409 7.63638 29.5908 7.63638 28.909C7.49998 28.7726 7.22728 28.6364 6.81818 28.6364H5.59087Z" fill="#494A52"/>
<path d="M58.6364 31.3636H53.1819C52.3637 31.3636 51.8183 30.8181 51.8183 30C51.8183 29.1818 52.3638 28.6364 53.1819 28.6364H58.6364C59.4546 28.6364 59.9999 29.1819 59.9999 30C59.9999 30.8182 59.4544 31.3636 58.6364 31.3636ZM28.6364 6.8182V1.36359C28.6364 0.545508 29.1817 0 29.9999 0C30.8181 0 31.3635 0.545508 31.3635 1.36359V6.81809C31.3635 7.63629 30.818 8.18168 29.9999 8.18168C29.1817 8.1818 28.6364 7.63641 28.6364 6.8182Z" fill="#595A66"/>
<path d="M29.9999 5.45447C29.5908 5.45447 29.0455 5.45447 28.6364 5.59087V6.81818C28.6364 7.22728 28.7728 7.49998 29.0455 7.77267C29.7273 7.63627 30.409 7.63627 31.2273 7.63627C31.2273 7.36357 31.3637 7.09076 31.3637 6.81806V5.59087C30.9544 5.45447 30.409 5.45447 29.9999 5.45447Z" fill="#494A52"/>
<path d="M28.6364 58.6364V53.182C28.6364 52.3637 29.1819 51.8184 29.9999 51.8184C30.8181 51.8184 31.3635 52.3639 31.3635 53.182V58.6364C31.3635 59.4546 30.818 60 29.9999 60C29.1817 60 28.6364 59.4545 28.6364 58.6364Z" fill="#595A66"/>
<path d="M29.9999 45C29.1817 45 28.6364 44.4545 28.6364 43.6364V16.3636C28.6364 15.5454 29.1819 15 29.9999 15C30.8181 15 31.3635 15.5455 31.3635 16.3636V43.6363C31.3635 44.4545 30.8181 45 29.9999 45Z" fill="#B0C4D9"/>
<path d="M28.6364 39.4091L31.3635 37.7727V24.9545L28.6364 26.4545V39.4091Z" fill="#89ABC6"/>
<path d="M36.6818 36.6818C36.1363 37.2273 35.3182 37.2273 34.7727 36.6818L23.1818 25.0909C22.6363 24.5454 22.6363 23.7273 23.1818 23.1818C23.7273 22.6363 24.5454 22.6363 25.0909 23.1818L36.6818 34.7727C37.2273 35.3182 37.2273 36.2727 36.6818 36.6818Z" fill="#B0C4D9"/>
<path d="M34.2273 36.1365L35.4545 35.4545L36.1365 34.2273L28.5 26.5909L27.2727 27.2727L26.5909 28.5L34.2273 36.1365Z" fill="#89ABC6"/>
<path d="M15 29.9999C15 29.1817 15.5455 28.6364 16.3636 28.6364H43.6363C44.4545 28.6364 44.9999 29.1819 44.9999 29.9999C44.9999 30.8181 44.4544 31.3635 43.6363 31.3635H16.3636C15.5455 31.3635 15 30.8181 15 29.9999Z" fill="#B0C4D9"/>
<path d="M24.9545 31.3635H37.7727L39.4091 28.6364H26.4545L24.9545 31.3635Z" fill="#89ABC6"/>
<path d="M34.0909 34.0908L25.9091 25.909L46.3635 13.6364L34.0909 34.0908Z" fill="#F04B4D"/>
<path d="M25.909 25.9091L34.0908 34.0909L13.6364 46.3635L25.909 25.9091Z" fill="#4C9CD6"/>
<path d="M25.909 25.9091L13.6364 46.3635L29.9999 30L25.909 25.9091Z" fill="#70B7E5"/>
<path d="M30 29.9999L46.3635 13.6364L25.9091 25.909L30 29.9999Z" fill="#F26A56"/>
<path d="M30 32.7273C31.5063 32.7273 32.7273 31.5063 32.7273 30C32.7273 28.4938 31.5063 27.2727 30 27.2727C28.4938 27.2727 27.2727 28.4938 27.2727 30C27.2727 31.5063 28.4938 32.7273 30 32.7273Z" fill="#595A66"/>
<path d="M31.0909 27.5455C31.2273 27.9546 31.3636 28.2273 31.3636 28.6364C31.3636 30.1364 30.1363 31.3637 28.6363 31.3637C28.2272 31.3637 27.8181 31.2273 27.5454 31.091C27.9545 32.0455 28.909 32.7274 29.9999 32.7274C31.4999 32.7274 32.7272 31.5001 32.7272 30.0001C32.7273 28.9091 32.0455 27.9545 31.0909 27.5455Z" fill="#494A52"/>
<path d="M30 0C13.3636 0 0 13.3636 0 30C1.5 30 2.7273 28.9091 2.86359 27.4091C3.54551 20.8636 6.4091 14.8636 10.9091 10.5C15.2727 6.27269 21 3.4091 27.4091 2.86359C28.9091 2.7273 30 1.5 30 0Z" fill="#6F707E"/>
<path d="M30 60C46.6364 60 60 46.6364 60 30C58.5 30 57.2727 31.0909 57.1364 32.5909C56.5909 39 53.7273 44.7273 49.5 49.0909C45.1364 53.5909 39.2727 56.4545 32.5909 57.1364C31.0909 57.2727 30 58.5 30 60Z" fill="#494A52"/>
<path d="M29.3182 29.9999C29.6947 29.9999 29.9999 29.6947 29.9999 29.3182C29.9999 28.9416 29.6947 28.6364 29.3182 28.6364C28.9416 28.6364 28.6364 28.9416 28.6364 29.3182C28.6364 29.6947 28.9416 29.9999 29.3182 29.9999Z" fill="#6F707E"/>
</g>
<path d="M79.066 14.8C87.162 14.8 91.808 18.802 91.808 25.794C91.808 33.062 87.162 37.294 79.066 37.294H71.66V47H66.232V14.8H79.066ZM78.836 32.418C83.804 32.418 86.61 30.302 86.61 25.932C86.61 21.7 83.804 19.676 78.836 19.676H71.66V32.418H78.836ZM100.127 33.66C100.127 39.088 103.485 42.354 108.775 42.354C114.019 42.354 117.285 39.134 117.285 33.66V14.8H122.713V33.66C122.713 42.078 117.423 47.23 108.729 47.23C100.035 47.23 94.6992 42.078 94.6992 33.66V14.8H100.127V33.66ZM148.228 22.666C144.732 20.55 141.236 19.676 138.798 19.676C135.624 19.676 133.554 20.872 133.554 23.034C133.554 30.072 150.942 26.3 150.896 37.892C150.896 43.642 145.836 47.184 138.752 47.184C133.692 47.184 128.908 45.114 125.596 42.078L127.942 37.386C131.254 40.422 135.394 42.078 138.844 42.078C142.616 42.078 144.87 40.652 144.87 38.168C144.87 30.992 127.482 34.994 127.482 23.54C127.482 18.02 132.22 14.57 139.212 14.57C143.398 14.57 147.492 15.904 150.482 17.882L148.228 22.666ZM160.191 33.66C160.191 39.088 163.549 42.354 168.839 42.354C174.083 42.354 177.349 39.134 177.349 33.66V14.8H182.777V33.66C182.777 42.078 177.487 47.23 168.793 47.23C160.099 47.23 154.763 42.078 154.763 33.66V14.8H160.191V33.66ZM188.696 14.8H194.124V42.078H208.062V47H188.696V14.8ZM235.572 47L232.49 39.732H216.252L213.17 47H207.512L221.726 14.8H227.292L241.368 47H235.572ZM218.276 34.902H230.42L224.348 20.596L218.276 34.902Z" fill="#565656"/>
<path d="M236.735 14.754H245.797L251.915 38.076L257.987 14.754H266.221L272.339 38.076L278.411 14.754H287.059L276.433 47H267.739L261.943 25.242L255.963 47H247.315L236.735 14.754ZM302.191 14.754C310.425 14.754 315.163 18.894 315.163 26.07C315.163 33.66 310.425 38.076 302.191 38.076H296.441V47H288.023V14.754H302.191ZM301.777 31.36C305.181 31.36 307.159 29.612 307.159 26.346C307.159 23.172 305.181 21.47 301.777 21.47H296.441V31.36H301.777Z" fill="#0EAC51"/>
<circle cx="316" cy="42" r="4" fill="#0EAC51"/>
<circle cx="328" cy="32" r="6" fill="#565656"/>
<defs>
<clipPath id="clip0_54_32">
<rect width="60" height="60" fill="white"/>
</clipPath>
</defs>
</svg>
