<svg version="1.1" xmlns="http://www.w3.org/2000/svg" xmlns:xlink="http://www.w3.org/1999/xlink" viewBox="0 0 32 32" style="display:none"><symbol id="themeicon-address" viewBox="0 0 512 512"><path d="m256 0c-113 0-205 92-205 205 0 13 1 26 3 39 0 1 1 3 2 7 3 13 7 27 13 40 23 52 71 132 178 218 3 2 6 3 9 3 3 0 6-1 9-3 107-86 155-166 178-218 6-13 10-26 13-40 1-4 2-6 2-7 2-13 3-26 3-39 0-113-92-205-205-205z m173 239c0 1-1 3-1 5-3 12-7 24-12 35 0 0 0 1 0 1-20 47-64 120-160 199-96-79-140-152-160-199 0 0 0-1 0-1-5-11-9-23-12-35-1-2-1-4-1-5-2-11-3-23-3-34 0-97 79-176 176-176 97 0 176 79 176 176 0 12-1 23-3 34z m-173-162c-72 0-130 59-130 130 0 72 58 131 130 131 72 0 130-59 130-131 0-71-58-130-130-130z m0 232c-56 0-101-46-101-102 0-55 45-101 101-101 56 0 101 46 101 101 0 56-45 102-101 102z"></path></symbol><symbol id="themeicon-arrow" viewBox="0 0 512 512"><path d="m256 402c-9 0-18-4-25-11l-220-220c-15-14-15-36 0-50 13-14 36-14 50 0l195 194 195-194c14-14 36-14 50 0 14 14 14 36 0 50l-220 220c-7 7-16 11-25 11z"></path></symbol><symbol id="themeicon-close" viewBox="0 0 512 512"><path d="m317 256l182-183c17-16 17-44 0-60-16-17-44-17-60 0l-183 182-183-182c-16-17-44-17-60 0-17 16-17 44 0 60l182 183-182 183c-17 16-17 44 0 60 16 17 44 17 60 0l183-182 183 182c16 17 44 17 60 0 17-16 17-44 0-60z"></path></symbol><symbol id="themeicon-comment" viewBox="0 0 512 512"><path d="m256 13c-141 0-256 103-256 230 0 45 14 88 41 125-5 56-19 97-38 117-3 2-4 6-2 9 1 3 4 5 8 5 0 0 0 0 1 0 3 0 83-12 142-45 33 13 68 20 104 20 141 0 256-104 256-231 0-127-115-230-256-230z m-119 264c-19 0-35-15-35-34 0-19 16-34 35-34 18 0 34 15 34 34 0 19-16 34-34 34z m119 0c-19 0-34-15-34-34 0-19 15-34 34-34 19 0 34 15 34 34 0 19-15 34-34 34z m119 0c-18 0-34-15-34-34 0-19 16-34 34-34 19 0 35 15 35 34 0 19-16 34-35 34z"></path></symbol><symbol id="themeicon-date" viewBox="0 0 512 512"><path d="m187 283c0-7-6-12-12-12l-41 0c-6 0-11 5-11 12l0 40c0 7 5 12 11 12l41 0c6 0 12-5 12-12z m101 0c0-7-5-12-12-12l-40 0c-7 0-12 5-12 12l0 40c0 7 5 12 12 12l40 0c7 0 12-5 12-12z m101 0c0-7-5-12-11-12l-41 0c-6 0-11 5-11 12l0 40c0 7 5 12 11 12l41 0c6 0 11-5 11-12z m-202 101c0-6-6-12-12-12l-41 0c-6 0-11 6-11 12l0 41c0 6 5 11 11 11l41 0c6 0 12-5 12-11z m101 0c0-6-5-12-12-12l-40 0c-7 0-12 6-12 12l0 41c0 6 5 11 12 11l40 0c7 0 12-5 12-11z m101 0c0-6-5-12-11-12l-41 0c-6 0-11 6-11 12l0 41c0 6 5 11 11 11l41 0c6 0 11-5 11-11z m73-327l0 62c0 28-23 51-51 51l-32 0c-28 0-51-23-51-51l0-62-144 0 0 62c0 28-23 51-51 51l-32 0c-28 0-51-23-51-51l0-62c-24 1-44 21-44 46l0 363c0 25 20 46 46 46l409 0c25 0 45-21 45-46l0-363c0-25-20-45-44-46z m-15 386c0 11-9 20-20 20l-343 0c-11 0-20-9-20-20l0-187c0-11 9-20 20-20l343 0c11 0 20 9 20 20z m-346-307l32 0c9 0 17-7 17-17l0-102c0-9-8-17-17-17l-32 0c-10 0-18 8-18 17l0 102c0 10 8 17 18 17z m278 0l31 0c10 0 18-7 18-17l0-102c0-9-8-17-18-17l-31 0c-10 0-18 8-18 17l0 102c0 10 8 17 18 17z"></path></symbol><symbol id="themeicon-email" viewBox="0 0 512 512"><path d="m256 329l-63-55-181 155c6 6 15 10 25 10l438 0c10 0 19-4 25-10l-181-155z m244-246c-6-6-15-10-25-10l-438 0c-10 0-19 4-25 10l244 210z m-500 22l0 304 177-150z m335 154l177 150 0-304z"></path></symbol><symbol id="themeicon-email2" viewBox="0 0 512 512"><path d="m512 127c0-15-12-27-27-27l-459 1c-7 0-13 3-18 8-5 5-8 11-8 18l0 258c0 7 3 14 8 19 5 5 12 8 19 8l459-1c14 0 26-12 26-26z m-55 0l-201 139-201-139z m-116 165l119 93-408 0 120-93c5-4 6-12 2-18-5-6-13-7-19-2l-128 100-1-233 223 154c2 1 4 2 7 2 3 0 5-1 8-2l221-154 1 233-129-100c-6-5-14-4-18 2-5 6-4 14 2 18z"></path></symbol><symbol id="themeicon-facebook" viewBox="0 0 512 512"><path d="m256 0c-141 0-256 115-256 256 0 141 115 256 256 256 141 0 256-115 256-256 0-141-115-256-256-256z m66 256l-42 0 0 154-57 0 0-154-39 0 0-53 39 0 0-31c0-43 11-70 62-70l42 0 0 53-26 0c-20 0-21 8-21 22l0 26 48 0z"></path></symbol><symbol id="themeicon-fax" viewBox="0 0 512 512"><path d="m112 23l288 0 0 83-288 0z m375 112l-462 0c-14 0-25 12-25 25l0 184 75 0 0-112 362 0 0 112 75 0 0-184c0-13-11-25-25-25z m-416 61c-11 0-20-8-20-19 0-11 9-20 20-20 11 0 20 9 20 20 0 11-9 19-20 19z m387-12l-346 0 0-24 346 0z m-91 271l-222 0 0-193-36 0 0 197c0 0-2 30 29 30 31 0 240 0 240 0 22 0 25-18 25-39l0-188-36 0z m-204-141l183 0 0 32-183 0z m2 72l183 0 0 31-183 0z"></path></symbol><symbol id="themeicon-folder" viewBox="0 0 512 512"><path d="m205 51l-154 0c-28 0-51 23-51 51l0 308c0 28 23 51 51 51l410 0c28 0 51-23 51-51l0-256c0-29-23-52-51-52l-205 0z"></path></symbol><symbol id="themeicon-full" viewBox="0 0 215.35 215.35"><g><path d="M7.5 65.088a7.5 7.5 0 0 0 7.5-7.5V25.61l48.305 48.295a7.479 7.479 0 0 0 5.303 2.196c1.92 0 3.84-.732 5.304-2.197a7.498 7.498 0 0 0-.001-10.606L25.604 15.002h31.985a7.5 7.5 0 0 0 0-15H7.5a7.5 7.5 0 0 0-7.5 7.5v50.087a7.5 7.5 0 0 0 7.5 7.499zM207.85 150.262a7.5 7.5 0 0 0-7.5 7.5v31.979l-49.792-49.792a7.5 7.5 0 0 0-10.607 10.606l49.791 49.791h-31.977a7.5 7.5 0 0 0-7.5 7.5 7.5 7.5 0 0 0 7.5 7.5h50.086a7.5 7.5 0 0 0 7.5-7.5v-50.084a7.502 7.502 0 0 0-7.501-7.5zM64.792 139.949 15.005 189.74v-31.978c0-4.142-3.357-7.5-7.5-7.5s-7.5 3.358-7.5 7.5v50.086a7.5 7.5 0 0 0 7.5 7.5h50.084a7.5 7.5 0 0 0 0-15H25.611l49.788-49.793a7.5 7.5 0 1 0-10.607-10.606zM207.85.002h-50.086a7.5 7.5 0 0 0-7.5 7.5 7.5 7.5 0 0 0 7.5 7.5h31.979l-48.298 48.301a7.5 7.5 0 0 0 5.304 12.803 7.482 7.482 0 0 0 5.304-2.197l48.298-48.301v31.98a7.5 7.5 0 0 0 7.5 7.5 7.5 7.5 0 0 0 7.5-7.5V7.502a7.501 7.501 0 0 0-7.501-7.5z"></path></g></symbol><symbol id="themeicon-hit" viewBox="0 0 512 512"><path d="m192 512l128 0 0-512-128 0z m-192 0l128 0 0-256-128 0z m384-352l0 352 128 0 0-352z"></path></symbol><symbol id="themeicon-id" viewBox="0 0 512 512"><path d="m443 52l-116 0c-10-30-38-52-72-52-33 0-61 22-71 52l-115 0c-24 0-44 20-44 44l0 372c0 24 20 44 44 44l374 0c24 0 44-20 44-44l0-372c0-24-20-44-44-44z m-188-3c15 0 27 12 27 26 0 14-12 26-27 26-14 0-26-12-26-26 0-14 12-26 26-26z m131 377c0 8-7 14-15 14l-230 0c-8 0-15-6-15-14l0-7c0-18 9-35 23-46 29-21 57-35 63-38 1 0 1-1 1-2l0-25c-4-7-6-14-7-20-3-1-7-5-11-19-5-19 1-22 5-21-1-3-1-6-2-8-1-9-2-18 0-26 3-11 9-19 15-26 4-4 9-8 14-11 4-3 8-6 13-7 4-1 8-2 12-3 14-1 24 3 31 7 11 6 15 14 15 14 0 0 24 2 16 52-1 2-1 5-2 8 5-1 11 2 5 21-4 14-8 18-10 19-1 6-4 13-8 20l0 25c0 1 1 2 2 2 6 3 33 17 62 38 15 11 23 28 23 46z"></path></symbol><symbol id="themeicon-instagram" viewBox="0 0 512 512"><path d="m254 305c28 0 51-23 51-51 0-11-4-21-10-29-9-13-24-22-41-22-17 0-32 9-41 22-6 8-10 18-10 29 0 28 23 51 51 51z m111-113l0-49-49 0 0 49z m-111-192c-140 0-254 114-254 254 0 140 114 254 254 254 140 0 254-114 254-254 0-140-114-254-254-254z m145 225l0 118c0 31-25 56-56 56l-177 0c-31 0-56-25-56-56l0-177c0-31 25-56 56-56l177 0c31 0 56 25 56 56z m-66 29c0 44-35 79-79 79-43 0-79-35-79-79 0-10 2-20 6-29l-43 0 0 118c0 15 12 28 28 28l177 0c15 0 28-13 28-28l0-118-44 0c4 9 6 19 6 29z"></path></symbol><symbol id="themeicon-left" viewBox="0 0 512 512"><path d="m110 256c0-9 4-18 11-25l220-220c14-15 36-15 50 0 14 13 14 36 0 50l-194 195 194 195c14 14 14 36 0 50-14 14-36 14-50 0l-220-220c-7-7-11-16-11-25z"></path></symbol><symbol id="themeicon-leftarrow" viewBox="0 0 512 512"><path d="m512 136c0-4-2-8-5-11-3-3-7-5-11-5l-224 0 0-104c0-6-4-12-10-15-6-2-13-1-17 4l-240 240c-3 3-5 7-5 11 0 4 2 8 5 11l240 240c4 5 11 6 17 4 6-3 10-9 10-15l0-104 224 0c4 0 8-2 11-5 3-3 5-7 5-11z"></path></symbol><symbol id="themeicon-link" viewBox="0 0 511.997 511.997"><path d="M212.26 390.24l-60.331 60.331c-25.012 25.012-65.517 25.012-90.508.005-24.996-24.996-24.996-65.505-.005-90.496l120.683-120.683c24.991-24.992 65.5-24.992 90.491 0 8.331 8.331 21.839 8.331 30.17 0 8.331-8.331 8.331-21.839 0-30.17-41.654-41.654-109.177-41.654-150.831 0L31.247 329.909c-41.654 41.654-41.654 109.177 0 150.831 41.649 41.676 109.177 41.676 150.853 0l60.331-60.331c8.331-8.331 8.331-21.839 0-30.17s-21.84-8.33-30.171.001z"/><path d="M480.751 31.24c-41.654-41.654-109.199-41.654-150.853 0l-72.384 72.384c-8.331 8.331-8.331 21.839 0 30.17 8.331 8.331 21.839 8.331 30.17 0l72.384-72.384c24.991-24.992 65.521-24.992 90.513 0 24.991 24.991 24.991 65.5 0 90.491L317.845 284.638c-24.992 24.992-65.5 24.992-90.491 0-8.331-8.331-21.839-8.331-30.17 0s-8.331 21.839 0 30.17c41.654 41.654 109.177 41.654 150.831 0l132.736-132.736c41.654-41.654 41.654-109.178 0-150.832z"/></symbol><symbol id="themeicon-linkedin" viewBox="0 0 512 512"><path d="m256 0c-141 0-256 115-256 256 0 141 115 256 256 256 141 0 256-115 256-256 0-141-115-256-256-256z m-64 380l-64 0 0-224 64 0z m-30-238c-17 0-30-13-30-30 0-16 13-30 30-30 17 0 30 14 30 30 0 17-13 30-30 30z m254 238l-64 0 0-138c0-17-5-28-25-28-33 0-39 28-39 28l0 138-64 0 0-224 64 0 0 21c9-7 32-21 64-21 21 0 64 12 64 87z"></path></symbol><symbol id="themeicon-list" viewBox="0 0 512 512"><path d="m512 64c0-13-9-21-21-21l-470 0c-12 0-21 8-21 21l0 43c0 12 9 21 21 21l470 0c12 0 21-9 21-21z m0 171c0-13-9-22-21-22l-470 0c-12 0-21 9-21 22l0 42c0 13 9 22 21 22l470 0c12 0 21-9 21-22z m0 170c0-12-9-21-21-21l-470 0c-12 0-21 9-21 21l0 43c0 13 9 21 21 21l470 0c12 0 21-8 21-21z"></path></symbol><symbol id="themeicon-phone" viewBox="0 0 512 512"><path d="m512 404c1 8-2 16-8 22l-72 71c-3 4-7 7-13 9-5 3-10 5-15 5 0 0-2 0-3 1-2 0-5 0-7 0-7 0-18-1-34-4-15-2-34-8-56-17-22-9-48-23-76-41-28-19-58-44-90-76-25-25-46-49-63-72-16-23-30-44-40-63-10-19-17-37-22-53-6-15-9-29-11-40-2-12-2-21-2-27 0-7 1-10 1-11 0-5 2-10 5-15 2-6 5-10 9-13l72-72c5-5 11-8 17-8 5 0 9 2 13 4 3 3 6 6 9 10l58 110c3 6 4 12 3 19-2 7-5 13-10 18l-26 26c-1 1-2 2-2 4-1 1-1 3-1 4 2 7 5 16 10 26 4 8 11 19 20 31 9 13 22 27 38 44 17 16 31 29 44 38 12 10 23 16 31 21 9 4 15 7 20 8l7 1c0 0 2 0 3-1 2 0 3-1 4-2l31-31c6-6 14-9 22-9 7 0 11 1 15 3l1 0 104 62c8 5 12 11 14 18z"></path></symbol><symbol id="themeicon-phone2" viewBox="0 0 512 512"><path d="m405 317c-11-11-23-17-37-17-13 0-26 6-37 17l-34 34c-3-1-6-3-8-4-4-2-8-4-11-6-32-20-61-47-89-81-13-17-23-31-29-46 9-8 17-17 25-25 3-3 6-6 9-9 23-23 23-52 0-75l-29-29c-4-3-7-7-11-10-6-7-13-14-20-20-10-11-23-16-36-16-13 0-26 5-37 16l-37 37c-14 14-21 30-23 50-3 32 7 61 14 80 17 47 43 91 82 138 48 57 105 101 170 133 25 11 58 25 95 28 2 0 4 0 7 0 25 0 45-9 62-27 6-7 12-13 19-20 5-4 10-9 14-14 11-11 17-24 17-37 0-14-6-26-17-37z m38 114c-4 4-8 9-13 13-7 7-14 14-21 22-11 11-23 17-40 17-2 0-4 0-5 0-32-2-62-15-85-25-61-30-114-72-159-125-37-45-62-86-78-130-10-27-14-48-12-68 1-12 6-23 15-32l37-37c5-5 11-7 16-7 7 0 13 4 16 7 0 0 0 1 0 1 7 6 13 12 20 19 3 3 7 7 10 11l30 29c11 11 11 22 0 34-4 3-7 6-10 9-9 9-18 18-27 26 0 0 0 0 0 1-10 9-8 18-6 24 0 1 0 1 0 1 8 19 19 36 35 57 30 37 62 66 96 88 5 2 9 5 14 7 3 2 7 4 10 6 1 0 1 0 2 0 3 2 7 3 10 3 9 0 15-6 17-7l37-37c3-4 9-9 16-9 7 0 12 5 15 8 1 0 1 0 1 1l59 59c11 11 11 23 0 34z m-166-309c28 5 54 18 74 38 21 21 34 47 39 75 1 7 7 12 14 12 1 0 2 0 3 0 8-1 13-9 12-17-6-34-22-65-47-90-25-25-56-41-90-47-8-1-16 4-17 12-1 8 4 15 12 17z m234 104c-9-57-36-108-77-149-40-41-92-67-148-77-8-1-16 4-17 12-1 8 4 16 12 17 50 9 96 32 133 69 36 36 60 82 69 133 1 7 7 12 14 12 1 0 2 0 3-1 7-1 13-8 11-16z"></path></symbol><symbol id="themeicon-pinterest" viewBox="0 0 512 512"><path d="m256 10c68 0 126 24 174 72c48 48 72 106 72 174c0 68-24 125-72 174c-48 48-106 72-174 72c-68 0-126-24-174-72c-48-49-72-106-72-174c0-68 24-126 72-174c48-48 106-72 174-72m16 303c28 3 50-8 66-32c16-25 21-53 17-83c-3-25-16-44-38-57c-21-13-46-17-74-14c-23 3-43 12-60 29c-18 16-27 36-27 60c-2 34 10 54 35 59c4-8 5-13 5-16c0-4-2-8-5-13c-3-5-5-9-6-14c-4-32 9-57 40-73c32-17 59-14 81 9c17 16 20 42 10 76c-9 34-26 49-50 44c-13-3-19-12-17-28c3-16 7-30 13-44c5-14 2-24-11-31c-14-6-26 0-33 17c-8 18-8 33 0 46c-1 7-5 21-11 42c-5 22-9 37-9 45c0 8 0 25 1 50c17-13 31-42 40-88c15 10 27 16 33 16"></path></symbol><symbol id="themeicon-reply1" viewBox="0 0 512 512"><path d="m313 356l0 113 199-199-199-199 0 117c-142 0-242-46-313-145 28 142 114 284 313 313z"></path></symbol><symbol id="themeicon-reply2" viewBox="0 0 512 512"><path d="m259 163c-4 0-9 0-13-1l0-55c0-20-11-28-25-17l-186 135c0 0-7 6-7 13 0 8 7 14 7 14l186 135c14 10 25 3 25-17l0-68c16-2 32-2 48-1 81 7 150 56 190 126 2-136-96-253-225-264z"></path></symbol><symbol id="themeicon-right" viewBox="0 0 512 512"><path d="m391 281l-220 220c-14 14-36 14-50 0-14-14-14-36 0-50l194-195-194-195c-14-14-14-37 0-50 14-15 36-15 50 0l220 220c7 7 11 16 11 25 0 9-4 18-11 25z"></path></symbol><symbol id="themeicon-rightarrow" viewBox="0 0 512 512"><path d="m0 376c0 4 2 8 5 11 3 3 7 5 11 5l224 0 0 104c0 6 4 12 10 15 6 2 13 1 17-4l240-240c3-3 5-7 5-11 0-4-2-8-5-11l-240-240c-4-5-11-6-17-4-6 3-10 9-10 15l0 104-224 0c-4 0-8 2-11 5-3 3-5 7-5 11z"></path></symbol><symbol id="themeicon-rss" viewBox="0 0 512 512"><path d="m256 0c-141 0-256 115-256 256 0 141 115 256 256 256 141 0 256-115 256-256 0-141-115-256-256-256z m-96 384c-18 0-32-14-32-32 0-18 14-32 32-32 18 0 32 14 32 32 0 18-14 32-32 32z m88 0c0-66-54-120-120-120l0-48c93 0 168 75 168 168z m96 0c0-58-22-112-63-153-41-41-95-63-153-63l0-48c71 0 137 27 187 77 50 50 77 116 77 187z"></path></symbol><symbol id="themeicon-search" viewBox="0 0 512 512"><path d="m496 466l-122-126c31-38 48-84 48-133 0-114-92-207-206-207-114 0-207 93-207 207 0 114 93 206 207 206 42 0 83-12 118-37l123 128c5 5 12 8 19 8 7 0 14-3 19-8 11-10 11-27 1-38z m-280-412c84 0 152 68 152 153 0 84-68 153-152 153-85 0-153-69-153-153 0-85 68-153 153-153z"></path></symbol><symbol id="themeicon-share" viewBox="0 0 512 512"><path d="m408 338c-23 0-45 9-61 26-5 4-9 9-12 15l-150-91c4-10 6-21 6-32 0-12-2-23-6-32l150-91c15 24 42 41 73 41 48 0 87-39 87-87 0-48-39-87-87-87-48 0-87 39-87 87 0 11 2 21 6 31l-150 90c-16-23-43-39-73-39-48 0-87 39-87 87 0 47 39 86 87 86 30 0 57-15 73-39l150 91c-4 10-6 20-6 31 0 23 9 45 26 62 16 16 38 25 61 25 23 0 45-9 61-25 17-17 26-39 26-62 0-23-9-45-26-61-16-17-38-26-61-26z"></path></symbol><symbol id="themeicon-tiktok" viewBox="0 0 512 512"><g><path d="M256 0C114.637 0 0 114.637 0 256s114.637 256 256 256 256-114.637 256-256S397.363 0 256 0zm128.43 195.873v34.663c-16.345.006-32.226-3.197-47.204-9.516a120.587 120.587 0 0 1-26.811-15.636l.246 106.693c-.103 24.025-9.608 46.598-26.811 63.601-14 13.84-31.74 22.641-50.968 25.49a93.951 93.951 0 0 1-13.766 1.012c-20.583 0-40.124-6.668-56.109-18.97a93.08 93.08 0 0 1-8.624-7.532c-18.644-18.427-28.258-43.401-26.639-69.674 1.235-19.999 9.242-39.072 22.59-54.021 17.66-19.782 42.366-30.762 68.782-30.762 4.65 0 9.248.349 13.766 1.018v48.468a43.401 43.401 0 0 0-13.623-2.19c-24.134 0-43.659 19.69-43.298 43.842.229 15.453 8.67 28.961 21.12 36.407a43.023 43.023 0 0 0 19.765 6.062 43.42 43.42 0 0 0 16.036-2.127c17.243-5.696 29.682-21.892 29.682-40.994l.057-71.447V109.82h47.736a74.25 74.25 0 0 0 1.418 13.817c3.603 18.101 13.806 33.805 28.006 44.511 12.382 9.339 27.8 14.875 44.511 14.875.011 0 .149 0 .137-.011v12.861z"></path></g></symbol><symbol id="themeicon-top" viewBox="0 0 512 512"><path d="m256 512c-4 0-8-4-8-8l0-496c0-4 4-8 8-8 4 0 8 4 8 8l0 496c0 4-4 8-8 8z m197-300c-2 0-4 0-6-2l-191-191-191 191c-3 3-8 3-11 0-3-3-3-8 0-11l196-197c2-1 4-2 6-2 2 0 4 1 6 2l196 197c3 3 3 8 0 11-1 2-3 2-5 2z"></path></symbol><symbol id="themeicon-triangle" viewBox="0 0 512 512"><path d="m440 246l-354-244c-4-2-8-3-12-1-4 3-7 7-7 11l0 488c0 4 3 9 7 11 1 1 3 1 5 1 3 0 5-1 7-2l354-244c3-2 5-6 5-10 0-4-2-8-5-10z"></path></symbol><symbol id="themeicon-twitter" viewBox="0 0 512 512"><path d="m143 132l185 247 41 0-184-247z m113-129c-140 0-253 113-253 253 0 139 113 253 253 253 139 0 253-114 253-253 0-140-114-253-253-253z m62 396l-84-113-105 113-26 0 119-129-119-158 91 0 78 104 96-104 27 0-111 120 125 167z"></path></symbol><symbol id="themeicon-user" viewBox="0 0 512 512"><path d="m157 161c2 8 4 13 8 16 7 53 54 98 92 96 49-2 83-54 91-96 3-3 6-10 8-18 2-10 4-24-2-31 0-1-2-3-3-3 6-20 18-55-12-86-16-17-38-26-59-32-59-20-101 8-121 54-1 3-10 24 1 64-1 1-2 1-3 3-6 7-2 23 0 33z m308 289c-1-36-3-93-35-140 0 0-9-13-30-21 0 0-47-14-68-29l-10 6 1 64-59 157c-1 3-4 5-8 5-4 0-7-2-8-5l-59-157c0 0 1-63 1-64 0 1-10-6-10-6-21 15-68 29-68 29-21 8-30 21-30 21-32 47-34 104-35 140-2 25 4 35 10 37 82 33 316 33 398 0 6-2 12-12 10-37z m-207-157l-3 0c-8 0-17-1-25-4l23 35-21 21 22 130c0 1 1 2 2 2 1 0 2-1 2-2l22-130-21-21 23-35c-8 3-16 4-24 4z"></path></symbol><symbol id="themeicon-whatsapp" viewBox="0 0 512 512"><path d="m507 247c0 136-112 246-249 246-44 0-85-11-120-30l-138 44 45-133c-23-37-36-81-36-127 0-137 112-247 249-247 137 0 249 110 249 247z m-249-208c-115 0-209 93-209 208 0 45 15 87 40 121l-26 77 80-25c33 22 72 34 115 34 115 0 209-93 209-207 0-115-94-208-209-208z m125 265c-1-3-5-4-11-7-6-4-36-18-42-20-6-2-10-3-14 3-4 6-15 20-19 24-4 4-7 4-13 1-6-3-26-9-49-30-18-16-31-36-34-42-4-6 0-9 3-12 2-3 6-7 9-11 3-3 4-6 6-10 2-4 1-7-1-10-1-3-13-33-18-45-6-12-11-10-14-10-4 0-8-1-12-1-4 0-11 2-16 8-6 6-21 20-21 50 0 30 21 59 24 63 4 4 43 67 105 91 62 24 62 16 73 15 11-1 36-14 41-29 5-14 5-26 3-28z"></path></symbol><symbol id="themeicon-youtube" viewBox="0 0 512 512"><path d="m209 311c38-20 76-39 114-59-38-20-76-40-114-60 0 40 0 79 0 119z m46-311c-141 0-255 114-255 255 0 141 114 256 255 256 141 0 256-115 256-256 0-141-115-255-256-255z m174 341c-4 19-20 33-39 35-44 5-90 5-135 5-45 0-90 0-135-5-19-2-34-16-39-35-6-28-6-58-6-86 0-28 0-58 6-85 5-19 21-33 39-35 45-5 90-5 135-5 45 0 91 0 135 5 19 2 35 16 39 35 7 27 7 57 7 85 0 28 0 58-7 86z"></path></symbol></svg>